G04 #@! TF.GenerationSoftware,KiCad,Pcbnew,(5.1.2)-1*
G04 #@! TF.CreationDate,2022-08-21T12:43:38+09:00*
G04 #@! TF.ProjectId,conv,636f6e76-2e6b-4696-9361-645f70636258,v1.1*
G04 #@! TF.SameCoordinates,Original*
G04 #@! TF.FileFunction,Legend,Bot*
G04 #@! TF.FilePolarity,Positive*
%FSLAX46Y46*%
G04 Gerber Fmt 4.6, Leading zero omitted, Abs format (unit mm)*
G04 Created by KiCad (PCBNEW (5.1.2)-1) date 2022-08-21 12:43:38*
%MOMM*%
%LPD*%
G04 APERTURE LIST*
%ADD10C,0.150000*%
%ADD11C,3.302000*%
%ADD12O,1.802000X1.802000*%
%ADD13R,1.802000X1.802000*%
%ADD14O,1.902000X1.626000*%
G04 APERTURE END LIST*
D10*
X124347619Y-110927380D02*
X124347619Y-109927380D01*
X123919047Y-110022619D02*
X123871428Y-109975000D01*
X123776190Y-109927380D01*
X123538095Y-109927380D01*
X123442857Y-109975000D01*
X123395238Y-110022619D01*
X123347619Y-110117857D01*
X123347619Y-110213095D01*
X123395238Y-110355952D01*
X123966666Y-110927380D01*
X123347619Y-110927380D01*
X122347619Y-110832142D02*
X122395238Y-110879761D01*
X122538095Y-110927380D01*
X122633333Y-110927380D01*
X122776190Y-110879761D01*
X122871428Y-110784523D01*
X122919047Y-110689285D01*
X122966666Y-110498809D01*
X122966666Y-110355952D01*
X122919047Y-110165476D01*
X122871428Y-110070238D01*
X122776190Y-109975000D01*
X122633333Y-109927380D01*
X122538095Y-109927380D01*
X122395238Y-109975000D01*
X122347619Y-110022619D01*
X121919047Y-110546428D02*
X121157142Y-110546428D01*
X120157142Y-110927380D02*
X120728571Y-110927380D01*
X120442857Y-110927380D02*
X120442857Y-109927380D01*
X120538095Y-110070238D01*
X120633333Y-110165476D01*
X120728571Y-110213095D01*
X119823809Y-109927380D02*
X119585714Y-110927380D01*
X119395238Y-110213095D01*
X119204761Y-110927380D01*
X118966666Y-109927380D01*
X118585714Y-110927380D02*
X118585714Y-110260714D01*
X118585714Y-109927380D02*
X118633333Y-109975000D01*
X118585714Y-110022619D01*
X118538095Y-109975000D01*
X118585714Y-109927380D01*
X118585714Y-110022619D01*
X118109523Y-110927380D02*
X118109523Y-110260714D01*
X118109523Y-110451190D02*
X118061904Y-110355952D01*
X118014285Y-110308333D01*
X117919047Y-110260714D01*
X117823809Y-110260714D01*
X117109523Y-110879761D02*
X117204761Y-110927380D01*
X117395238Y-110927380D01*
X117490476Y-110879761D01*
X117538095Y-110784523D01*
X117538095Y-110403571D01*
X117490476Y-110308333D01*
X117395238Y-110260714D01*
X117204761Y-110260714D01*
X117109523Y-110308333D01*
X117061904Y-110403571D01*
X117061904Y-110498809D01*
X117538095Y-110594047D01*
X115300000Y-110832142D02*
X115347619Y-110879761D01*
X115490476Y-110927380D01*
X115585714Y-110927380D01*
X115728571Y-110879761D01*
X115823809Y-110784523D01*
X115871428Y-110689285D01*
X115919047Y-110498809D01*
X115919047Y-110355952D01*
X115871428Y-110165476D01*
X115823809Y-110070238D01*
X115728571Y-109975000D01*
X115585714Y-109927380D01*
X115490476Y-109927380D01*
X115347619Y-109975000D01*
X115300000Y-110022619D01*
X114728571Y-110927380D02*
X114823809Y-110879761D01*
X114871428Y-110832142D01*
X114919047Y-110736904D01*
X114919047Y-110451190D01*
X114871428Y-110355952D01*
X114823809Y-110308333D01*
X114728571Y-110260714D01*
X114585714Y-110260714D01*
X114490476Y-110308333D01*
X114442857Y-110355952D01*
X114395238Y-110451190D01*
X114395238Y-110736904D01*
X114442857Y-110832142D01*
X114490476Y-110879761D01*
X114585714Y-110927380D01*
X114728571Y-110927380D01*
X113966666Y-110260714D02*
X113966666Y-110927380D01*
X113966666Y-110355952D02*
X113919047Y-110308333D01*
X113823809Y-110260714D01*
X113680952Y-110260714D01*
X113585714Y-110308333D01*
X113538095Y-110403571D01*
X113538095Y-110927380D01*
X113157142Y-110260714D02*
X112919047Y-110927380D01*
X112680952Y-110260714D01*
X111919047Y-110879761D02*
X112014285Y-110927380D01*
X112204761Y-110927380D01*
X112300000Y-110879761D01*
X112347619Y-110784523D01*
X112347619Y-110403571D01*
X112300000Y-110308333D01*
X112204761Y-110260714D01*
X112014285Y-110260714D01*
X111919047Y-110308333D01*
X111871428Y-110403571D01*
X111871428Y-110498809D01*
X112347619Y-110594047D01*
X111442857Y-110927380D02*
X111442857Y-110260714D01*
X111442857Y-110451190D02*
X111395238Y-110355952D01*
X111347619Y-110308333D01*
X111252380Y-110260714D01*
X111157142Y-110260714D01*
X110966666Y-110260714D02*
X110585714Y-110260714D01*
X110823809Y-109927380D02*
X110823809Y-110784523D01*
X110776190Y-110879761D01*
X110680952Y-110927380D01*
X110585714Y-110927380D01*
X109871428Y-110879761D02*
X109966666Y-110927380D01*
X110157142Y-110927380D01*
X110252380Y-110879761D01*
X110300000Y-110784523D01*
X110300000Y-110403571D01*
X110252380Y-110308333D01*
X110157142Y-110260714D01*
X109966666Y-110260714D01*
X109871428Y-110308333D01*
X109823809Y-110403571D01*
X109823809Y-110498809D01*
X110300000Y-110594047D01*
X109395238Y-110927380D02*
X109395238Y-110260714D01*
X109395238Y-110451190D02*
X109347619Y-110355952D01*
X109300000Y-110308333D01*
X109204761Y-110260714D01*
X109109523Y-110260714D01*
X124085714Y-111672619D02*
X124038095Y-111625000D01*
X123942857Y-111577380D01*
X123704761Y-111577380D01*
X123609523Y-111625000D01*
X123561904Y-111672619D01*
X123514285Y-111767857D01*
X123514285Y-111863095D01*
X123561904Y-112005952D01*
X124133333Y-112577380D01*
X123514285Y-112577380D01*
X123133333Y-111672619D02*
X123085714Y-111625000D01*
X122990476Y-111577380D01*
X122752380Y-111577380D01*
X122657142Y-111625000D01*
X122609523Y-111672619D01*
X122561904Y-111767857D01*
X122561904Y-111863095D01*
X122609523Y-112005952D01*
X123180952Y-112577380D01*
X122561904Y-112577380D01*
X121942857Y-111577380D02*
X121847619Y-111577380D01*
X121752380Y-111625000D01*
X121704761Y-111672619D01*
X121657142Y-111767857D01*
X121609523Y-111958333D01*
X121609523Y-112196428D01*
X121657142Y-112386904D01*
X121704761Y-112482142D01*
X121752380Y-112529761D01*
X121847619Y-112577380D01*
X121942857Y-112577380D01*
X122038095Y-112529761D01*
X122085714Y-112482142D01*
X122133333Y-112386904D01*
X122180952Y-112196428D01*
X122180952Y-111958333D01*
X122133333Y-111767857D01*
X122085714Y-111672619D01*
X122038095Y-111625000D01*
X121942857Y-111577380D01*
X121133333Y-112577380D02*
X120942857Y-112577380D01*
X120847619Y-112529761D01*
X120800000Y-112482142D01*
X120704761Y-112339285D01*
X120657142Y-112148809D01*
X120657142Y-111767857D01*
X120704761Y-111672619D01*
X120752380Y-111625000D01*
X120847619Y-111577380D01*
X121038095Y-111577380D01*
X121133333Y-111625000D01*
X121180952Y-111672619D01*
X121228571Y-111767857D01*
X121228571Y-112005952D01*
X121180952Y-112101190D01*
X121133333Y-112148809D01*
X121038095Y-112196428D01*
X120847619Y-112196428D01*
X120752380Y-112148809D01*
X120704761Y-112101190D01*
X120657142Y-112005952D01*
X119561904Y-111910714D02*
X119323809Y-112577380D01*
X119085714Y-111910714D01*
X118180952Y-112577380D02*
X118752380Y-112577380D01*
X118466666Y-112577380D02*
X118466666Y-111577380D01*
X118561904Y-111720238D01*
X118657142Y-111815476D01*
X118752380Y-111863095D01*
X117752380Y-112482142D02*
X117704761Y-112529761D01*
X117752380Y-112577380D01*
X117800000Y-112529761D01*
X117752380Y-112482142D01*
X117752380Y-112577380D01*
X117323809Y-111672619D02*
X117276190Y-111625000D01*
X117180952Y-111577380D01*
X116942857Y-111577380D01*
X116847619Y-111625000D01*
X116800000Y-111672619D01*
X116752380Y-111767857D01*
X116752380Y-111863095D01*
X116800000Y-112005952D01*
X117371428Y-112577380D01*
X116752380Y-112577380D01*
X114990476Y-112482142D02*
X115038095Y-112529761D01*
X115180952Y-112577380D01*
X115276190Y-112577380D01*
X115419047Y-112529761D01*
X115514285Y-112434523D01*
X115561904Y-112339285D01*
X115609523Y-112148809D01*
X115609523Y-112005952D01*
X115561904Y-111815476D01*
X115514285Y-111720238D01*
X115419047Y-111625000D01*
X115276190Y-111577380D01*
X115180952Y-111577380D01*
X115038095Y-111625000D01*
X114990476Y-111672619D01*
X114561904Y-112577380D02*
X114561904Y-111910714D01*
X114561904Y-112101190D02*
X114514285Y-112005952D01*
X114466666Y-111958333D01*
X114371428Y-111910714D01*
X114276190Y-111910714D01*
X113561904Y-112529761D02*
X113657142Y-112577380D01*
X113847619Y-112577380D01*
X113942857Y-112529761D01*
X113990476Y-112434523D01*
X113990476Y-112053571D01*
X113942857Y-111958333D01*
X113847619Y-111910714D01*
X113657142Y-111910714D01*
X113561904Y-111958333D01*
X113514285Y-112053571D01*
X113514285Y-112148809D01*
X113990476Y-112244047D01*
X113133333Y-112529761D02*
X113038095Y-112577380D01*
X112847619Y-112577380D01*
X112752380Y-112529761D01*
X112704761Y-112434523D01*
X112704761Y-112386904D01*
X112752380Y-112291666D01*
X112847619Y-112244047D01*
X112990476Y-112244047D01*
X113085714Y-112196428D01*
X113133333Y-112101190D01*
X113133333Y-112053571D01*
X113085714Y-111958333D01*
X112990476Y-111910714D01*
X112847619Y-111910714D01*
X112752380Y-111958333D01*
X111847619Y-112529761D02*
X111942857Y-112577380D01*
X112133333Y-112577380D01*
X112228571Y-112529761D01*
X112276190Y-112482142D01*
X112323809Y-112386904D01*
X112323809Y-112101190D01*
X112276190Y-112005952D01*
X112228571Y-111958333D01*
X112133333Y-111910714D01*
X111942857Y-111910714D01*
X111847619Y-111958333D01*
X111038095Y-112529761D02*
X111133333Y-112577380D01*
X111323809Y-112577380D01*
X111419047Y-112529761D01*
X111466666Y-112434523D01*
X111466666Y-112053571D01*
X111419047Y-111958333D01*
X111323809Y-111910714D01*
X111133333Y-111910714D01*
X111038095Y-111958333D01*
X110990476Y-112053571D01*
X110990476Y-112148809D01*
X111466666Y-112244047D01*
X110561904Y-111910714D02*
X110561904Y-112577380D01*
X110561904Y-112005952D02*
X110514285Y-111958333D01*
X110419047Y-111910714D01*
X110276190Y-111910714D01*
X110180952Y-111958333D01*
X110133333Y-112053571D01*
X110133333Y-112577380D01*
X109800000Y-111910714D02*
X109419047Y-111910714D01*
X109657142Y-111577380D02*
X109657142Y-112434523D01*
X109609523Y-112529761D01*
X109514285Y-112577380D01*
X109419047Y-112577380D01*
%LPC*%
D11*
X103000000Y-112000000D03*
X103000000Y-93000000D03*
D12*
X126000000Y-104540000D03*
X126000000Y-102000000D03*
D13*
X126000000Y-99460000D03*
D14*
X108000000Y-99000000D03*
X108000000Y-101000000D03*
X108000000Y-103000000D03*
X108000000Y-105000000D03*
M02*
