G04 #@! TF.GenerationSoftware,KiCad,Pcbnew,(5.1.2)-1*
G04 #@! TF.CreationDate,2022-08-21T12:43:38+09:00*
G04 #@! TF.ProjectId,conv,636f6e76-2e6b-4696-9361-645f70636258,v1.1*
G04 #@! TF.SameCoordinates,Original*
G04 #@! TF.FileFunction,Legend,Top*
G04 #@! TF.FilePolarity,Positive*
%FSLAX46Y46*%
G04 Gerber Fmt 4.6, Leading zero omitted, Abs format (unit mm)*
G04 Created by KiCad (PCBNEW (5.1.2)-1) date 2022-08-21 12:43:38*
%MOMM*%
%LPD*%
G04 APERTURE LIST*
%ADD10C,0.150000*%
%ADD11C,0.120000*%
%ADD12C,0.100000*%
%ADD13C,0.977000*%
%ADD14R,0.902000X1.002000*%
%ADD15C,3.302000*%
%ADD16R,1.402000X2.602000*%
%ADD17R,0.602000X0.552000*%
%ADD18R,1.162000X0.752000*%
%ADD19O,1.802000X1.802000*%
%ADD20R,1.802000X1.802000*%
%ADD21O,1.902000X1.626000*%
%ADD22C,1.077000*%
G04 APERTURE END LIST*
D10*
X122138095Y-104100000D02*
X122042857Y-104052380D01*
X121900000Y-104052380D01*
X121757142Y-104100000D01*
X121661904Y-104195238D01*
X121614285Y-104290476D01*
X121566666Y-104480952D01*
X121566666Y-104623809D01*
X121614285Y-104814285D01*
X121661904Y-104909523D01*
X121757142Y-105004761D01*
X121900000Y-105052380D01*
X121995238Y-105052380D01*
X122138095Y-105004761D01*
X122185714Y-104957142D01*
X122185714Y-104623809D01*
X121995238Y-104623809D01*
X122614285Y-105052380D02*
X122614285Y-104052380D01*
X123185714Y-105052380D01*
X123185714Y-104052380D01*
X123661904Y-105052380D02*
X123661904Y-104052380D01*
X123900000Y-104052380D01*
X124042857Y-104100000D01*
X124138095Y-104195238D01*
X124185714Y-104290476D01*
X124233333Y-104480952D01*
X124233333Y-104623809D01*
X124185714Y-104814285D01*
X124138095Y-104909523D01*
X124042857Y-105004761D01*
X123900000Y-105052380D01*
X123661904Y-105052380D01*
X121852380Y-102252380D02*
X121852380Y-101252380D01*
X123042857Y-101204761D02*
X122185714Y-102490476D01*
X123566666Y-101252380D02*
X123757142Y-101252380D01*
X123852380Y-101300000D01*
X123947619Y-101395238D01*
X123995238Y-101585714D01*
X123995238Y-101919047D01*
X123947619Y-102109523D01*
X123852380Y-102204761D01*
X123757142Y-102252380D01*
X123566666Y-102252380D01*
X123471428Y-102204761D01*
X123376190Y-102109523D01*
X123328571Y-101919047D01*
X123328571Y-101585714D01*
X123376190Y-101395238D01*
X123471428Y-101300000D01*
X123566666Y-101252380D01*
X122466666Y-98752380D02*
X122800000Y-99752380D01*
X123133333Y-98752380D01*
D11*
X124025221Y-113210000D02*
X124350779Y-113210000D01*
X124025221Y-112190000D02*
X124350779Y-112190000D01*
X121349221Y-93910000D02*
X121674779Y-93910000D01*
X121349221Y-92890000D02*
X121674779Y-92890000D01*
X124710000Y-92675279D02*
X124710000Y-92349721D01*
X123690000Y-92675279D02*
X123690000Y-92349721D01*
X121325221Y-92210000D02*
X121650779Y-92210000D01*
X121325221Y-91190000D02*
X121650779Y-91190000D01*
X118349221Y-107510000D02*
X118674779Y-107510000D01*
X118349221Y-106490000D02*
X118674779Y-106490000D01*
X109449221Y-113210000D02*
X109774779Y-113210000D01*
X109449221Y-112190000D02*
X109774779Y-112190000D01*
X114225221Y-113210000D02*
X114550779Y-113210000D01*
X114225221Y-112190000D02*
X114550779Y-112190000D01*
X119920000Y-96760000D02*
X119920000Y-95300000D01*
X123080000Y-96760000D02*
X123080000Y-94600000D01*
X123080000Y-96760000D02*
X122150000Y-96760000D01*
X119920000Y-96760000D02*
X120850000Y-96760000D01*
X125830000Y-108840000D02*
X125830000Y-110300000D01*
X122670000Y-108840000D02*
X122670000Y-111000000D01*
X122670000Y-108840000D02*
X123600000Y-108840000D01*
X125830000Y-108840000D02*
X124900000Y-108840000D01*
X120930000Y-108940000D02*
X120930000Y-110400000D01*
X117770000Y-108940000D02*
X117770000Y-111100000D01*
X117770000Y-108940000D02*
X118700000Y-108940000D01*
X120930000Y-108940000D02*
X120000000Y-108940000D01*
X116030000Y-109140000D02*
X116030000Y-110600000D01*
X112870000Y-109140000D02*
X112870000Y-111300000D01*
X112870000Y-109140000D02*
X113800000Y-109140000D01*
X116030000Y-109140000D02*
X115100000Y-109140000D01*
X111180000Y-109140000D02*
X111180000Y-110600000D01*
X108020000Y-109140000D02*
X108020000Y-111300000D01*
X108020000Y-109140000D02*
X108950000Y-109140000D01*
X111180000Y-109140000D02*
X110250000Y-109140000D01*
X113600000Y-93490000D02*
X111150000Y-93490000D01*
X111800000Y-96710000D02*
X113600000Y-96710000D01*
X109874779Y-91590000D02*
X109549221Y-91590000D01*
X109874779Y-92610000D02*
X109549221Y-92610000D01*
X119125221Y-113210000D02*
X119450779Y-113210000D01*
X119125221Y-112190000D02*
X119450779Y-112190000D01*
X113062779Y-104490000D02*
X112737221Y-104490000D01*
X113062779Y-105510000D02*
X112737221Y-105510000D01*
X113062779Y-102490000D02*
X112737221Y-102490000D01*
X113062779Y-103510000D02*
X112737221Y-103510000D01*
X124670000Y-98130000D02*
X126000000Y-98130000D01*
X124670000Y-99460000D02*
X124670000Y-98130000D01*
X124670000Y-100730000D02*
X127330000Y-100730000D01*
X127330000Y-100730000D02*
X127330000Y-105870000D01*
X124670000Y-100730000D02*
X124670000Y-105870000D01*
X124670000Y-105870000D02*
X127330000Y-105870000D01*
D10*
X109500000Y-97500000D02*
X109500000Y-102000000D01*
X106500000Y-97500000D02*
X109500000Y-97500000D01*
X106500000Y-106500000D02*
X106500000Y-97500000D01*
X109500000Y-106500000D02*
X106500000Y-106500000D01*
X109500000Y-102000000D02*
X109500000Y-106500000D01*
X109000000Y-104000000D02*
X109500000Y-104000000D01*
X109000000Y-100000000D02*
X109000000Y-104000000D01*
X109500000Y-100000000D02*
X109000000Y-100000000D01*
D11*
X111603000Y-92835000D02*
X113888000Y-92835000D01*
X111603000Y-91365000D02*
X111603000Y-92835000D01*
X113888000Y-91365000D02*
X111603000Y-91365000D01*
X116834721Y-105260000D02*
X117160279Y-105260000D01*
X116834721Y-104240000D02*
X117160279Y-104240000D01*
X115290000Y-94778922D02*
X115290000Y-95296078D01*
X116710000Y-94778922D02*
X116710000Y-95296078D01*
X112850779Y-97290000D02*
X112525221Y-97290000D01*
X112850779Y-98310000D02*
X112525221Y-98310000D01*
X108490000Y-94841422D02*
X108490000Y-95358578D01*
X109910000Y-94841422D02*
X109910000Y-95358578D01*
D10*
X123632642Y-114552380D02*
X123299309Y-114076190D01*
X123061214Y-114552380D02*
X123061214Y-113552380D01*
X123442166Y-113552380D01*
X123537404Y-113600000D01*
X123585023Y-113647619D01*
X123632642Y-113742857D01*
X123632642Y-113885714D01*
X123585023Y-113980952D01*
X123537404Y-114028571D01*
X123442166Y-114076190D01*
X123061214Y-114076190D01*
X124585023Y-114552380D02*
X124013595Y-114552380D01*
X124299309Y-114552380D02*
X124299309Y-113552380D01*
X124204071Y-113695238D01*
X124108833Y-113790476D01*
X124013595Y-113838095D01*
X125537404Y-114552380D02*
X124965976Y-114552380D01*
X125251690Y-114552380D02*
X125251690Y-113552380D01*
X125156452Y-113695238D01*
X125061214Y-113790476D01*
X124965976Y-113838095D01*
X117956642Y-93852380D02*
X117623309Y-93376190D01*
X117385214Y-93852380D02*
X117385214Y-92852380D01*
X117766166Y-92852380D01*
X117861404Y-92900000D01*
X117909023Y-92947619D01*
X117956642Y-93042857D01*
X117956642Y-93185714D01*
X117909023Y-93280952D01*
X117861404Y-93328571D01*
X117766166Y-93376190D01*
X117385214Y-93376190D01*
X118909023Y-93852380D02*
X118337595Y-93852380D01*
X118623309Y-93852380D02*
X118623309Y-92852380D01*
X118528071Y-92995238D01*
X118432833Y-93090476D01*
X118337595Y-93138095D01*
X119528071Y-92852380D02*
X119623309Y-92852380D01*
X119718547Y-92900000D01*
X119766166Y-92947619D01*
X119813785Y-93042857D01*
X119861404Y-93233333D01*
X119861404Y-93471428D01*
X119813785Y-93661904D01*
X119766166Y-93757142D01*
X119718547Y-93804761D01*
X119623309Y-93852380D01*
X119528071Y-93852380D01*
X119432833Y-93804761D01*
X119385214Y-93757142D01*
X119337595Y-93661904D01*
X119289976Y-93471428D01*
X119289976Y-93233333D01*
X119337595Y-93042857D01*
X119385214Y-92947619D01*
X119432833Y-92900000D01*
X119528071Y-92852380D01*
X126052380Y-92566666D02*
X125576190Y-92900000D01*
X126052380Y-93138095D02*
X125052380Y-93138095D01*
X125052380Y-92757142D01*
X125100000Y-92661904D01*
X125147619Y-92614285D01*
X125242857Y-92566666D01*
X125385714Y-92566666D01*
X125480952Y-92614285D01*
X125528571Y-92661904D01*
X125576190Y-92757142D01*
X125576190Y-93138095D01*
X126052380Y-92090476D02*
X126052380Y-91900000D01*
X126004761Y-91804761D01*
X125957142Y-91757142D01*
X125814285Y-91661904D01*
X125623809Y-91614285D01*
X125242857Y-91614285D01*
X125147619Y-91661904D01*
X125100000Y-91709523D01*
X125052380Y-91804761D01*
X125052380Y-91995238D01*
X125100000Y-92090476D01*
X125147619Y-92138095D01*
X125242857Y-92185714D01*
X125480952Y-92185714D01*
X125576190Y-92138095D01*
X125623809Y-92090476D01*
X125671428Y-91995238D01*
X125671428Y-91804761D01*
X125623809Y-91709523D01*
X125576190Y-91661904D01*
X125480952Y-91614285D01*
X118933833Y-92052380D02*
X118600500Y-91576190D01*
X118362404Y-92052380D02*
X118362404Y-91052380D01*
X118743357Y-91052380D01*
X118838595Y-91100000D01*
X118886214Y-91147619D01*
X118933833Y-91242857D01*
X118933833Y-91385714D01*
X118886214Y-91480952D01*
X118838595Y-91528571D01*
X118743357Y-91576190D01*
X118362404Y-91576190D01*
X119505261Y-91480952D02*
X119410023Y-91433333D01*
X119362404Y-91385714D01*
X119314785Y-91290476D01*
X119314785Y-91242857D01*
X119362404Y-91147619D01*
X119410023Y-91100000D01*
X119505261Y-91052380D01*
X119695738Y-91052380D01*
X119790976Y-91100000D01*
X119838595Y-91147619D01*
X119886214Y-91242857D01*
X119886214Y-91290476D01*
X119838595Y-91385714D01*
X119790976Y-91433333D01*
X119695738Y-91480952D01*
X119505261Y-91480952D01*
X119410023Y-91528571D01*
X119362404Y-91576190D01*
X119314785Y-91671428D01*
X119314785Y-91861904D01*
X119362404Y-91957142D01*
X119410023Y-92004761D01*
X119505261Y-92052380D01*
X119695738Y-92052380D01*
X119790976Y-92004761D01*
X119838595Y-91957142D01*
X119886214Y-91861904D01*
X119886214Y-91671428D01*
X119838595Y-91576190D01*
X119790976Y-91528571D01*
X119695738Y-91480952D01*
X115857833Y-107452380D02*
X115524500Y-106976190D01*
X115286404Y-107452380D02*
X115286404Y-106452380D01*
X115667357Y-106452380D01*
X115762595Y-106500000D01*
X115810214Y-106547619D01*
X115857833Y-106642857D01*
X115857833Y-106785714D01*
X115810214Y-106880952D01*
X115762595Y-106928571D01*
X115667357Y-106976190D01*
X115286404Y-106976190D01*
X116191166Y-106452380D02*
X116857833Y-106452380D01*
X116429261Y-107452380D01*
X109632833Y-114552380D02*
X109299500Y-114076190D01*
X109061404Y-114552380D02*
X109061404Y-113552380D01*
X109442357Y-113552380D01*
X109537595Y-113600000D01*
X109585214Y-113647619D01*
X109632833Y-113742857D01*
X109632833Y-113885714D01*
X109585214Y-113980952D01*
X109537595Y-114028571D01*
X109442357Y-114076190D01*
X109061404Y-114076190D01*
X110489976Y-113552380D02*
X110299500Y-113552380D01*
X110204261Y-113600000D01*
X110156642Y-113647619D01*
X110061404Y-113790476D01*
X110013785Y-113980952D01*
X110013785Y-114361904D01*
X110061404Y-114457142D01*
X110109023Y-114504761D01*
X110204261Y-114552380D01*
X110394738Y-114552380D01*
X110489976Y-114504761D01*
X110537595Y-114457142D01*
X110585214Y-114361904D01*
X110585214Y-114123809D01*
X110537595Y-114028571D01*
X110489976Y-113980952D01*
X110394738Y-113933333D01*
X110204261Y-113933333D01*
X110109023Y-113980952D01*
X110061404Y-114028571D01*
X110013785Y-114123809D01*
X114308833Y-114652380D02*
X113975500Y-114176190D01*
X113737404Y-114652380D02*
X113737404Y-113652380D01*
X114118357Y-113652380D01*
X114213595Y-113700000D01*
X114261214Y-113747619D01*
X114308833Y-113842857D01*
X114308833Y-113985714D01*
X114261214Y-114080952D01*
X114213595Y-114128571D01*
X114118357Y-114176190D01*
X113737404Y-114176190D01*
X115261214Y-114652380D02*
X114689785Y-114652380D01*
X114975500Y-114652380D02*
X114975500Y-113652380D01*
X114880261Y-113795238D01*
X114785023Y-113890476D01*
X114689785Y-113938095D01*
X124547619Y-96095238D02*
X124500000Y-96190476D01*
X124404761Y-96285714D01*
X124261904Y-96428571D01*
X124214285Y-96523809D01*
X124214285Y-96619047D01*
X124452380Y-96571428D02*
X124404761Y-96666666D01*
X124309523Y-96761904D01*
X124119047Y-96809523D01*
X123785714Y-96809523D01*
X123595238Y-96761904D01*
X123500000Y-96666666D01*
X123452380Y-96571428D01*
X123452380Y-96380952D01*
X123500000Y-96285714D01*
X123595238Y-96190476D01*
X123785714Y-96142857D01*
X124119047Y-96142857D01*
X124309523Y-96190476D01*
X124404761Y-96285714D01*
X124452380Y-96380952D01*
X124452380Y-96571428D01*
X123452380Y-95238095D02*
X123452380Y-95714285D01*
X123928571Y-95761904D01*
X123880952Y-95714285D01*
X123833333Y-95619047D01*
X123833333Y-95380952D01*
X123880952Y-95285714D01*
X123928571Y-95238095D01*
X124023809Y-95190476D01*
X124261904Y-95190476D01*
X124357142Y-95238095D01*
X124404761Y-95285714D01*
X124452380Y-95380952D01*
X124452380Y-95619047D01*
X124404761Y-95714285D01*
X124357142Y-95761904D01*
X122497619Y-109695238D02*
X122450000Y-109790476D01*
X122354761Y-109885714D01*
X122211904Y-110028571D01*
X122164285Y-110123809D01*
X122164285Y-110219047D01*
X122402380Y-110171428D02*
X122354761Y-110266666D01*
X122259523Y-110361904D01*
X122069047Y-110409523D01*
X121735714Y-110409523D01*
X121545238Y-110361904D01*
X121450000Y-110266666D01*
X121402380Y-110171428D01*
X121402380Y-109980952D01*
X121450000Y-109885714D01*
X121545238Y-109790476D01*
X121735714Y-109742857D01*
X122069047Y-109742857D01*
X122259523Y-109790476D01*
X122354761Y-109885714D01*
X122402380Y-109980952D01*
X122402380Y-110171428D01*
X121735714Y-108885714D02*
X122402380Y-108885714D01*
X121354761Y-109123809D02*
X122069047Y-109361904D01*
X122069047Y-108742857D01*
X117597619Y-109795238D02*
X117550000Y-109890476D01*
X117454761Y-109985714D01*
X117311904Y-110128571D01*
X117264285Y-110223809D01*
X117264285Y-110319047D01*
X117502380Y-110271428D02*
X117454761Y-110366666D01*
X117359523Y-110461904D01*
X117169047Y-110509523D01*
X116835714Y-110509523D01*
X116645238Y-110461904D01*
X116550000Y-110366666D01*
X116502380Y-110271428D01*
X116502380Y-110080952D01*
X116550000Y-109985714D01*
X116645238Y-109890476D01*
X116835714Y-109842857D01*
X117169047Y-109842857D01*
X117359523Y-109890476D01*
X117454761Y-109985714D01*
X117502380Y-110080952D01*
X117502380Y-110271428D01*
X116502380Y-109509523D02*
X116502380Y-108890476D01*
X116883333Y-109223809D01*
X116883333Y-109080952D01*
X116930952Y-108985714D01*
X116978571Y-108938095D01*
X117073809Y-108890476D01*
X117311904Y-108890476D01*
X117407142Y-108938095D01*
X117454761Y-108985714D01*
X117502380Y-109080952D01*
X117502380Y-109366666D01*
X117454761Y-109461904D01*
X117407142Y-109509523D01*
X112697619Y-109995238D02*
X112650000Y-110090476D01*
X112554761Y-110185714D01*
X112411904Y-110328571D01*
X112364285Y-110423809D01*
X112364285Y-110519047D01*
X112602380Y-110471428D02*
X112554761Y-110566666D01*
X112459523Y-110661904D01*
X112269047Y-110709523D01*
X111935714Y-110709523D01*
X111745238Y-110661904D01*
X111650000Y-110566666D01*
X111602380Y-110471428D01*
X111602380Y-110280952D01*
X111650000Y-110185714D01*
X111745238Y-110090476D01*
X111935714Y-110042857D01*
X112269047Y-110042857D01*
X112459523Y-110090476D01*
X112554761Y-110185714D01*
X112602380Y-110280952D01*
X112602380Y-110471428D01*
X111697619Y-109661904D02*
X111650000Y-109614285D01*
X111602380Y-109519047D01*
X111602380Y-109280952D01*
X111650000Y-109185714D01*
X111697619Y-109138095D01*
X111792857Y-109090476D01*
X111888095Y-109090476D01*
X112030952Y-109138095D01*
X112602380Y-109709523D01*
X112602380Y-109090476D01*
X107847619Y-109995238D02*
X107800000Y-110090476D01*
X107704761Y-110185714D01*
X107561904Y-110328571D01*
X107514285Y-110423809D01*
X107514285Y-110519047D01*
X107752380Y-110471428D02*
X107704761Y-110566666D01*
X107609523Y-110661904D01*
X107419047Y-110709523D01*
X107085714Y-110709523D01*
X106895238Y-110661904D01*
X106800000Y-110566666D01*
X106752380Y-110471428D01*
X106752380Y-110280952D01*
X106800000Y-110185714D01*
X106895238Y-110090476D01*
X107085714Y-110042857D01*
X107419047Y-110042857D01*
X107609523Y-110090476D01*
X107704761Y-110185714D01*
X107752380Y-110280952D01*
X107752380Y-110471428D01*
X107752380Y-109090476D02*
X107752380Y-109661904D01*
X107752380Y-109376190D02*
X106752380Y-109376190D01*
X106895238Y-109471428D01*
X106990476Y-109566666D01*
X107038095Y-109661904D01*
X116538095Y-98352380D02*
X116538095Y-99161904D01*
X116585714Y-99257142D01*
X116633333Y-99304761D01*
X116728571Y-99352380D01*
X116919047Y-99352380D01*
X117014285Y-99304761D01*
X117061904Y-99257142D01*
X117109523Y-99161904D01*
X117109523Y-98352380D01*
X117538095Y-98447619D02*
X117585714Y-98400000D01*
X117680952Y-98352380D01*
X117919047Y-98352380D01*
X118014285Y-98400000D01*
X118061904Y-98447619D01*
X118109523Y-98542857D01*
X118109523Y-98638095D01*
X118061904Y-98780952D01*
X117490476Y-99352380D01*
X118109523Y-99352380D01*
X114438095Y-97052380D02*
X114438095Y-97861904D01*
X114485714Y-97957142D01*
X114533333Y-98004761D01*
X114628571Y-98052380D01*
X114819047Y-98052380D01*
X114914285Y-98004761D01*
X114961904Y-97957142D01*
X115009523Y-97861904D01*
X115009523Y-97052380D01*
X116009523Y-98052380D02*
X115438095Y-98052380D01*
X115723809Y-98052380D02*
X115723809Y-97052380D01*
X115628571Y-97195238D01*
X115533333Y-97290476D01*
X115438095Y-97338095D01*
X107132833Y-92552380D02*
X106799500Y-92076190D01*
X106561404Y-92552380D02*
X106561404Y-91552380D01*
X106942357Y-91552380D01*
X107037595Y-91600000D01*
X107085214Y-91647619D01*
X107132833Y-91742857D01*
X107132833Y-91885714D01*
X107085214Y-91980952D01*
X107037595Y-92028571D01*
X106942357Y-92076190D01*
X106561404Y-92076190D01*
X108037595Y-91552380D02*
X107561404Y-91552380D01*
X107513785Y-92028571D01*
X107561404Y-91980952D01*
X107656642Y-91933333D01*
X107894738Y-91933333D01*
X107989976Y-91980952D01*
X108037595Y-92028571D01*
X108085214Y-92123809D01*
X108085214Y-92361904D01*
X108037595Y-92457142D01*
X107989976Y-92504761D01*
X107894738Y-92552380D01*
X107656642Y-92552380D01*
X107561404Y-92504761D01*
X107513785Y-92457142D01*
X119233833Y-114552380D02*
X118900500Y-114076190D01*
X118662404Y-114552380D02*
X118662404Y-113552380D01*
X119043357Y-113552380D01*
X119138595Y-113600000D01*
X119186214Y-113647619D01*
X119233833Y-113742857D01*
X119233833Y-113885714D01*
X119186214Y-113980952D01*
X119138595Y-114028571D01*
X119043357Y-114076190D01*
X118662404Y-114076190D01*
X120090976Y-113885714D02*
X120090976Y-114552380D01*
X119852880Y-113504761D02*
X119614785Y-114219047D01*
X120233833Y-114219047D01*
X112733333Y-106882380D02*
X112400000Y-106406190D01*
X112161904Y-106882380D02*
X112161904Y-105882380D01*
X112542857Y-105882380D01*
X112638095Y-105930000D01*
X112685714Y-105977619D01*
X112733333Y-106072857D01*
X112733333Y-106215714D01*
X112685714Y-106310952D01*
X112638095Y-106358571D01*
X112542857Y-106406190D01*
X112161904Y-106406190D01*
X113066666Y-105882380D02*
X113685714Y-105882380D01*
X113352380Y-106263333D01*
X113495238Y-106263333D01*
X113590476Y-106310952D01*
X113638095Y-106358571D01*
X113685714Y-106453809D01*
X113685714Y-106691904D01*
X113638095Y-106787142D01*
X113590476Y-106834761D01*
X113495238Y-106882380D01*
X113209523Y-106882380D01*
X113114285Y-106834761D01*
X113066666Y-106787142D01*
X112733333Y-102152380D02*
X112400000Y-101676190D01*
X112161904Y-102152380D02*
X112161904Y-101152380D01*
X112542857Y-101152380D01*
X112638095Y-101200000D01*
X112685714Y-101247619D01*
X112733333Y-101342857D01*
X112733333Y-101485714D01*
X112685714Y-101580952D01*
X112638095Y-101628571D01*
X112542857Y-101676190D01*
X112161904Y-101676190D01*
X113114285Y-101247619D02*
X113161904Y-101200000D01*
X113257142Y-101152380D01*
X113495238Y-101152380D01*
X113590476Y-101200000D01*
X113638095Y-101247619D01*
X113685714Y-101342857D01*
X113685714Y-101438095D01*
X113638095Y-101580952D01*
X113066666Y-102152380D01*
X113685714Y-102152380D01*
X125666666Y-96582380D02*
X125666666Y-97296666D01*
X125619047Y-97439523D01*
X125523809Y-97534761D01*
X125380952Y-97582380D01*
X125285714Y-97582380D01*
X126095238Y-96677619D02*
X126142857Y-96630000D01*
X126238095Y-96582380D01*
X126476190Y-96582380D01*
X126571428Y-96630000D01*
X126619047Y-96677619D01*
X126666666Y-96772857D01*
X126666666Y-96868095D01*
X126619047Y-97010952D01*
X126047619Y-97582380D01*
X126666666Y-97582380D01*
X107666666Y-107452380D02*
X107666666Y-108166666D01*
X107619047Y-108309523D01*
X107523809Y-108404761D01*
X107380952Y-108452380D01*
X107285714Y-108452380D01*
X108666666Y-108452380D02*
X108095238Y-108452380D01*
X108380952Y-108452380D02*
X108380952Y-107452380D01*
X108285714Y-107595238D01*
X108190476Y-107690476D01*
X108095238Y-107738095D01*
X110000000Y-98738095D02*
X109952380Y-98833333D01*
X109952380Y-98976190D01*
X110000000Y-99119047D01*
X110095238Y-99214285D01*
X110190476Y-99261904D01*
X110380952Y-99309523D01*
X110523809Y-99309523D01*
X110714285Y-99261904D01*
X110809523Y-99214285D01*
X110904761Y-99119047D01*
X110952380Y-98976190D01*
X110952380Y-98880952D01*
X110904761Y-98738095D01*
X110857142Y-98690476D01*
X110523809Y-98690476D01*
X110523809Y-98880952D01*
X109952380Y-101333333D02*
X110952380Y-101000000D01*
X109952380Y-100666666D01*
X110952380Y-103261904D02*
X109952380Y-103261904D01*
X109952380Y-103023809D01*
X110000000Y-102880952D01*
X110095238Y-102785714D01*
X110190476Y-102738095D01*
X110380952Y-102690476D01*
X110523809Y-102690476D01*
X110714285Y-102738095D01*
X110809523Y-102785714D01*
X110904761Y-102880952D01*
X110952380Y-103023809D01*
X110952380Y-103261904D01*
X110857142Y-104690476D02*
X110904761Y-104738095D01*
X110952380Y-104880952D01*
X110952380Y-104976190D01*
X110904761Y-105119047D01*
X110809523Y-105214285D01*
X110714285Y-105261904D01*
X110523809Y-105309523D01*
X110380952Y-105309523D01*
X110190476Y-105261904D01*
X110095238Y-105214285D01*
X110000000Y-105119047D01*
X109952380Y-104976190D01*
X109952380Y-104880952D01*
X110000000Y-104738095D01*
X110047619Y-104690476D01*
X114761904Y-92552380D02*
X114761904Y-91552380D01*
X115000000Y-91552380D01*
X115142857Y-91600000D01*
X115238095Y-91695238D01*
X115285714Y-91790476D01*
X115333333Y-91980952D01*
X115333333Y-92123809D01*
X115285714Y-92314285D01*
X115238095Y-92409523D01*
X115142857Y-92504761D01*
X115000000Y-92552380D01*
X114761904Y-92552380D01*
X116285714Y-92552380D02*
X115714285Y-92552380D01*
X116000000Y-92552380D02*
X116000000Y-91552380D01*
X115904761Y-91695238D01*
X115809523Y-91790476D01*
X115714285Y-91838095D01*
X119193333Y-105107142D02*
X119145714Y-105154761D01*
X119002857Y-105202380D01*
X118907619Y-105202380D01*
X118764761Y-105154761D01*
X118669523Y-105059523D01*
X118621904Y-104964285D01*
X118574285Y-104773809D01*
X118574285Y-104630952D01*
X118621904Y-104440476D01*
X118669523Y-104345238D01*
X118764761Y-104250000D01*
X118907619Y-104202380D01*
X119002857Y-104202380D01*
X119145714Y-104250000D01*
X119193333Y-104297619D01*
X120050476Y-104535714D02*
X120050476Y-105202380D01*
X119812380Y-104154761D02*
X119574285Y-104869047D01*
X120193333Y-104869047D01*
X118057142Y-95166666D02*
X118104761Y-95214285D01*
X118152380Y-95357142D01*
X118152380Y-95452380D01*
X118104761Y-95595238D01*
X118009523Y-95690476D01*
X117914285Y-95738095D01*
X117723809Y-95785714D01*
X117580952Y-95785714D01*
X117390476Y-95738095D01*
X117295238Y-95690476D01*
X117200000Y-95595238D01*
X117152380Y-95452380D01*
X117152380Y-95357142D01*
X117200000Y-95214285D01*
X117247619Y-95166666D01*
X117152380Y-94833333D02*
X117152380Y-94214285D01*
X117533333Y-94547619D01*
X117533333Y-94404761D01*
X117580952Y-94309523D01*
X117628571Y-94261904D01*
X117723809Y-94214285D01*
X117961904Y-94214285D01*
X118057142Y-94261904D01*
X118104761Y-94309523D01*
X118152380Y-94404761D01*
X118152380Y-94690476D01*
X118104761Y-94785714D01*
X118057142Y-94833333D01*
X112433333Y-99557142D02*
X112385714Y-99604761D01*
X112242857Y-99652380D01*
X112147619Y-99652380D01*
X112004761Y-99604761D01*
X111909523Y-99509523D01*
X111861904Y-99414285D01*
X111814285Y-99223809D01*
X111814285Y-99080952D01*
X111861904Y-98890476D01*
X111909523Y-98795238D01*
X112004761Y-98700000D01*
X112147619Y-98652380D01*
X112242857Y-98652380D01*
X112385714Y-98700000D01*
X112433333Y-98747619D01*
X112814285Y-98747619D02*
X112861904Y-98700000D01*
X112957142Y-98652380D01*
X113195238Y-98652380D01*
X113290476Y-98700000D01*
X113338095Y-98747619D01*
X113385714Y-98842857D01*
X113385714Y-98938095D01*
X113338095Y-99080952D01*
X112766666Y-99652380D01*
X113385714Y-99652380D01*
X107857142Y-95166666D02*
X107904761Y-95214285D01*
X107952380Y-95357142D01*
X107952380Y-95452380D01*
X107904761Y-95595238D01*
X107809523Y-95690476D01*
X107714285Y-95738095D01*
X107523809Y-95785714D01*
X107380952Y-95785714D01*
X107190476Y-95738095D01*
X107095238Y-95690476D01*
X107000000Y-95595238D01*
X106952380Y-95452380D01*
X106952380Y-95357142D01*
X107000000Y-95214285D01*
X107047619Y-95166666D01*
X107952380Y-94214285D02*
X107952380Y-94785714D01*
X107952380Y-94500000D02*
X106952380Y-94500000D01*
X107095238Y-94595238D01*
X107190476Y-94690476D01*
X107238095Y-94785714D01*
%LPC*%
D12*
G36*
X125243691Y-112175176D02*
G01*
X125267401Y-112178693D01*
X125290652Y-112184517D01*
X125313220Y-112192592D01*
X125334889Y-112202841D01*
X125355448Y-112215164D01*
X125374701Y-112229442D01*
X125392461Y-112245539D01*
X125408558Y-112263299D01*
X125422836Y-112282552D01*
X125435159Y-112303111D01*
X125445408Y-112324780D01*
X125453483Y-112347348D01*
X125459307Y-112370599D01*
X125462824Y-112394309D01*
X125464000Y-112418250D01*
X125464000Y-112981750D01*
X125462824Y-113005691D01*
X125459307Y-113029401D01*
X125453483Y-113052652D01*
X125445408Y-113075220D01*
X125435159Y-113096889D01*
X125422836Y-113117448D01*
X125408558Y-113136701D01*
X125392461Y-113154461D01*
X125374701Y-113170558D01*
X125355448Y-113184836D01*
X125334889Y-113197159D01*
X125313220Y-113207408D01*
X125290652Y-113215483D01*
X125267401Y-113221307D01*
X125243691Y-113224824D01*
X125219750Y-113226000D01*
X124731250Y-113226000D01*
X124707309Y-113224824D01*
X124683599Y-113221307D01*
X124660348Y-113215483D01*
X124637780Y-113207408D01*
X124616111Y-113197159D01*
X124595552Y-113184836D01*
X124576299Y-113170558D01*
X124558539Y-113154461D01*
X124542442Y-113136701D01*
X124528164Y-113117448D01*
X124515841Y-113096889D01*
X124505592Y-113075220D01*
X124497517Y-113052652D01*
X124491693Y-113029401D01*
X124488176Y-113005691D01*
X124487000Y-112981750D01*
X124487000Y-112418250D01*
X124488176Y-112394309D01*
X124491693Y-112370599D01*
X124497517Y-112347348D01*
X124505592Y-112324780D01*
X124515841Y-112303111D01*
X124528164Y-112282552D01*
X124542442Y-112263299D01*
X124558539Y-112245539D01*
X124576299Y-112229442D01*
X124595552Y-112215164D01*
X124616111Y-112202841D01*
X124637780Y-112192592D01*
X124660348Y-112184517D01*
X124683599Y-112178693D01*
X124707309Y-112175176D01*
X124731250Y-112174000D01*
X125219750Y-112174000D01*
X125243691Y-112175176D01*
X125243691Y-112175176D01*
G37*
D13*
X124975500Y-112700000D03*
D12*
G36*
X123668691Y-112175176D02*
G01*
X123692401Y-112178693D01*
X123715652Y-112184517D01*
X123738220Y-112192592D01*
X123759889Y-112202841D01*
X123780448Y-112215164D01*
X123799701Y-112229442D01*
X123817461Y-112245539D01*
X123833558Y-112263299D01*
X123847836Y-112282552D01*
X123860159Y-112303111D01*
X123870408Y-112324780D01*
X123878483Y-112347348D01*
X123884307Y-112370599D01*
X123887824Y-112394309D01*
X123889000Y-112418250D01*
X123889000Y-112981750D01*
X123887824Y-113005691D01*
X123884307Y-113029401D01*
X123878483Y-113052652D01*
X123870408Y-113075220D01*
X123860159Y-113096889D01*
X123847836Y-113117448D01*
X123833558Y-113136701D01*
X123817461Y-113154461D01*
X123799701Y-113170558D01*
X123780448Y-113184836D01*
X123759889Y-113197159D01*
X123738220Y-113207408D01*
X123715652Y-113215483D01*
X123692401Y-113221307D01*
X123668691Y-113224824D01*
X123644750Y-113226000D01*
X123156250Y-113226000D01*
X123132309Y-113224824D01*
X123108599Y-113221307D01*
X123085348Y-113215483D01*
X123062780Y-113207408D01*
X123041111Y-113197159D01*
X123020552Y-113184836D01*
X123001299Y-113170558D01*
X122983539Y-113154461D01*
X122967442Y-113136701D01*
X122953164Y-113117448D01*
X122940841Y-113096889D01*
X122930592Y-113075220D01*
X122922517Y-113052652D01*
X122916693Y-113029401D01*
X122913176Y-113005691D01*
X122912000Y-112981750D01*
X122912000Y-112418250D01*
X122913176Y-112394309D01*
X122916693Y-112370599D01*
X122922517Y-112347348D01*
X122930592Y-112324780D01*
X122940841Y-112303111D01*
X122953164Y-112282552D01*
X122967442Y-112263299D01*
X122983539Y-112245539D01*
X123001299Y-112229442D01*
X123020552Y-112215164D01*
X123041111Y-112202841D01*
X123062780Y-112192592D01*
X123085348Y-112184517D01*
X123108599Y-112178693D01*
X123132309Y-112175176D01*
X123156250Y-112174000D01*
X123644750Y-112174000D01*
X123668691Y-112175176D01*
X123668691Y-112175176D01*
G37*
D13*
X123400500Y-112700000D03*
D12*
G36*
X122567691Y-92875176D02*
G01*
X122591401Y-92878693D01*
X122614652Y-92884517D01*
X122637220Y-92892592D01*
X122658889Y-92902841D01*
X122679448Y-92915164D01*
X122698701Y-92929442D01*
X122716461Y-92945539D01*
X122732558Y-92963299D01*
X122746836Y-92982552D01*
X122759159Y-93003111D01*
X122769408Y-93024780D01*
X122777483Y-93047348D01*
X122783307Y-93070599D01*
X122786824Y-93094309D01*
X122788000Y-93118250D01*
X122788000Y-93681750D01*
X122786824Y-93705691D01*
X122783307Y-93729401D01*
X122777483Y-93752652D01*
X122769408Y-93775220D01*
X122759159Y-93796889D01*
X122746836Y-93817448D01*
X122732558Y-93836701D01*
X122716461Y-93854461D01*
X122698701Y-93870558D01*
X122679448Y-93884836D01*
X122658889Y-93897159D01*
X122637220Y-93907408D01*
X122614652Y-93915483D01*
X122591401Y-93921307D01*
X122567691Y-93924824D01*
X122543750Y-93926000D01*
X122055250Y-93926000D01*
X122031309Y-93924824D01*
X122007599Y-93921307D01*
X121984348Y-93915483D01*
X121961780Y-93907408D01*
X121940111Y-93897159D01*
X121919552Y-93884836D01*
X121900299Y-93870558D01*
X121882539Y-93854461D01*
X121866442Y-93836701D01*
X121852164Y-93817448D01*
X121839841Y-93796889D01*
X121829592Y-93775220D01*
X121821517Y-93752652D01*
X121815693Y-93729401D01*
X121812176Y-93705691D01*
X121811000Y-93681750D01*
X121811000Y-93118250D01*
X121812176Y-93094309D01*
X121815693Y-93070599D01*
X121821517Y-93047348D01*
X121829592Y-93024780D01*
X121839841Y-93003111D01*
X121852164Y-92982552D01*
X121866442Y-92963299D01*
X121882539Y-92945539D01*
X121900299Y-92929442D01*
X121919552Y-92915164D01*
X121940111Y-92902841D01*
X121961780Y-92892592D01*
X121984348Y-92884517D01*
X122007599Y-92878693D01*
X122031309Y-92875176D01*
X122055250Y-92874000D01*
X122543750Y-92874000D01*
X122567691Y-92875176D01*
X122567691Y-92875176D01*
G37*
D13*
X122299500Y-93400000D03*
D12*
G36*
X120992691Y-92875176D02*
G01*
X121016401Y-92878693D01*
X121039652Y-92884517D01*
X121062220Y-92892592D01*
X121083889Y-92902841D01*
X121104448Y-92915164D01*
X121123701Y-92929442D01*
X121141461Y-92945539D01*
X121157558Y-92963299D01*
X121171836Y-92982552D01*
X121184159Y-93003111D01*
X121194408Y-93024780D01*
X121202483Y-93047348D01*
X121208307Y-93070599D01*
X121211824Y-93094309D01*
X121213000Y-93118250D01*
X121213000Y-93681750D01*
X121211824Y-93705691D01*
X121208307Y-93729401D01*
X121202483Y-93752652D01*
X121194408Y-93775220D01*
X121184159Y-93796889D01*
X121171836Y-93817448D01*
X121157558Y-93836701D01*
X121141461Y-93854461D01*
X121123701Y-93870558D01*
X121104448Y-93884836D01*
X121083889Y-93897159D01*
X121062220Y-93907408D01*
X121039652Y-93915483D01*
X121016401Y-93921307D01*
X120992691Y-93924824D01*
X120968750Y-93926000D01*
X120480250Y-93926000D01*
X120456309Y-93924824D01*
X120432599Y-93921307D01*
X120409348Y-93915483D01*
X120386780Y-93907408D01*
X120365111Y-93897159D01*
X120344552Y-93884836D01*
X120325299Y-93870558D01*
X120307539Y-93854461D01*
X120291442Y-93836701D01*
X120277164Y-93817448D01*
X120264841Y-93796889D01*
X120254592Y-93775220D01*
X120246517Y-93752652D01*
X120240693Y-93729401D01*
X120237176Y-93705691D01*
X120236000Y-93681750D01*
X120236000Y-93118250D01*
X120237176Y-93094309D01*
X120240693Y-93070599D01*
X120246517Y-93047348D01*
X120254592Y-93024780D01*
X120264841Y-93003111D01*
X120277164Y-92982552D01*
X120291442Y-92963299D01*
X120307539Y-92945539D01*
X120325299Y-92929442D01*
X120344552Y-92915164D01*
X120365111Y-92902841D01*
X120386780Y-92892592D01*
X120409348Y-92884517D01*
X120432599Y-92878693D01*
X120456309Y-92875176D01*
X120480250Y-92874000D01*
X120968750Y-92874000D01*
X120992691Y-92875176D01*
X120992691Y-92875176D01*
G37*
D13*
X120724500Y-93400000D03*
D12*
G36*
X124505691Y-91237676D02*
G01*
X124529401Y-91241193D01*
X124552652Y-91247017D01*
X124575220Y-91255092D01*
X124596889Y-91265341D01*
X124617448Y-91277664D01*
X124636701Y-91291942D01*
X124654461Y-91308039D01*
X124670558Y-91325799D01*
X124684836Y-91345052D01*
X124697159Y-91365611D01*
X124707408Y-91387280D01*
X124715483Y-91409848D01*
X124721307Y-91433099D01*
X124724824Y-91456809D01*
X124726000Y-91480750D01*
X124726000Y-91969250D01*
X124724824Y-91993191D01*
X124721307Y-92016901D01*
X124715483Y-92040152D01*
X124707408Y-92062720D01*
X124697159Y-92084389D01*
X124684836Y-92104948D01*
X124670558Y-92124201D01*
X124654461Y-92141961D01*
X124636701Y-92158058D01*
X124617448Y-92172336D01*
X124596889Y-92184659D01*
X124575220Y-92194908D01*
X124552652Y-92202983D01*
X124529401Y-92208807D01*
X124505691Y-92212324D01*
X124481750Y-92213500D01*
X123918250Y-92213500D01*
X123894309Y-92212324D01*
X123870599Y-92208807D01*
X123847348Y-92202983D01*
X123824780Y-92194908D01*
X123803111Y-92184659D01*
X123782552Y-92172336D01*
X123763299Y-92158058D01*
X123745539Y-92141961D01*
X123729442Y-92124201D01*
X123715164Y-92104948D01*
X123702841Y-92084389D01*
X123692592Y-92062720D01*
X123684517Y-92040152D01*
X123678693Y-92016901D01*
X123675176Y-91993191D01*
X123674000Y-91969250D01*
X123674000Y-91480750D01*
X123675176Y-91456809D01*
X123678693Y-91433099D01*
X123684517Y-91409848D01*
X123692592Y-91387280D01*
X123702841Y-91365611D01*
X123715164Y-91345052D01*
X123729442Y-91325799D01*
X123745539Y-91308039D01*
X123763299Y-91291942D01*
X123782552Y-91277664D01*
X123803111Y-91265341D01*
X123824780Y-91255092D01*
X123847348Y-91247017D01*
X123870599Y-91241193D01*
X123894309Y-91237676D01*
X123918250Y-91236500D01*
X124481750Y-91236500D01*
X124505691Y-91237676D01*
X124505691Y-91237676D01*
G37*
D13*
X124200000Y-91725000D03*
D12*
G36*
X124505691Y-92812676D02*
G01*
X124529401Y-92816193D01*
X124552652Y-92822017D01*
X124575220Y-92830092D01*
X124596889Y-92840341D01*
X124617448Y-92852664D01*
X124636701Y-92866942D01*
X124654461Y-92883039D01*
X124670558Y-92900799D01*
X124684836Y-92920052D01*
X124697159Y-92940611D01*
X124707408Y-92962280D01*
X124715483Y-92984848D01*
X124721307Y-93008099D01*
X124724824Y-93031809D01*
X124726000Y-93055750D01*
X124726000Y-93544250D01*
X124724824Y-93568191D01*
X124721307Y-93591901D01*
X124715483Y-93615152D01*
X124707408Y-93637720D01*
X124697159Y-93659389D01*
X124684836Y-93679948D01*
X124670558Y-93699201D01*
X124654461Y-93716961D01*
X124636701Y-93733058D01*
X124617448Y-93747336D01*
X124596889Y-93759659D01*
X124575220Y-93769908D01*
X124552652Y-93777983D01*
X124529401Y-93783807D01*
X124505691Y-93787324D01*
X124481750Y-93788500D01*
X123918250Y-93788500D01*
X123894309Y-93787324D01*
X123870599Y-93783807D01*
X123847348Y-93777983D01*
X123824780Y-93769908D01*
X123803111Y-93759659D01*
X123782552Y-93747336D01*
X123763299Y-93733058D01*
X123745539Y-93716961D01*
X123729442Y-93699201D01*
X123715164Y-93679948D01*
X123702841Y-93659389D01*
X123692592Y-93637720D01*
X123684517Y-93615152D01*
X123678693Y-93591901D01*
X123675176Y-93568191D01*
X123674000Y-93544250D01*
X123674000Y-93055750D01*
X123675176Y-93031809D01*
X123678693Y-93008099D01*
X123684517Y-92984848D01*
X123692592Y-92962280D01*
X123702841Y-92940611D01*
X123715164Y-92920052D01*
X123729442Y-92900799D01*
X123745539Y-92883039D01*
X123763299Y-92866942D01*
X123782552Y-92852664D01*
X123803111Y-92840341D01*
X123824780Y-92830092D01*
X123847348Y-92822017D01*
X123870599Y-92816193D01*
X123894309Y-92812676D01*
X123918250Y-92811500D01*
X124481750Y-92811500D01*
X124505691Y-92812676D01*
X124505691Y-92812676D01*
G37*
D13*
X124200000Y-93300000D03*
D12*
G36*
X122543691Y-91175176D02*
G01*
X122567401Y-91178693D01*
X122590652Y-91184517D01*
X122613220Y-91192592D01*
X122634889Y-91202841D01*
X122655448Y-91215164D01*
X122674701Y-91229442D01*
X122692461Y-91245539D01*
X122708558Y-91263299D01*
X122722836Y-91282552D01*
X122735159Y-91303111D01*
X122745408Y-91324780D01*
X122753483Y-91347348D01*
X122759307Y-91370599D01*
X122762824Y-91394309D01*
X122764000Y-91418250D01*
X122764000Y-91981750D01*
X122762824Y-92005691D01*
X122759307Y-92029401D01*
X122753483Y-92052652D01*
X122745408Y-92075220D01*
X122735159Y-92096889D01*
X122722836Y-92117448D01*
X122708558Y-92136701D01*
X122692461Y-92154461D01*
X122674701Y-92170558D01*
X122655448Y-92184836D01*
X122634889Y-92197159D01*
X122613220Y-92207408D01*
X122590652Y-92215483D01*
X122567401Y-92221307D01*
X122543691Y-92224824D01*
X122519750Y-92226000D01*
X122031250Y-92226000D01*
X122007309Y-92224824D01*
X121983599Y-92221307D01*
X121960348Y-92215483D01*
X121937780Y-92207408D01*
X121916111Y-92197159D01*
X121895552Y-92184836D01*
X121876299Y-92170558D01*
X121858539Y-92154461D01*
X121842442Y-92136701D01*
X121828164Y-92117448D01*
X121815841Y-92096889D01*
X121805592Y-92075220D01*
X121797517Y-92052652D01*
X121791693Y-92029401D01*
X121788176Y-92005691D01*
X121787000Y-91981750D01*
X121787000Y-91418250D01*
X121788176Y-91394309D01*
X121791693Y-91370599D01*
X121797517Y-91347348D01*
X121805592Y-91324780D01*
X121815841Y-91303111D01*
X121828164Y-91282552D01*
X121842442Y-91263299D01*
X121858539Y-91245539D01*
X121876299Y-91229442D01*
X121895552Y-91215164D01*
X121916111Y-91202841D01*
X121937780Y-91192592D01*
X121960348Y-91184517D01*
X121983599Y-91178693D01*
X122007309Y-91175176D01*
X122031250Y-91174000D01*
X122519750Y-91174000D01*
X122543691Y-91175176D01*
X122543691Y-91175176D01*
G37*
D13*
X122275500Y-91700000D03*
D12*
G36*
X120968691Y-91175176D02*
G01*
X120992401Y-91178693D01*
X121015652Y-91184517D01*
X121038220Y-91192592D01*
X121059889Y-91202841D01*
X121080448Y-91215164D01*
X121099701Y-91229442D01*
X121117461Y-91245539D01*
X121133558Y-91263299D01*
X121147836Y-91282552D01*
X121160159Y-91303111D01*
X121170408Y-91324780D01*
X121178483Y-91347348D01*
X121184307Y-91370599D01*
X121187824Y-91394309D01*
X121189000Y-91418250D01*
X121189000Y-91981750D01*
X121187824Y-92005691D01*
X121184307Y-92029401D01*
X121178483Y-92052652D01*
X121170408Y-92075220D01*
X121160159Y-92096889D01*
X121147836Y-92117448D01*
X121133558Y-92136701D01*
X121117461Y-92154461D01*
X121099701Y-92170558D01*
X121080448Y-92184836D01*
X121059889Y-92197159D01*
X121038220Y-92207408D01*
X121015652Y-92215483D01*
X120992401Y-92221307D01*
X120968691Y-92224824D01*
X120944750Y-92226000D01*
X120456250Y-92226000D01*
X120432309Y-92224824D01*
X120408599Y-92221307D01*
X120385348Y-92215483D01*
X120362780Y-92207408D01*
X120341111Y-92197159D01*
X120320552Y-92184836D01*
X120301299Y-92170558D01*
X120283539Y-92154461D01*
X120267442Y-92136701D01*
X120253164Y-92117448D01*
X120240841Y-92096889D01*
X120230592Y-92075220D01*
X120222517Y-92052652D01*
X120216693Y-92029401D01*
X120213176Y-92005691D01*
X120212000Y-91981750D01*
X120212000Y-91418250D01*
X120213176Y-91394309D01*
X120216693Y-91370599D01*
X120222517Y-91347348D01*
X120230592Y-91324780D01*
X120240841Y-91303111D01*
X120253164Y-91282552D01*
X120267442Y-91263299D01*
X120283539Y-91245539D01*
X120301299Y-91229442D01*
X120320552Y-91215164D01*
X120341111Y-91202841D01*
X120362780Y-91192592D01*
X120385348Y-91184517D01*
X120408599Y-91178693D01*
X120432309Y-91175176D01*
X120456250Y-91174000D01*
X120944750Y-91174000D01*
X120968691Y-91175176D01*
X120968691Y-91175176D01*
G37*
D13*
X120700500Y-91700000D03*
D12*
G36*
X119567691Y-106475176D02*
G01*
X119591401Y-106478693D01*
X119614652Y-106484517D01*
X119637220Y-106492592D01*
X119658889Y-106502841D01*
X119679448Y-106515164D01*
X119698701Y-106529442D01*
X119716461Y-106545539D01*
X119732558Y-106563299D01*
X119746836Y-106582552D01*
X119759159Y-106603111D01*
X119769408Y-106624780D01*
X119777483Y-106647348D01*
X119783307Y-106670599D01*
X119786824Y-106694309D01*
X119788000Y-106718250D01*
X119788000Y-107281750D01*
X119786824Y-107305691D01*
X119783307Y-107329401D01*
X119777483Y-107352652D01*
X119769408Y-107375220D01*
X119759159Y-107396889D01*
X119746836Y-107417448D01*
X119732558Y-107436701D01*
X119716461Y-107454461D01*
X119698701Y-107470558D01*
X119679448Y-107484836D01*
X119658889Y-107497159D01*
X119637220Y-107507408D01*
X119614652Y-107515483D01*
X119591401Y-107521307D01*
X119567691Y-107524824D01*
X119543750Y-107526000D01*
X119055250Y-107526000D01*
X119031309Y-107524824D01*
X119007599Y-107521307D01*
X118984348Y-107515483D01*
X118961780Y-107507408D01*
X118940111Y-107497159D01*
X118919552Y-107484836D01*
X118900299Y-107470558D01*
X118882539Y-107454461D01*
X118866442Y-107436701D01*
X118852164Y-107417448D01*
X118839841Y-107396889D01*
X118829592Y-107375220D01*
X118821517Y-107352652D01*
X118815693Y-107329401D01*
X118812176Y-107305691D01*
X118811000Y-107281750D01*
X118811000Y-106718250D01*
X118812176Y-106694309D01*
X118815693Y-106670599D01*
X118821517Y-106647348D01*
X118829592Y-106624780D01*
X118839841Y-106603111D01*
X118852164Y-106582552D01*
X118866442Y-106563299D01*
X118882539Y-106545539D01*
X118900299Y-106529442D01*
X118919552Y-106515164D01*
X118940111Y-106502841D01*
X118961780Y-106492592D01*
X118984348Y-106484517D01*
X119007599Y-106478693D01*
X119031309Y-106475176D01*
X119055250Y-106474000D01*
X119543750Y-106474000D01*
X119567691Y-106475176D01*
X119567691Y-106475176D01*
G37*
D13*
X119299500Y-107000000D03*
D12*
G36*
X117992691Y-106475176D02*
G01*
X118016401Y-106478693D01*
X118039652Y-106484517D01*
X118062220Y-106492592D01*
X118083889Y-106502841D01*
X118104448Y-106515164D01*
X118123701Y-106529442D01*
X118141461Y-106545539D01*
X118157558Y-106563299D01*
X118171836Y-106582552D01*
X118184159Y-106603111D01*
X118194408Y-106624780D01*
X118202483Y-106647348D01*
X118208307Y-106670599D01*
X118211824Y-106694309D01*
X118213000Y-106718250D01*
X118213000Y-107281750D01*
X118211824Y-107305691D01*
X118208307Y-107329401D01*
X118202483Y-107352652D01*
X118194408Y-107375220D01*
X118184159Y-107396889D01*
X118171836Y-107417448D01*
X118157558Y-107436701D01*
X118141461Y-107454461D01*
X118123701Y-107470558D01*
X118104448Y-107484836D01*
X118083889Y-107497159D01*
X118062220Y-107507408D01*
X118039652Y-107515483D01*
X118016401Y-107521307D01*
X117992691Y-107524824D01*
X117968750Y-107526000D01*
X117480250Y-107526000D01*
X117456309Y-107524824D01*
X117432599Y-107521307D01*
X117409348Y-107515483D01*
X117386780Y-107507408D01*
X117365111Y-107497159D01*
X117344552Y-107484836D01*
X117325299Y-107470558D01*
X117307539Y-107454461D01*
X117291442Y-107436701D01*
X117277164Y-107417448D01*
X117264841Y-107396889D01*
X117254592Y-107375220D01*
X117246517Y-107352652D01*
X117240693Y-107329401D01*
X117237176Y-107305691D01*
X117236000Y-107281750D01*
X117236000Y-106718250D01*
X117237176Y-106694309D01*
X117240693Y-106670599D01*
X117246517Y-106647348D01*
X117254592Y-106624780D01*
X117264841Y-106603111D01*
X117277164Y-106582552D01*
X117291442Y-106563299D01*
X117307539Y-106545539D01*
X117325299Y-106529442D01*
X117344552Y-106515164D01*
X117365111Y-106502841D01*
X117386780Y-106492592D01*
X117409348Y-106484517D01*
X117432599Y-106478693D01*
X117456309Y-106475176D01*
X117480250Y-106474000D01*
X117968750Y-106474000D01*
X117992691Y-106475176D01*
X117992691Y-106475176D01*
G37*
D13*
X117724500Y-107000000D03*
D12*
G36*
X110667691Y-112175176D02*
G01*
X110691401Y-112178693D01*
X110714652Y-112184517D01*
X110737220Y-112192592D01*
X110758889Y-112202841D01*
X110779448Y-112215164D01*
X110798701Y-112229442D01*
X110816461Y-112245539D01*
X110832558Y-112263299D01*
X110846836Y-112282552D01*
X110859159Y-112303111D01*
X110869408Y-112324780D01*
X110877483Y-112347348D01*
X110883307Y-112370599D01*
X110886824Y-112394309D01*
X110888000Y-112418250D01*
X110888000Y-112981750D01*
X110886824Y-113005691D01*
X110883307Y-113029401D01*
X110877483Y-113052652D01*
X110869408Y-113075220D01*
X110859159Y-113096889D01*
X110846836Y-113117448D01*
X110832558Y-113136701D01*
X110816461Y-113154461D01*
X110798701Y-113170558D01*
X110779448Y-113184836D01*
X110758889Y-113197159D01*
X110737220Y-113207408D01*
X110714652Y-113215483D01*
X110691401Y-113221307D01*
X110667691Y-113224824D01*
X110643750Y-113226000D01*
X110155250Y-113226000D01*
X110131309Y-113224824D01*
X110107599Y-113221307D01*
X110084348Y-113215483D01*
X110061780Y-113207408D01*
X110040111Y-113197159D01*
X110019552Y-113184836D01*
X110000299Y-113170558D01*
X109982539Y-113154461D01*
X109966442Y-113136701D01*
X109952164Y-113117448D01*
X109939841Y-113096889D01*
X109929592Y-113075220D01*
X109921517Y-113052652D01*
X109915693Y-113029401D01*
X109912176Y-113005691D01*
X109911000Y-112981750D01*
X109911000Y-112418250D01*
X109912176Y-112394309D01*
X109915693Y-112370599D01*
X109921517Y-112347348D01*
X109929592Y-112324780D01*
X109939841Y-112303111D01*
X109952164Y-112282552D01*
X109966442Y-112263299D01*
X109982539Y-112245539D01*
X110000299Y-112229442D01*
X110019552Y-112215164D01*
X110040111Y-112202841D01*
X110061780Y-112192592D01*
X110084348Y-112184517D01*
X110107599Y-112178693D01*
X110131309Y-112175176D01*
X110155250Y-112174000D01*
X110643750Y-112174000D01*
X110667691Y-112175176D01*
X110667691Y-112175176D01*
G37*
D13*
X110399500Y-112700000D03*
D12*
G36*
X109092691Y-112175176D02*
G01*
X109116401Y-112178693D01*
X109139652Y-112184517D01*
X109162220Y-112192592D01*
X109183889Y-112202841D01*
X109204448Y-112215164D01*
X109223701Y-112229442D01*
X109241461Y-112245539D01*
X109257558Y-112263299D01*
X109271836Y-112282552D01*
X109284159Y-112303111D01*
X109294408Y-112324780D01*
X109302483Y-112347348D01*
X109308307Y-112370599D01*
X109311824Y-112394309D01*
X109313000Y-112418250D01*
X109313000Y-112981750D01*
X109311824Y-113005691D01*
X109308307Y-113029401D01*
X109302483Y-113052652D01*
X109294408Y-113075220D01*
X109284159Y-113096889D01*
X109271836Y-113117448D01*
X109257558Y-113136701D01*
X109241461Y-113154461D01*
X109223701Y-113170558D01*
X109204448Y-113184836D01*
X109183889Y-113197159D01*
X109162220Y-113207408D01*
X109139652Y-113215483D01*
X109116401Y-113221307D01*
X109092691Y-113224824D01*
X109068750Y-113226000D01*
X108580250Y-113226000D01*
X108556309Y-113224824D01*
X108532599Y-113221307D01*
X108509348Y-113215483D01*
X108486780Y-113207408D01*
X108465111Y-113197159D01*
X108444552Y-113184836D01*
X108425299Y-113170558D01*
X108407539Y-113154461D01*
X108391442Y-113136701D01*
X108377164Y-113117448D01*
X108364841Y-113096889D01*
X108354592Y-113075220D01*
X108346517Y-113052652D01*
X108340693Y-113029401D01*
X108337176Y-113005691D01*
X108336000Y-112981750D01*
X108336000Y-112418250D01*
X108337176Y-112394309D01*
X108340693Y-112370599D01*
X108346517Y-112347348D01*
X108354592Y-112324780D01*
X108364841Y-112303111D01*
X108377164Y-112282552D01*
X108391442Y-112263299D01*
X108407539Y-112245539D01*
X108425299Y-112229442D01*
X108444552Y-112215164D01*
X108465111Y-112202841D01*
X108486780Y-112192592D01*
X108509348Y-112184517D01*
X108532599Y-112178693D01*
X108556309Y-112175176D01*
X108580250Y-112174000D01*
X109068750Y-112174000D01*
X109092691Y-112175176D01*
X109092691Y-112175176D01*
G37*
D13*
X108824500Y-112700000D03*
D12*
G36*
X115443691Y-112175176D02*
G01*
X115467401Y-112178693D01*
X115490652Y-112184517D01*
X115513220Y-112192592D01*
X115534889Y-112202841D01*
X115555448Y-112215164D01*
X115574701Y-112229442D01*
X115592461Y-112245539D01*
X115608558Y-112263299D01*
X115622836Y-112282552D01*
X115635159Y-112303111D01*
X115645408Y-112324780D01*
X115653483Y-112347348D01*
X115659307Y-112370599D01*
X115662824Y-112394309D01*
X115664000Y-112418250D01*
X115664000Y-112981750D01*
X115662824Y-113005691D01*
X115659307Y-113029401D01*
X115653483Y-113052652D01*
X115645408Y-113075220D01*
X115635159Y-113096889D01*
X115622836Y-113117448D01*
X115608558Y-113136701D01*
X115592461Y-113154461D01*
X115574701Y-113170558D01*
X115555448Y-113184836D01*
X115534889Y-113197159D01*
X115513220Y-113207408D01*
X115490652Y-113215483D01*
X115467401Y-113221307D01*
X115443691Y-113224824D01*
X115419750Y-113226000D01*
X114931250Y-113226000D01*
X114907309Y-113224824D01*
X114883599Y-113221307D01*
X114860348Y-113215483D01*
X114837780Y-113207408D01*
X114816111Y-113197159D01*
X114795552Y-113184836D01*
X114776299Y-113170558D01*
X114758539Y-113154461D01*
X114742442Y-113136701D01*
X114728164Y-113117448D01*
X114715841Y-113096889D01*
X114705592Y-113075220D01*
X114697517Y-113052652D01*
X114691693Y-113029401D01*
X114688176Y-113005691D01*
X114687000Y-112981750D01*
X114687000Y-112418250D01*
X114688176Y-112394309D01*
X114691693Y-112370599D01*
X114697517Y-112347348D01*
X114705592Y-112324780D01*
X114715841Y-112303111D01*
X114728164Y-112282552D01*
X114742442Y-112263299D01*
X114758539Y-112245539D01*
X114776299Y-112229442D01*
X114795552Y-112215164D01*
X114816111Y-112202841D01*
X114837780Y-112192592D01*
X114860348Y-112184517D01*
X114883599Y-112178693D01*
X114907309Y-112175176D01*
X114931250Y-112174000D01*
X115419750Y-112174000D01*
X115443691Y-112175176D01*
X115443691Y-112175176D01*
G37*
D13*
X115175500Y-112700000D03*
D12*
G36*
X113868691Y-112175176D02*
G01*
X113892401Y-112178693D01*
X113915652Y-112184517D01*
X113938220Y-112192592D01*
X113959889Y-112202841D01*
X113980448Y-112215164D01*
X113999701Y-112229442D01*
X114017461Y-112245539D01*
X114033558Y-112263299D01*
X114047836Y-112282552D01*
X114060159Y-112303111D01*
X114070408Y-112324780D01*
X114078483Y-112347348D01*
X114084307Y-112370599D01*
X114087824Y-112394309D01*
X114089000Y-112418250D01*
X114089000Y-112981750D01*
X114087824Y-113005691D01*
X114084307Y-113029401D01*
X114078483Y-113052652D01*
X114070408Y-113075220D01*
X114060159Y-113096889D01*
X114047836Y-113117448D01*
X114033558Y-113136701D01*
X114017461Y-113154461D01*
X113999701Y-113170558D01*
X113980448Y-113184836D01*
X113959889Y-113197159D01*
X113938220Y-113207408D01*
X113915652Y-113215483D01*
X113892401Y-113221307D01*
X113868691Y-113224824D01*
X113844750Y-113226000D01*
X113356250Y-113226000D01*
X113332309Y-113224824D01*
X113308599Y-113221307D01*
X113285348Y-113215483D01*
X113262780Y-113207408D01*
X113241111Y-113197159D01*
X113220552Y-113184836D01*
X113201299Y-113170558D01*
X113183539Y-113154461D01*
X113167442Y-113136701D01*
X113153164Y-113117448D01*
X113140841Y-113096889D01*
X113130592Y-113075220D01*
X113122517Y-113052652D01*
X113116693Y-113029401D01*
X113113176Y-113005691D01*
X113112000Y-112981750D01*
X113112000Y-112418250D01*
X113113176Y-112394309D01*
X113116693Y-112370599D01*
X113122517Y-112347348D01*
X113130592Y-112324780D01*
X113140841Y-112303111D01*
X113153164Y-112282552D01*
X113167442Y-112263299D01*
X113183539Y-112245539D01*
X113201299Y-112229442D01*
X113220552Y-112215164D01*
X113241111Y-112202841D01*
X113262780Y-112192592D01*
X113285348Y-112184517D01*
X113308599Y-112178693D01*
X113332309Y-112175176D01*
X113356250Y-112174000D01*
X113844750Y-112174000D01*
X113868691Y-112175176D01*
X113868691Y-112175176D01*
G37*
D13*
X113600500Y-112700000D03*
D14*
X121500000Y-97000000D03*
X120550000Y-95000000D03*
X122450000Y-95000000D03*
X124250000Y-108600000D03*
X125200000Y-110600000D03*
X123300000Y-110600000D03*
X119350000Y-108700000D03*
X120300000Y-110700000D03*
X118400000Y-110700000D03*
X114450000Y-108900000D03*
X115400000Y-110900000D03*
X113500000Y-110900000D03*
X109600000Y-108900000D03*
X110550000Y-110900000D03*
X108650000Y-110900000D03*
D15*
X103000000Y-112000000D03*
X103000000Y-93000000D03*
D16*
X117400000Y-101300000D03*
D17*
X116100000Y-102250000D03*
X116100000Y-101300000D03*
X116100000Y-100350000D03*
X118700000Y-100350000D03*
X118700000Y-101300000D03*
X118700000Y-102250000D03*
D18*
X113800000Y-94150000D03*
X113800000Y-96050000D03*
X111600000Y-96050000D03*
X111600000Y-95100000D03*
X111600000Y-94150000D03*
D12*
G36*
X109192691Y-91575176D02*
G01*
X109216401Y-91578693D01*
X109239652Y-91584517D01*
X109262220Y-91592592D01*
X109283889Y-91602841D01*
X109304448Y-91615164D01*
X109323701Y-91629442D01*
X109341461Y-91645539D01*
X109357558Y-91663299D01*
X109371836Y-91682552D01*
X109384159Y-91703111D01*
X109394408Y-91724780D01*
X109402483Y-91747348D01*
X109408307Y-91770599D01*
X109411824Y-91794309D01*
X109413000Y-91818250D01*
X109413000Y-92381750D01*
X109411824Y-92405691D01*
X109408307Y-92429401D01*
X109402483Y-92452652D01*
X109394408Y-92475220D01*
X109384159Y-92496889D01*
X109371836Y-92517448D01*
X109357558Y-92536701D01*
X109341461Y-92554461D01*
X109323701Y-92570558D01*
X109304448Y-92584836D01*
X109283889Y-92597159D01*
X109262220Y-92607408D01*
X109239652Y-92615483D01*
X109216401Y-92621307D01*
X109192691Y-92624824D01*
X109168750Y-92626000D01*
X108680250Y-92626000D01*
X108656309Y-92624824D01*
X108632599Y-92621307D01*
X108609348Y-92615483D01*
X108586780Y-92607408D01*
X108565111Y-92597159D01*
X108544552Y-92584836D01*
X108525299Y-92570558D01*
X108507539Y-92554461D01*
X108491442Y-92536701D01*
X108477164Y-92517448D01*
X108464841Y-92496889D01*
X108454592Y-92475220D01*
X108446517Y-92452652D01*
X108440693Y-92429401D01*
X108437176Y-92405691D01*
X108436000Y-92381750D01*
X108436000Y-91818250D01*
X108437176Y-91794309D01*
X108440693Y-91770599D01*
X108446517Y-91747348D01*
X108454592Y-91724780D01*
X108464841Y-91703111D01*
X108477164Y-91682552D01*
X108491442Y-91663299D01*
X108507539Y-91645539D01*
X108525299Y-91629442D01*
X108544552Y-91615164D01*
X108565111Y-91602841D01*
X108586780Y-91592592D01*
X108609348Y-91584517D01*
X108632599Y-91578693D01*
X108656309Y-91575176D01*
X108680250Y-91574000D01*
X109168750Y-91574000D01*
X109192691Y-91575176D01*
X109192691Y-91575176D01*
G37*
D13*
X108924500Y-92100000D03*
D12*
G36*
X110767691Y-91575176D02*
G01*
X110791401Y-91578693D01*
X110814652Y-91584517D01*
X110837220Y-91592592D01*
X110858889Y-91602841D01*
X110879448Y-91615164D01*
X110898701Y-91629442D01*
X110916461Y-91645539D01*
X110932558Y-91663299D01*
X110946836Y-91682552D01*
X110959159Y-91703111D01*
X110969408Y-91724780D01*
X110977483Y-91747348D01*
X110983307Y-91770599D01*
X110986824Y-91794309D01*
X110988000Y-91818250D01*
X110988000Y-92381750D01*
X110986824Y-92405691D01*
X110983307Y-92429401D01*
X110977483Y-92452652D01*
X110969408Y-92475220D01*
X110959159Y-92496889D01*
X110946836Y-92517448D01*
X110932558Y-92536701D01*
X110916461Y-92554461D01*
X110898701Y-92570558D01*
X110879448Y-92584836D01*
X110858889Y-92597159D01*
X110837220Y-92607408D01*
X110814652Y-92615483D01*
X110791401Y-92621307D01*
X110767691Y-92624824D01*
X110743750Y-92626000D01*
X110255250Y-92626000D01*
X110231309Y-92624824D01*
X110207599Y-92621307D01*
X110184348Y-92615483D01*
X110161780Y-92607408D01*
X110140111Y-92597159D01*
X110119552Y-92584836D01*
X110100299Y-92570558D01*
X110082539Y-92554461D01*
X110066442Y-92536701D01*
X110052164Y-92517448D01*
X110039841Y-92496889D01*
X110029592Y-92475220D01*
X110021517Y-92452652D01*
X110015693Y-92429401D01*
X110012176Y-92405691D01*
X110011000Y-92381750D01*
X110011000Y-91818250D01*
X110012176Y-91794309D01*
X110015693Y-91770599D01*
X110021517Y-91747348D01*
X110029592Y-91724780D01*
X110039841Y-91703111D01*
X110052164Y-91682552D01*
X110066442Y-91663299D01*
X110082539Y-91645539D01*
X110100299Y-91629442D01*
X110119552Y-91615164D01*
X110140111Y-91602841D01*
X110161780Y-91592592D01*
X110184348Y-91584517D01*
X110207599Y-91578693D01*
X110231309Y-91575176D01*
X110255250Y-91574000D01*
X110743750Y-91574000D01*
X110767691Y-91575176D01*
X110767691Y-91575176D01*
G37*
D13*
X110499500Y-92100000D03*
D12*
G36*
X120343691Y-112175176D02*
G01*
X120367401Y-112178693D01*
X120390652Y-112184517D01*
X120413220Y-112192592D01*
X120434889Y-112202841D01*
X120455448Y-112215164D01*
X120474701Y-112229442D01*
X120492461Y-112245539D01*
X120508558Y-112263299D01*
X120522836Y-112282552D01*
X120535159Y-112303111D01*
X120545408Y-112324780D01*
X120553483Y-112347348D01*
X120559307Y-112370599D01*
X120562824Y-112394309D01*
X120564000Y-112418250D01*
X120564000Y-112981750D01*
X120562824Y-113005691D01*
X120559307Y-113029401D01*
X120553483Y-113052652D01*
X120545408Y-113075220D01*
X120535159Y-113096889D01*
X120522836Y-113117448D01*
X120508558Y-113136701D01*
X120492461Y-113154461D01*
X120474701Y-113170558D01*
X120455448Y-113184836D01*
X120434889Y-113197159D01*
X120413220Y-113207408D01*
X120390652Y-113215483D01*
X120367401Y-113221307D01*
X120343691Y-113224824D01*
X120319750Y-113226000D01*
X119831250Y-113226000D01*
X119807309Y-113224824D01*
X119783599Y-113221307D01*
X119760348Y-113215483D01*
X119737780Y-113207408D01*
X119716111Y-113197159D01*
X119695552Y-113184836D01*
X119676299Y-113170558D01*
X119658539Y-113154461D01*
X119642442Y-113136701D01*
X119628164Y-113117448D01*
X119615841Y-113096889D01*
X119605592Y-113075220D01*
X119597517Y-113052652D01*
X119591693Y-113029401D01*
X119588176Y-113005691D01*
X119587000Y-112981750D01*
X119587000Y-112418250D01*
X119588176Y-112394309D01*
X119591693Y-112370599D01*
X119597517Y-112347348D01*
X119605592Y-112324780D01*
X119615841Y-112303111D01*
X119628164Y-112282552D01*
X119642442Y-112263299D01*
X119658539Y-112245539D01*
X119676299Y-112229442D01*
X119695552Y-112215164D01*
X119716111Y-112202841D01*
X119737780Y-112192592D01*
X119760348Y-112184517D01*
X119783599Y-112178693D01*
X119807309Y-112175176D01*
X119831250Y-112174000D01*
X120319750Y-112174000D01*
X120343691Y-112175176D01*
X120343691Y-112175176D01*
G37*
D13*
X120075500Y-112700000D03*
D12*
G36*
X118768691Y-112175176D02*
G01*
X118792401Y-112178693D01*
X118815652Y-112184517D01*
X118838220Y-112192592D01*
X118859889Y-112202841D01*
X118880448Y-112215164D01*
X118899701Y-112229442D01*
X118917461Y-112245539D01*
X118933558Y-112263299D01*
X118947836Y-112282552D01*
X118960159Y-112303111D01*
X118970408Y-112324780D01*
X118978483Y-112347348D01*
X118984307Y-112370599D01*
X118987824Y-112394309D01*
X118989000Y-112418250D01*
X118989000Y-112981750D01*
X118987824Y-113005691D01*
X118984307Y-113029401D01*
X118978483Y-113052652D01*
X118970408Y-113075220D01*
X118960159Y-113096889D01*
X118947836Y-113117448D01*
X118933558Y-113136701D01*
X118917461Y-113154461D01*
X118899701Y-113170558D01*
X118880448Y-113184836D01*
X118859889Y-113197159D01*
X118838220Y-113207408D01*
X118815652Y-113215483D01*
X118792401Y-113221307D01*
X118768691Y-113224824D01*
X118744750Y-113226000D01*
X118256250Y-113226000D01*
X118232309Y-113224824D01*
X118208599Y-113221307D01*
X118185348Y-113215483D01*
X118162780Y-113207408D01*
X118141111Y-113197159D01*
X118120552Y-113184836D01*
X118101299Y-113170558D01*
X118083539Y-113154461D01*
X118067442Y-113136701D01*
X118053164Y-113117448D01*
X118040841Y-113096889D01*
X118030592Y-113075220D01*
X118022517Y-113052652D01*
X118016693Y-113029401D01*
X118013176Y-113005691D01*
X118012000Y-112981750D01*
X118012000Y-112418250D01*
X118013176Y-112394309D01*
X118016693Y-112370599D01*
X118022517Y-112347348D01*
X118030592Y-112324780D01*
X118040841Y-112303111D01*
X118053164Y-112282552D01*
X118067442Y-112263299D01*
X118083539Y-112245539D01*
X118101299Y-112229442D01*
X118120552Y-112215164D01*
X118141111Y-112202841D01*
X118162780Y-112192592D01*
X118185348Y-112184517D01*
X118208599Y-112178693D01*
X118232309Y-112175176D01*
X118256250Y-112174000D01*
X118744750Y-112174000D01*
X118768691Y-112175176D01*
X118768691Y-112175176D01*
G37*
D13*
X118500500Y-112700000D03*
D12*
G36*
X112380691Y-104475176D02*
G01*
X112404401Y-104478693D01*
X112427652Y-104484517D01*
X112450220Y-104492592D01*
X112471889Y-104502841D01*
X112492448Y-104515164D01*
X112511701Y-104529442D01*
X112529461Y-104545539D01*
X112545558Y-104563299D01*
X112559836Y-104582552D01*
X112572159Y-104603111D01*
X112582408Y-104624780D01*
X112590483Y-104647348D01*
X112596307Y-104670599D01*
X112599824Y-104694309D01*
X112601000Y-104718250D01*
X112601000Y-105281750D01*
X112599824Y-105305691D01*
X112596307Y-105329401D01*
X112590483Y-105352652D01*
X112582408Y-105375220D01*
X112572159Y-105396889D01*
X112559836Y-105417448D01*
X112545558Y-105436701D01*
X112529461Y-105454461D01*
X112511701Y-105470558D01*
X112492448Y-105484836D01*
X112471889Y-105497159D01*
X112450220Y-105507408D01*
X112427652Y-105515483D01*
X112404401Y-105521307D01*
X112380691Y-105524824D01*
X112356750Y-105526000D01*
X111868250Y-105526000D01*
X111844309Y-105524824D01*
X111820599Y-105521307D01*
X111797348Y-105515483D01*
X111774780Y-105507408D01*
X111753111Y-105497159D01*
X111732552Y-105484836D01*
X111713299Y-105470558D01*
X111695539Y-105454461D01*
X111679442Y-105436701D01*
X111665164Y-105417448D01*
X111652841Y-105396889D01*
X111642592Y-105375220D01*
X111634517Y-105352652D01*
X111628693Y-105329401D01*
X111625176Y-105305691D01*
X111624000Y-105281750D01*
X111624000Y-104718250D01*
X111625176Y-104694309D01*
X111628693Y-104670599D01*
X111634517Y-104647348D01*
X111642592Y-104624780D01*
X111652841Y-104603111D01*
X111665164Y-104582552D01*
X111679442Y-104563299D01*
X111695539Y-104545539D01*
X111713299Y-104529442D01*
X111732552Y-104515164D01*
X111753111Y-104502841D01*
X111774780Y-104492592D01*
X111797348Y-104484517D01*
X111820599Y-104478693D01*
X111844309Y-104475176D01*
X111868250Y-104474000D01*
X112356750Y-104474000D01*
X112380691Y-104475176D01*
X112380691Y-104475176D01*
G37*
D13*
X112112500Y-105000000D03*
D12*
G36*
X113955691Y-104475176D02*
G01*
X113979401Y-104478693D01*
X114002652Y-104484517D01*
X114025220Y-104492592D01*
X114046889Y-104502841D01*
X114067448Y-104515164D01*
X114086701Y-104529442D01*
X114104461Y-104545539D01*
X114120558Y-104563299D01*
X114134836Y-104582552D01*
X114147159Y-104603111D01*
X114157408Y-104624780D01*
X114165483Y-104647348D01*
X114171307Y-104670599D01*
X114174824Y-104694309D01*
X114176000Y-104718250D01*
X114176000Y-105281750D01*
X114174824Y-105305691D01*
X114171307Y-105329401D01*
X114165483Y-105352652D01*
X114157408Y-105375220D01*
X114147159Y-105396889D01*
X114134836Y-105417448D01*
X114120558Y-105436701D01*
X114104461Y-105454461D01*
X114086701Y-105470558D01*
X114067448Y-105484836D01*
X114046889Y-105497159D01*
X114025220Y-105507408D01*
X114002652Y-105515483D01*
X113979401Y-105521307D01*
X113955691Y-105524824D01*
X113931750Y-105526000D01*
X113443250Y-105526000D01*
X113419309Y-105524824D01*
X113395599Y-105521307D01*
X113372348Y-105515483D01*
X113349780Y-105507408D01*
X113328111Y-105497159D01*
X113307552Y-105484836D01*
X113288299Y-105470558D01*
X113270539Y-105454461D01*
X113254442Y-105436701D01*
X113240164Y-105417448D01*
X113227841Y-105396889D01*
X113217592Y-105375220D01*
X113209517Y-105352652D01*
X113203693Y-105329401D01*
X113200176Y-105305691D01*
X113199000Y-105281750D01*
X113199000Y-104718250D01*
X113200176Y-104694309D01*
X113203693Y-104670599D01*
X113209517Y-104647348D01*
X113217592Y-104624780D01*
X113227841Y-104603111D01*
X113240164Y-104582552D01*
X113254442Y-104563299D01*
X113270539Y-104545539D01*
X113288299Y-104529442D01*
X113307552Y-104515164D01*
X113328111Y-104502841D01*
X113349780Y-104492592D01*
X113372348Y-104484517D01*
X113395599Y-104478693D01*
X113419309Y-104475176D01*
X113443250Y-104474000D01*
X113931750Y-104474000D01*
X113955691Y-104475176D01*
X113955691Y-104475176D01*
G37*
D13*
X113687500Y-105000000D03*
D12*
G36*
X112380691Y-102475176D02*
G01*
X112404401Y-102478693D01*
X112427652Y-102484517D01*
X112450220Y-102492592D01*
X112471889Y-102502841D01*
X112492448Y-102515164D01*
X112511701Y-102529442D01*
X112529461Y-102545539D01*
X112545558Y-102563299D01*
X112559836Y-102582552D01*
X112572159Y-102603111D01*
X112582408Y-102624780D01*
X112590483Y-102647348D01*
X112596307Y-102670599D01*
X112599824Y-102694309D01*
X112601000Y-102718250D01*
X112601000Y-103281750D01*
X112599824Y-103305691D01*
X112596307Y-103329401D01*
X112590483Y-103352652D01*
X112582408Y-103375220D01*
X112572159Y-103396889D01*
X112559836Y-103417448D01*
X112545558Y-103436701D01*
X112529461Y-103454461D01*
X112511701Y-103470558D01*
X112492448Y-103484836D01*
X112471889Y-103497159D01*
X112450220Y-103507408D01*
X112427652Y-103515483D01*
X112404401Y-103521307D01*
X112380691Y-103524824D01*
X112356750Y-103526000D01*
X111868250Y-103526000D01*
X111844309Y-103524824D01*
X111820599Y-103521307D01*
X111797348Y-103515483D01*
X111774780Y-103507408D01*
X111753111Y-103497159D01*
X111732552Y-103484836D01*
X111713299Y-103470558D01*
X111695539Y-103454461D01*
X111679442Y-103436701D01*
X111665164Y-103417448D01*
X111652841Y-103396889D01*
X111642592Y-103375220D01*
X111634517Y-103352652D01*
X111628693Y-103329401D01*
X111625176Y-103305691D01*
X111624000Y-103281750D01*
X111624000Y-102718250D01*
X111625176Y-102694309D01*
X111628693Y-102670599D01*
X111634517Y-102647348D01*
X111642592Y-102624780D01*
X111652841Y-102603111D01*
X111665164Y-102582552D01*
X111679442Y-102563299D01*
X111695539Y-102545539D01*
X111713299Y-102529442D01*
X111732552Y-102515164D01*
X111753111Y-102502841D01*
X111774780Y-102492592D01*
X111797348Y-102484517D01*
X111820599Y-102478693D01*
X111844309Y-102475176D01*
X111868250Y-102474000D01*
X112356750Y-102474000D01*
X112380691Y-102475176D01*
X112380691Y-102475176D01*
G37*
D13*
X112112500Y-103000000D03*
D12*
G36*
X113955691Y-102475176D02*
G01*
X113979401Y-102478693D01*
X114002652Y-102484517D01*
X114025220Y-102492592D01*
X114046889Y-102502841D01*
X114067448Y-102515164D01*
X114086701Y-102529442D01*
X114104461Y-102545539D01*
X114120558Y-102563299D01*
X114134836Y-102582552D01*
X114147159Y-102603111D01*
X114157408Y-102624780D01*
X114165483Y-102647348D01*
X114171307Y-102670599D01*
X114174824Y-102694309D01*
X114176000Y-102718250D01*
X114176000Y-103281750D01*
X114174824Y-103305691D01*
X114171307Y-103329401D01*
X114165483Y-103352652D01*
X114157408Y-103375220D01*
X114147159Y-103396889D01*
X114134836Y-103417448D01*
X114120558Y-103436701D01*
X114104461Y-103454461D01*
X114086701Y-103470558D01*
X114067448Y-103484836D01*
X114046889Y-103497159D01*
X114025220Y-103507408D01*
X114002652Y-103515483D01*
X113979401Y-103521307D01*
X113955691Y-103524824D01*
X113931750Y-103526000D01*
X113443250Y-103526000D01*
X113419309Y-103524824D01*
X113395599Y-103521307D01*
X113372348Y-103515483D01*
X113349780Y-103507408D01*
X113328111Y-103497159D01*
X113307552Y-103484836D01*
X113288299Y-103470558D01*
X113270539Y-103454461D01*
X113254442Y-103436701D01*
X113240164Y-103417448D01*
X113227841Y-103396889D01*
X113217592Y-103375220D01*
X113209517Y-103352652D01*
X113203693Y-103329401D01*
X113200176Y-103305691D01*
X113199000Y-103281750D01*
X113199000Y-102718250D01*
X113200176Y-102694309D01*
X113203693Y-102670599D01*
X113209517Y-102647348D01*
X113217592Y-102624780D01*
X113227841Y-102603111D01*
X113240164Y-102582552D01*
X113254442Y-102563299D01*
X113270539Y-102545539D01*
X113288299Y-102529442D01*
X113307552Y-102515164D01*
X113328111Y-102502841D01*
X113349780Y-102492592D01*
X113372348Y-102484517D01*
X113395599Y-102478693D01*
X113419309Y-102475176D01*
X113443250Y-102474000D01*
X113931750Y-102474000D01*
X113955691Y-102475176D01*
X113955691Y-102475176D01*
G37*
D13*
X113687500Y-103000000D03*
D19*
X126000000Y-104540000D03*
X126000000Y-102000000D03*
D20*
X126000000Y-99460000D03*
D21*
X108000000Y-99000000D03*
X108000000Y-101000000D03*
X108000000Y-103000000D03*
X108000000Y-105000000D03*
D12*
G36*
X114143691Y-91575176D02*
G01*
X114167401Y-91578693D01*
X114190652Y-91584517D01*
X114213220Y-91592592D01*
X114234889Y-91602841D01*
X114255448Y-91615164D01*
X114274701Y-91629442D01*
X114292461Y-91645539D01*
X114308558Y-91663299D01*
X114322836Y-91682552D01*
X114335159Y-91703111D01*
X114345408Y-91724780D01*
X114353483Y-91747348D01*
X114359307Y-91770599D01*
X114362824Y-91794309D01*
X114364000Y-91818250D01*
X114364000Y-92381750D01*
X114362824Y-92405691D01*
X114359307Y-92429401D01*
X114353483Y-92452652D01*
X114345408Y-92475220D01*
X114335159Y-92496889D01*
X114322836Y-92517448D01*
X114308558Y-92536701D01*
X114292461Y-92554461D01*
X114274701Y-92570558D01*
X114255448Y-92584836D01*
X114234889Y-92597159D01*
X114213220Y-92607408D01*
X114190652Y-92615483D01*
X114167401Y-92621307D01*
X114143691Y-92624824D01*
X114119750Y-92626000D01*
X113631250Y-92626000D01*
X113607309Y-92624824D01*
X113583599Y-92621307D01*
X113560348Y-92615483D01*
X113537780Y-92607408D01*
X113516111Y-92597159D01*
X113495552Y-92584836D01*
X113476299Y-92570558D01*
X113458539Y-92554461D01*
X113442442Y-92536701D01*
X113428164Y-92517448D01*
X113415841Y-92496889D01*
X113405592Y-92475220D01*
X113397517Y-92452652D01*
X113391693Y-92429401D01*
X113388176Y-92405691D01*
X113387000Y-92381750D01*
X113387000Y-91818250D01*
X113388176Y-91794309D01*
X113391693Y-91770599D01*
X113397517Y-91747348D01*
X113405592Y-91724780D01*
X113415841Y-91703111D01*
X113428164Y-91682552D01*
X113442442Y-91663299D01*
X113458539Y-91645539D01*
X113476299Y-91629442D01*
X113495552Y-91615164D01*
X113516111Y-91602841D01*
X113537780Y-91592592D01*
X113560348Y-91584517D01*
X113583599Y-91578693D01*
X113607309Y-91575176D01*
X113631250Y-91574000D01*
X114119750Y-91574000D01*
X114143691Y-91575176D01*
X114143691Y-91575176D01*
G37*
D13*
X113875500Y-92100000D03*
D12*
G36*
X112568691Y-91575176D02*
G01*
X112592401Y-91578693D01*
X112615652Y-91584517D01*
X112638220Y-91592592D01*
X112659889Y-91602841D01*
X112680448Y-91615164D01*
X112699701Y-91629442D01*
X112717461Y-91645539D01*
X112733558Y-91663299D01*
X112747836Y-91682552D01*
X112760159Y-91703111D01*
X112770408Y-91724780D01*
X112778483Y-91747348D01*
X112784307Y-91770599D01*
X112787824Y-91794309D01*
X112789000Y-91818250D01*
X112789000Y-92381750D01*
X112787824Y-92405691D01*
X112784307Y-92429401D01*
X112778483Y-92452652D01*
X112770408Y-92475220D01*
X112760159Y-92496889D01*
X112747836Y-92517448D01*
X112733558Y-92536701D01*
X112717461Y-92554461D01*
X112699701Y-92570558D01*
X112680448Y-92584836D01*
X112659889Y-92597159D01*
X112638220Y-92607408D01*
X112615652Y-92615483D01*
X112592401Y-92621307D01*
X112568691Y-92624824D01*
X112544750Y-92626000D01*
X112056250Y-92626000D01*
X112032309Y-92624824D01*
X112008599Y-92621307D01*
X111985348Y-92615483D01*
X111962780Y-92607408D01*
X111941111Y-92597159D01*
X111920552Y-92584836D01*
X111901299Y-92570558D01*
X111883539Y-92554461D01*
X111867442Y-92536701D01*
X111853164Y-92517448D01*
X111840841Y-92496889D01*
X111830592Y-92475220D01*
X111822517Y-92452652D01*
X111816693Y-92429401D01*
X111813176Y-92405691D01*
X111812000Y-92381750D01*
X111812000Y-91818250D01*
X111813176Y-91794309D01*
X111816693Y-91770599D01*
X111822517Y-91747348D01*
X111830592Y-91724780D01*
X111840841Y-91703111D01*
X111853164Y-91682552D01*
X111867442Y-91663299D01*
X111883539Y-91645539D01*
X111901299Y-91629442D01*
X111920552Y-91615164D01*
X111941111Y-91602841D01*
X111962780Y-91592592D01*
X111985348Y-91584517D01*
X112008599Y-91578693D01*
X112032309Y-91575176D01*
X112056250Y-91574000D01*
X112544750Y-91574000D01*
X112568691Y-91575176D01*
X112568691Y-91575176D01*
G37*
D13*
X112300500Y-92100000D03*
D12*
G36*
X118053191Y-104225176D02*
G01*
X118076901Y-104228693D01*
X118100152Y-104234517D01*
X118122720Y-104242592D01*
X118144389Y-104252841D01*
X118164948Y-104265164D01*
X118184201Y-104279442D01*
X118201961Y-104295539D01*
X118218058Y-104313299D01*
X118232336Y-104332552D01*
X118244659Y-104353111D01*
X118254908Y-104374780D01*
X118262983Y-104397348D01*
X118268807Y-104420599D01*
X118272324Y-104444309D01*
X118273500Y-104468250D01*
X118273500Y-105031750D01*
X118272324Y-105055691D01*
X118268807Y-105079401D01*
X118262983Y-105102652D01*
X118254908Y-105125220D01*
X118244659Y-105146889D01*
X118232336Y-105167448D01*
X118218058Y-105186701D01*
X118201961Y-105204461D01*
X118184201Y-105220558D01*
X118164948Y-105234836D01*
X118144389Y-105247159D01*
X118122720Y-105257408D01*
X118100152Y-105265483D01*
X118076901Y-105271307D01*
X118053191Y-105274824D01*
X118029250Y-105276000D01*
X117540750Y-105276000D01*
X117516809Y-105274824D01*
X117493099Y-105271307D01*
X117469848Y-105265483D01*
X117447280Y-105257408D01*
X117425611Y-105247159D01*
X117405052Y-105234836D01*
X117385799Y-105220558D01*
X117368039Y-105204461D01*
X117351942Y-105186701D01*
X117337664Y-105167448D01*
X117325341Y-105146889D01*
X117315092Y-105125220D01*
X117307017Y-105102652D01*
X117301193Y-105079401D01*
X117297676Y-105055691D01*
X117296500Y-105031750D01*
X117296500Y-104468250D01*
X117297676Y-104444309D01*
X117301193Y-104420599D01*
X117307017Y-104397348D01*
X117315092Y-104374780D01*
X117325341Y-104353111D01*
X117337664Y-104332552D01*
X117351942Y-104313299D01*
X117368039Y-104295539D01*
X117385799Y-104279442D01*
X117405052Y-104265164D01*
X117425611Y-104252841D01*
X117447280Y-104242592D01*
X117469848Y-104234517D01*
X117493099Y-104228693D01*
X117516809Y-104225176D01*
X117540750Y-104224000D01*
X118029250Y-104224000D01*
X118053191Y-104225176D01*
X118053191Y-104225176D01*
G37*
D13*
X117785000Y-104750000D03*
D12*
G36*
X116478191Y-104225176D02*
G01*
X116501901Y-104228693D01*
X116525152Y-104234517D01*
X116547720Y-104242592D01*
X116569389Y-104252841D01*
X116589948Y-104265164D01*
X116609201Y-104279442D01*
X116626961Y-104295539D01*
X116643058Y-104313299D01*
X116657336Y-104332552D01*
X116669659Y-104353111D01*
X116679908Y-104374780D01*
X116687983Y-104397348D01*
X116693807Y-104420599D01*
X116697324Y-104444309D01*
X116698500Y-104468250D01*
X116698500Y-105031750D01*
X116697324Y-105055691D01*
X116693807Y-105079401D01*
X116687983Y-105102652D01*
X116679908Y-105125220D01*
X116669659Y-105146889D01*
X116657336Y-105167448D01*
X116643058Y-105186701D01*
X116626961Y-105204461D01*
X116609201Y-105220558D01*
X116589948Y-105234836D01*
X116569389Y-105247159D01*
X116547720Y-105257408D01*
X116525152Y-105265483D01*
X116501901Y-105271307D01*
X116478191Y-105274824D01*
X116454250Y-105276000D01*
X115965750Y-105276000D01*
X115941809Y-105274824D01*
X115918099Y-105271307D01*
X115894848Y-105265483D01*
X115872280Y-105257408D01*
X115850611Y-105247159D01*
X115830052Y-105234836D01*
X115810799Y-105220558D01*
X115793039Y-105204461D01*
X115776942Y-105186701D01*
X115762664Y-105167448D01*
X115750341Y-105146889D01*
X115740092Y-105125220D01*
X115732017Y-105102652D01*
X115726193Y-105079401D01*
X115722676Y-105055691D01*
X115721500Y-105031750D01*
X115721500Y-104468250D01*
X115722676Y-104444309D01*
X115726193Y-104420599D01*
X115732017Y-104397348D01*
X115740092Y-104374780D01*
X115750341Y-104353111D01*
X115762664Y-104332552D01*
X115776942Y-104313299D01*
X115793039Y-104295539D01*
X115810799Y-104279442D01*
X115830052Y-104265164D01*
X115850611Y-104252841D01*
X115872280Y-104242592D01*
X115894848Y-104234517D01*
X115918099Y-104228693D01*
X115941809Y-104225176D01*
X115965750Y-104224000D01*
X116454250Y-104224000D01*
X116478191Y-104225176D01*
X116478191Y-104225176D01*
G37*
D13*
X116210000Y-104750000D03*
D12*
G36*
X116508141Y-95437797D02*
G01*
X116534278Y-95441674D01*
X116559909Y-95448094D01*
X116584788Y-95456995D01*
X116608674Y-95468293D01*
X116631337Y-95481877D01*
X116652560Y-95497617D01*
X116672139Y-95515361D01*
X116689883Y-95534940D01*
X116705623Y-95556163D01*
X116719207Y-95578826D01*
X116730505Y-95602712D01*
X116739406Y-95627591D01*
X116745826Y-95653222D01*
X116749703Y-95679359D01*
X116751000Y-95705750D01*
X116751000Y-96244250D01*
X116749703Y-96270641D01*
X116745826Y-96296778D01*
X116739406Y-96322409D01*
X116730505Y-96347288D01*
X116719207Y-96371174D01*
X116705623Y-96393837D01*
X116689883Y-96415060D01*
X116672139Y-96434639D01*
X116652560Y-96452383D01*
X116631337Y-96468123D01*
X116608674Y-96481707D01*
X116584788Y-96493005D01*
X116559909Y-96501906D01*
X116534278Y-96508326D01*
X116508141Y-96512203D01*
X116481750Y-96513500D01*
X115518250Y-96513500D01*
X115491859Y-96512203D01*
X115465722Y-96508326D01*
X115440091Y-96501906D01*
X115415212Y-96493005D01*
X115391326Y-96481707D01*
X115368663Y-96468123D01*
X115347440Y-96452383D01*
X115327861Y-96434639D01*
X115310117Y-96415060D01*
X115294377Y-96393837D01*
X115280793Y-96371174D01*
X115269495Y-96347288D01*
X115260594Y-96322409D01*
X115254174Y-96296778D01*
X115250297Y-96270641D01*
X115249000Y-96244250D01*
X115249000Y-95705750D01*
X115250297Y-95679359D01*
X115254174Y-95653222D01*
X115260594Y-95627591D01*
X115269495Y-95602712D01*
X115280793Y-95578826D01*
X115294377Y-95556163D01*
X115310117Y-95534940D01*
X115327861Y-95515361D01*
X115347440Y-95497617D01*
X115368663Y-95481877D01*
X115391326Y-95468293D01*
X115415212Y-95456995D01*
X115440091Y-95448094D01*
X115465722Y-95441674D01*
X115491859Y-95437797D01*
X115518250Y-95436500D01*
X116481750Y-95436500D01*
X116508141Y-95437797D01*
X116508141Y-95437797D01*
G37*
D22*
X116000000Y-95975000D03*
D12*
G36*
X116508141Y-93562797D02*
G01*
X116534278Y-93566674D01*
X116559909Y-93573094D01*
X116584788Y-93581995D01*
X116608674Y-93593293D01*
X116631337Y-93606877D01*
X116652560Y-93622617D01*
X116672139Y-93640361D01*
X116689883Y-93659940D01*
X116705623Y-93681163D01*
X116719207Y-93703826D01*
X116730505Y-93727712D01*
X116739406Y-93752591D01*
X116745826Y-93778222D01*
X116749703Y-93804359D01*
X116751000Y-93830750D01*
X116751000Y-94369250D01*
X116749703Y-94395641D01*
X116745826Y-94421778D01*
X116739406Y-94447409D01*
X116730505Y-94472288D01*
X116719207Y-94496174D01*
X116705623Y-94518837D01*
X116689883Y-94540060D01*
X116672139Y-94559639D01*
X116652560Y-94577383D01*
X116631337Y-94593123D01*
X116608674Y-94606707D01*
X116584788Y-94618005D01*
X116559909Y-94626906D01*
X116534278Y-94633326D01*
X116508141Y-94637203D01*
X116481750Y-94638500D01*
X115518250Y-94638500D01*
X115491859Y-94637203D01*
X115465722Y-94633326D01*
X115440091Y-94626906D01*
X115415212Y-94618005D01*
X115391326Y-94606707D01*
X115368663Y-94593123D01*
X115347440Y-94577383D01*
X115327861Y-94559639D01*
X115310117Y-94540060D01*
X115294377Y-94518837D01*
X115280793Y-94496174D01*
X115269495Y-94472288D01*
X115260594Y-94447409D01*
X115254174Y-94421778D01*
X115250297Y-94395641D01*
X115249000Y-94369250D01*
X115249000Y-93830750D01*
X115250297Y-93804359D01*
X115254174Y-93778222D01*
X115260594Y-93752591D01*
X115269495Y-93727712D01*
X115280793Y-93703826D01*
X115294377Y-93681163D01*
X115310117Y-93659940D01*
X115327861Y-93640361D01*
X115347440Y-93622617D01*
X115368663Y-93606877D01*
X115391326Y-93593293D01*
X115415212Y-93581995D01*
X115440091Y-93573094D01*
X115465722Y-93566674D01*
X115491859Y-93562797D01*
X115518250Y-93561500D01*
X116481750Y-93561500D01*
X116508141Y-93562797D01*
X116508141Y-93562797D01*
G37*
D22*
X116000000Y-94100000D03*
D12*
G36*
X112168691Y-97275176D02*
G01*
X112192401Y-97278693D01*
X112215652Y-97284517D01*
X112238220Y-97292592D01*
X112259889Y-97302841D01*
X112280448Y-97315164D01*
X112299701Y-97329442D01*
X112317461Y-97345539D01*
X112333558Y-97363299D01*
X112347836Y-97382552D01*
X112360159Y-97403111D01*
X112370408Y-97424780D01*
X112378483Y-97447348D01*
X112384307Y-97470599D01*
X112387824Y-97494309D01*
X112389000Y-97518250D01*
X112389000Y-98081750D01*
X112387824Y-98105691D01*
X112384307Y-98129401D01*
X112378483Y-98152652D01*
X112370408Y-98175220D01*
X112360159Y-98196889D01*
X112347836Y-98217448D01*
X112333558Y-98236701D01*
X112317461Y-98254461D01*
X112299701Y-98270558D01*
X112280448Y-98284836D01*
X112259889Y-98297159D01*
X112238220Y-98307408D01*
X112215652Y-98315483D01*
X112192401Y-98321307D01*
X112168691Y-98324824D01*
X112144750Y-98326000D01*
X111656250Y-98326000D01*
X111632309Y-98324824D01*
X111608599Y-98321307D01*
X111585348Y-98315483D01*
X111562780Y-98307408D01*
X111541111Y-98297159D01*
X111520552Y-98284836D01*
X111501299Y-98270558D01*
X111483539Y-98254461D01*
X111467442Y-98236701D01*
X111453164Y-98217448D01*
X111440841Y-98196889D01*
X111430592Y-98175220D01*
X111422517Y-98152652D01*
X111416693Y-98129401D01*
X111413176Y-98105691D01*
X111412000Y-98081750D01*
X111412000Y-97518250D01*
X111413176Y-97494309D01*
X111416693Y-97470599D01*
X111422517Y-97447348D01*
X111430592Y-97424780D01*
X111440841Y-97403111D01*
X111453164Y-97382552D01*
X111467442Y-97363299D01*
X111483539Y-97345539D01*
X111501299Y-97329442D01*
X111520552Y-97315164D01*
X111541111Y-97302841D01*
X111562780Y-97292592D01*
X111585348Y-97284517D01*
X111608599Y-97278693D01*
X111632309Y-97275176D01*
X111656250Y-97274000D01*
X112144750Y-97274000D01*
X112168691Y-97275176D01*
X112168691Y-97275176D01*
G37*
D13*
X111900500Y-97800000D03*
D12*
G36*
X113743691Y-97275176D02*
G01*
X113767401Y-97278693D01*
X113790652Y-97284517D01*
X113813220Y-97292592D01*
X113834889Y-97302841D01*
X113855448Y-97315164D01*
X113874701Y-97329442D01*
X113892461Y-97345539D01*
X113908558Y-97363299D01*
X113922836Y-97382552D01*
X113935159Y-97403111D01*
X113945408Y-97424780D01*
X113953483Y-97447348D01*
X113959307Y-97470599D01*
X113962824Y-97494309D01*
X113964000Y-97518250D01*
X113964000Y-98081750D01*
X113962824Y-98105691D01*
X113959307Y-98129401D01*
X113953483Y-98152652D01*
X113945408Y-98175220D01*
X113935159Y-98196889D01*
X113922836Y-98217448D01*
X113908558Y-98236701D01*
X113892461Y-98254461D01*
X113874701Y-98270558D01*
X113855448Y-98284836D01*
X113834889Y-98297159D01*
X113813220Y-98307408D01*
X113790652Y-98315483D01*
X113767401Y-98321307D01*
X113743691Y-98324824D01*
X113719750Y-98326000D01*
X113231250Y-98326000D01*
X113207309Y-98324824D01*
X113183599Y-98321307D01*
X113160348Y-98315483D01*
X113137780Y-98307408D01*
X113116111Y-98297159D01*
X113095552Y-98284836D01*
X113076299Y-98270558D01*
X113058539Y-98254461D01*
X113042442Y-98236701D01*
X113028164Y-98217448D01*
X113015841Y-98196889D01*
X113005592Y-98175220D01*
X112997517Y-98152652D01*
X112991693Y-98129401D01*
X112988176Y-98105691D01*
X112987000Y-98081750D01*
X112987000Y-97518250D01*
X112988176Y-97494309D01*
X112991693Y-97470599D01*
X112997517Y-97447348D01*
X113005592Y-97424780D01*
X113015841Y-97403111D01*
X113028164Y-97382552D01*
X113042442Y-97363299D01*
X113058539Y-97345539D01*
X113076299Y-97329442D01*
X113095552Y-97315164D01*
X113116111Y-97302841D01*
X113137780Y-97292592D01*
X113160348Y-97284517D01*
X113183599Y-97278693D01*
X113207309Y-97275176D01*
X113231250Y-97274000D01*
X113719750Y-97274000D01*
X113743691Y-97275176D01*
X113743691Y-97275176D01*
G37*
D13*
X113475500Y-97800000D03*
D12*
G36*
X109708141Y-95500297D02*
G01*
X109734278Y-95504174D01*
X109759909Y-95510594D01*
X109784788Y-95519495D01*
X109808674Y-95530793D01*
X109831337Y-95544377D01*
X109852560Y-95560117D01*
X109872139Y-95577861D01*
X109889883Y-95597440D01*
X109905623Y-95618663D01*
X109919207Y-95641326D01*
X109930505Y-95665212D01*
X109939406Y-95690091D01*
X109945826Y-95715722D01*
X109949703Y-95741859D01*
X109951000Y-95768250D01*
X109951000Y-96306750D01*
X109949703Y-96333141D01*
X109945826Y-96359278D01*
X109939406Y-96384909D01*
X109930505Y-96409788D01*
X109919207Y-96433674D01*
X109905623Y-96456337D01*
X109889883Y-96477560D01*
X109872139Y-96497139D01*
X109852560Y-96514883D01*
X109831337Y-96530623D01*
X109808674Y-96544207D01*
X109784788Y-96555505D01*
X109759909Y-96564406D01*
X109734278Y-96570826D01*
X109708141Y-96574703D01*
X109681750Y-96576000D01*
X108718250Y-96576000D01*
X108691859Y-96574703D01*
X108665722Y-96570826D01*
X108640091Y-96564406D01*
X108615212Y-96555505D01*
X108591326Y-96544207D01*
X108568663Y-96530623D01*
X108547440Y-96514883D01*
X108527861Y-96497139D01*
X108510117Y-96477560D01*
X108494377Y-96456337D01*
X108480793Y-96433674D01*
X108469495Y-96409788D01*
X108460594Y-96384909D01*
X108454174Y-96359278D01*
X108450297Y-96333141D01*
X108449000Y-96306750D01*
X108449000Y-95768250D01*
X108450297Y-95741859D01*
X108454174Y-95715722D01*
X108460594Y-95690091D01*
X108469495Y-95665212D01*
X108480793Y-95641326D01*
X108494377Y-95618663D01*
X108510117Y-95597440D01*
X108527861Y-95577861D01*
X108547440Y-95560117D01*
X108568663Y-95544377D01*
X108591326Y-95530793D01*
X108615212Y-95519495D01*
X108640091Y-95510594D01*
X108665722Y-95504174D01*
X108691859Y-95500297D01*
X108718250Y-95499000D01*
X109681750Y-95499000D01*
X109708141Y-95500297D01*
X109708141Y-95500297D01*
G37*
D22*
X109200000Y-96037500D03*
D12*
G36*
X109708141Y-93625297D02*
G01*
X109734278Y-93629174D01*
X109759909Y-93635594D01*
X109784788Y-93644495D01*
X109808674Y-93655793D01*
X109831337Y-93669377D01*
X109852560Y-93685117D01*
X109872139Y-93702861D01*
X109889883Y-93722440D01*
X109905623Y-93743663D01*
X109919207Y-93766326D01*
X109930505Y-93790212D01*
X109939406Y-93815091D01*
X109945826Y-93840722D01*
X109949703Y-93866859D01*
X109951000Y-93893250D01*
X109951000Y-94431750D01*
X109949703Y-94458141D01*
X109945826Y-94484278D01*
X109939406Y-94509909D01*
X109930505Y-94534788D01*
X109919207Y-94558674D01*
X109905623Y-94581337D01*
X109889883Y-94602560D01*
X109872139Y-94622139D01*
X109852560Y-94639883D01*
X109831337Y-94655623D01*
X109808674Y-94669207D01*
X109784788Y-94680505D01*
X109759909Y-94689406D01*
X109734278Y-94695826D01*
X109708141Y-94699703D01*
X109681750Y-94701000D01*
X108718250Y-94701000D01*
X108691859Y-94699703D01*
X108665722Y-94695826D01*
X108640091Y-94689406D01*
X108615212Y-94680505D01*
X108591326Y-94669207D01*
X108568663Y-94655623D01*
X108547440Y-94639883D01*
X108527861Y-94622139D01*
X108510117Y-94602560D01*
X108494377Y-94581337D01*
X108480793Y-94558674D01*
X108469495Y-94534788D01*
X108460594Y-94509909D01*
X108454174Y-94484278D01*
X108450297Y-94458141D01*
X108449000Y-94431750D01*
X108449000Y-93893250D01*
X108450297Y-93866859D01*
X108454174Y-93840722D01*
X108460594Y-93815091D01*
X108469495Y-93790212D01*
X108480793Y-93766326D01*
X108494377Y-93743663D01*
X108510117Y-93722440D01*
X108527861Y-93702861D01*
X108547440Y-93685117D01*
X108568663Y-93669377D01*
X108591326Y-93655793D01*
X108615212Y-93644495D01*
X108640091Y-93635594D01*
X108665722Y-93629174D01*
X108691859Y-93625297D01*
X108718250Y-93624000D01*
X109681750Y-93624000D01*
X109708141Y-93625297D01*
X109708141Y-93625297D01*
G37*
D22*
X109200000Y-94162500D03*
M02*
