G04 #@! TF.GenerationSoftware,KiCad,Pcbnew,(5.1.2)-1*
G04 #@! TF.CreationDate,2022-08-21T12:43:38+09:00*
G04 #@! TF.ProjectId,conv,636f6e76-2e6b-4696-9361-645f70636258,v1.1*
G04 #@! TF.SameCoordinates,Original*
G04 #@! TF.FileFunction,Copper,L2,Bot*
G04 #@! TF.FilePolarity,Positive*
%FSLAX46Y46*%
G04 Gerber Fmt 4.6, Leading zero omitted, Abs format (unit mm)*
G04 Created by KiCad (PCBNEW (5.1.2)-1) date 2022-08-21 12:43:38*
%MOMM*%
%LPD*%
G04 APERTURE LIST*
%ADD10O,1.700000X1.700000*%
%ADD11R,1.700000X1.700000*%
%ADD12O,1.800000X1.524000*%
%ADD13C,0.800000*%
%ADD14C,0.300000*%
%ADD15C,0.254000*%
G04 APERTURE END LIST*
D10*
X126000000Y-104540000D03*
X126000000Y-102000000D03*
D11*
X126000000Y-99460000D03*
D12*
X108000000Y-99000000D03*
X108000000Y-101000000D03*
X108000000Y-103000000D03*
X108000000Y-105000000D03*
D13*
X116020000Y-97990000D03*
X116870000Y-91570000D03*
X103240000Y-97410000D03*
X103200000Y-107180000D03*
X121070000Y-104100000D03*
X117724500Y-105872000D03*
X121143900Y-106100000D03*
D14*
X108000000Y-99000000D02*
X104830000Y-99000000D01*
X104830000Y-99000000D02*
X103240000Y-97410000D01*
X117724500Y-102151100D02*
X122108600Y-102151100D01*
X122108600Y-102151100D02*
X124799700Y-99460000D01*
X109250300Y-101000000D02*
X109346600Y-100903700D01*
X109346600Y-100903700D02*
X116477100Y-100903700D01*
X116477100Y-100903700D02*
X117724500Y-102151100D01*
X117724500Y-102151100D02*
X117724500Y-105872000D01*
X126000000Y-99460000D02*
X124799700Y-99460000D01*
X108000000Y-101000000D02*
X109250300Y-101000000D01*
X125243900Y-102000000D02*
X121143900Y-106100000D01*
X126000000Y-102000000D02*
X125243900Y-102000000D01*
D15*
G36*
X129065424Y-90669580D02*
G01*
X129128356Y-90688580D01*
X129186405Y-90719445D01*
X129237343Y-90760989D01*
X129279248Y-90811644D01*
X129310515Y-90869471D01*
X129329956Y-90932272D01*
X129340001Y-91027845D01*
X129340000Y-113967721D01*
X129330420Y-114065424D01*
X129311420Y-114128357D01*
X129280554Y-114186406D01*
X129239011Y-114237343D01*
X129188356Y-114279248D01*
X129130529Y-114310515D01*
X129067728Y-114329956D01*
X128972165Y-114340000D01*
X101032279Y-114340000D01*
X100934576Y-114330420D01*
X100871643Y-114311420D01*
X100813594Y-114280554D01*
X100762657Y-114239011D01*
X100720752Y-114188356D01*
X100689485Y-114130529D01*
X100670044Y-114067728D01*
X100660000Y-113972165D01*
X100660000Y-111779872D01*
X100765000Y-111779872D01*
X100765000Y-112220128D01*
X100850890Y-112651925D01*
X101019369Y-113058669D01*
X101263962Y-113424729D01*
X101575271Y-113736038D01*
X101941331Y-113980631D01*
X102348075Y-114149110D01*
X102779872Y-114235000D01*
X103220128Y-114235000D01*
X103651925Y-114149110D01*
X104058669Y-113980631D01*
X104424729Y-113736038D01*
X104736038Y-113424729D01*
X104980631Y-113058669D01*
X105149110Y-112651925D01*
X105235000Y-112220128D01*
X105235000Y-111779872D01*
X105149110Y-111348075D01*
X104980631Y-110941331D01*
X104736038Y-110575271D01*
X104424729Y-110263962D01*
X104058669Y-110019369D01*
X103651925Y-109850890D01*
X103220128Y-109765000D01*
X102779872Y-109765000D01*
X102348075Y-109850890D01*
X101941331Y-110019369D01*
X101575271Y-110263962D01*
X101263962Y-110575271D01*
X101019369Y-110941331D01*
X100850890Y-111348075D01*
X100765000Y-111779872D01*
X100660000Y-111779872D01*
X100660000Y-101000000D01*
X106458241Y-101000000D01*
X106485214Y-101273860D01*
X106565096Y-101537195D01*
X106694817Y-101779887D01*
X106869392Y-101992608D01*
X106878399Y-102000000D01*
X106869392Y-102007392D01*
X106694817Y-102220113D01*
X106565096Y-102462805D01*
X106485214Y-102726140D01*
X106458241Y-103000000D01*
X106485214Y-103273860D01*
X106565096Y-103537195D01*
X106694817Y-103779887D01*
X106869392Y-103992608D01*
X106878399Y-104000000D01*
X106869392Y-104007392D01*
X106694817Y-104220113D01*
X106565096Y-104462805D01*
X106485214Y-104726140D01*
X106458241Y-105000000D01*
X106485214Y-105273860D01*
X106565096Y-105537195D01*
X106694817Y-105779887D01*
X106869392Y-105992608D01*
X107082113Y-106167183D01*
X107324805Y-106296904D01*
X107588140Y-106376786D01*
X107793375Y-106397000D01*
X108206625Y-106397000D01*
X108411860Y-106376786D01*
X108675195Y-106296904D01*
X108917887Y-106167183D01*
X109130608Y-105992608D01*
X109305183Y-105779887D01*
X109434904Y-105537195D01*
X109514786Y-105273860D01*
X109541759Y-105000000D01*
X109514786Y-104726140D01*
X109434904Y-104462805D01*
X109305183Y-104220113D01*
X109130608Y-104007392D01*
X109121601Y-104000000D01*
X109130608Y-103992608D01*
X109305183Y-103779887D01*
X109434904Y-103537195D01*
X109514786Y-103273860D01*
X109541759Y-103000000D01*
X109514786Y-102726140D01*
X109434904Y-102462805D01*
X109305183Y-102220113D01*
X109130608Y-102007392D01*
X109121601Y-102000000D01*
X109130608Y-101992608D01*
X109302053Y-101783701D01*
X109404187Y-101773641D01*
X109552160Y-101728754D01*
X109627097Y-101688700D01*
X116151943Y-101688700D01*
X116939500Y-102476258D01*
X116939501Y-105193288D01*
X116920563Y-105212226D01*
X116807295Y-105381744D01*
X116729274Y-105570102D01*
X116689500Y-105770061D01*
X116689500Y-105973939D01*
X116729274Y-106173898D01*
X116807295Y-106362256D01*
X116920563Y-106531774D01*
X117064726Y-106675937D01*
X117234244Y-106789205D01*
X117422602Y-106867226D01*
X117622561Y-106907000D01*
X117826439Y-106907000D01*
X118026398Y-106867226D01*
X118214756Y-106789205D01*
X118384274Y-106675937D01*
X118528437Y-106531774D01*
X118641705Y-106362256D01*
X118719726Y-106173898D01*
X118759500Y-105973939D01*
X118759500Y-105770061D01*
X118719726Y-105570102D01*
X118641705Y-105381744D01*
X118528437Y-105212226D01*
X118509500Y-105193289D01*
X118509500Y-102936100D01*
X122070047Y-102936100D01*
X122108600Y-102939897D01*
X122147153Y-102936100D01*
X122147161Y-102936100D01*
X122262487Y-102924741D01*
X122410460Y-102879854D01*
X122546833Y-102806962D01*
X122666364Y-102708864D01*
X122690947Y-102678910D01*
X124658183Y-100711675D01*
X124698815Y-100761185D01*
X124795506Y-100840537D01*
X124905820Y-100899502D01*
X124974687Y-100920393D01*
X124944866Y-100944866D01*
X124759294Y-101170986D01*
X124621401Y-101428966D01*
X124585096Y-101548647D01*
X121068743Y-105065000D01*
X121041961Y-105065000D01*
X120842002Y-105104774D01*
X120653644Y-105182795D01*
X120484126Y-105296063D01*
X120339963Y-105440226D01*
X120226695Y-105609744D01*
X120148674Y-105798102D01*
X120108900Y-105998061D01*
X120108900Y-106201939D01*
X120148674Y-106401898D01*
X120226695Y-106590256D01*
X120339963Y-106759774D01*
X120484126Y-106903937D01*
X120653644Y-107017205D01*
X120842002Y-107095226D01*
X121041961Y-107135000D01*
X121245839Y-107135000D01*
X121445798Y-107095226D01*
X121634156Y-107017205D01*
X121803674Y-106903937D01*
X121947837Y-106759774D01*
X122061105Y-106590256D01*
X122139126Y-106401898D01*
X122178900Y-106201939D01*
X122178900Y-106175157D01*
X123457167Y-104896890D01*
X124558524Y-104896890D01*
X124603175Y-105044099D01*
X124728359Y-105306920D01*
X124902412Y-105540269D01*
X125118645Y-105735178D01*
X125368748Y-105884157D01*
X125643109Y-105981481D01*
X125873000Y-105860814D01*
X125873000Y-104667000D01*
X126127000Y-104667000D01*
X126127000Y-105860814D01*
X126356891Y-105981481D01*
X126631252Y-105884157D01*
X126881355Y-105735178D01*
X127097588Y-105540269D01*
X127271641Y-105306920D01*
X127396825Y-105044099D01*
X127441476Y-104896890D01*
X127320155Y-104667000D01*
X126127000Y-104667000D01*
X125873000Y-104667000D01*
X124679845Y-104667000D01*
X124558524Y-104896890D01*
X123457167Y-104896890D01*
X125139330Y-103214727D01*
X125170986Y-103240706D01*
X125235523Y-103275201D01*
X125118645Y-103344822D01*
X124902412Y-103539731D01*
X124728359Y-103773080D01*
X124603175Y-104035901D01*
X124558524Y-104183110D01*
X124679845Y-104413000D01*
X125873000Y-104413000D01*
X125873000Y-104393000D01*
X126127000Y-104393000D01*
X126127000Y-104413000D01*
X127320155Y-104413000D01*
X127441476Y-104183110D01*
X127396825Y-104035901D01*
X127271641Y-103773080D01*
X127097588Y-103539731D01*
X126881355Y-103344822D01*
X126764477Y-103275201D01*
X126829014Y-103240706D01*
X127055134Y-103055134D01*
X127240706Y-102829014D01*
X127378599Y-102571034D01*
X127463513Y-102291111D01*
X127492185Y-102000000D01*
X127463513Y-101708889D01*
X127378599Y-101428966D01*
X127240706Y-101170986D01*
X127055134Y-100944866D01*
X127025313Y-100920393D01*
X127094180Y-100899502D01*
X127204494Y-100840537D01*
X127301185Y-100761185D01*
X127380537Y-100664494D01*
X127439502Y-100554180D01*
X127475812Y-100434482D01*
X127488072Y-100310000D01*
X127488072Y-98610000D01*
X127475812Y-98485518D01*
X127439502Y-98365820D01*
X127380537Y-98255506D01*
X127301185Y-98158815D01*
X127204494Y-98079463D01*
X127094180Y-98020498D01*
X126974482Y-97984188D01*
X126850000Y-97971928D01*
X125150000Y-97971928D01*
X125025518Y-97984188D01*
X124905820Y-98020498D01*
X124795506Y-98079463D01*
X124698815Y-98158815D01*
X124619463Y-98255506D01*
X124560498Y-98365820D01*
X124524188Y-98485518D01*
X124511928Y-98610000D01*
X124511928Y-98726972D01*
X124497840Y-98731246D01*
X124361467Y-98804138D01*
X124301259Y-98853550D01*
X124271887Y-98877655D01*
X124271884Y-98877658D01*
X124241936Y-98902236D01*
X124217358Y-98932184D01*
X121783443Y-101366100D01*
X118049658Y-101366100D01*
X117059447Y-100375890D01*
X117034864Y-100345936D01*
X116915333Y-100247838D01*
X116778960Y-100174946D01*
X116630987Y-100130059D01*
X116515661Y-100118700D01*
X116515653Y-100118700D01*
X116477100Y-100114903D01*
X116438547Y-100118700D01*
X109385156Y-100118700D01*
X109346600Y-100114903D01*
X109308045Y-100118700D01*
X109308039Y-100118700D01*
X109263649Y-100123072D01*
X109228393Y-100126544D01*
X109130608Y-100007392D01*
X109114337Y-99994039D01*
X109262135Y-99830330D01*
X109402524Y-99595068D01*
X109492220Y-99343070D01*
X109369720Y-99127000D01*
X108127000Y-99127000D01*
X108127000Y-99147000D01*
X107873000Y-99147000D01*
X107873000Y-99127000D01*
X106630280Y-99127000D01*
X106507780Y-99343070D01*
X106597476Y-99595068D01*
X106737865Y-99830330D01*
X106885663Y-99994039D01*
X106869392Y-100007392D01*
X106694817Y-100220113D01*
X106565096Y-100462805D01*
X106485214Y-100726140D01*
X106458241Y-101000000D01*
X100660000Y-101000000D01*
X100660000Y-98656930D01*
X106507780Y-98656930D01*
X106630280Y-98873000D01*
X107873000Y-98873000D01*
X107873000Y-97761251D01*
X108127000Y-97761251D01*
X108127000Y-98873000D01*
X109369720Y-98873000D01*
X109492220Y-98656930D01*
X109402524Y-98404932D01*
X109262135Y-98169670D01*
X109078546Y-97966317D01*
X108858812Y-97802688D01*
X108611378Y-97685071D01*
X108345752Y-97617986D01*
X108127000Y-97761251D01*
X107873000Y-97761251D01*
X107654248Y-97617986D01*
X107388622Y-97685071D01*
X107141188Y-97802688D01*
X106921454Y-97966317D01*
X106737865Y-98169670D01*
X106597476Y-98404932D01*
X106507780Y-98656930D01*
X100660000Y-98656930D01*
X100660000Y-92779872D01*
X100765000Y-92779872D01*
X100765000Y-93220128D01*
X100850890Y-93651925D01*
X101019369Y-94058669D01*
X101263962Y-94424729D01*
X101575271Y-94736038D01*
X101941331Y-94980631D01*
X102348075Y-95149110D01*
X102779872Y-95235000D01*
X103220128Y-95235000D01*
X103651925Y-95149110D01*
X104058669Y-94980631D01*
X104424729Y-94736038D01*
X104736038Y-94424729D01*
X104980631Y-94058669D01*
X105149110Y-93651925D01*
X105235000Y-93220128D01*
X105235000Y-92779872D01*
X105149110Y-92348075D01*
X104980631Y-91941331D01*
X104736038Y-91575271D01*
X104424729Y-91263962D01*
X104058669Y-91019369D01*
X103651925Y-90850890D01*
X103220128Y-90765000D01*
X102779872Y-90765000D01*
X102348075Y-90850890D01*
X101941331Y-91019369D01*
X101575271Y-91263962D01*
X101263962Y-91575271D01*
X101019369Y-91941331D01*
X100850890Y-92348075D01*
X100765000Y-92779872D01*
X100660000Y-92779872D01*
X100660000Y-91032279D01*
X100669580Y-90934576D01*
X100688580Y-90871644D01*
X100719445Y-90813595D01*
X100760989Y-90762657D01*
X100811644Y-90720752D01*
X100869471Y-90689485D01*
X100932272Y-90670044D01*
X101027835Y-90660000D01*
X128967721Y-90660000D01*
X129065424Y-90669580D01*
X129065424Y-90669580D01*
G37*
X129065424Y-90669580D02*
X129128356Y-90688580D01*
X129186405Y-90719445D01*
X129237343Y-90760989D01*
X129279248Y-90811644D01*
X129310515Y-90869471D01*
X129329956Y-90932272D01*
X129340001Y-91027845D01*
X129340000Y-113967721D01*
X129330420Y-114065424D01*
X129311420Y-114128357D01*
X129280554Y-114186406D01*
X129239011Y-114237343D01*
X129188356Y-114279248D01*
X129130529Y-114310515D01*
X129067728Y-114329956D01*
X128972165Y-114340000D01*
X101032279Y-114340000D01*
X100934576Y-114330420D01*
X100871643Y-114311420D01*
X100813594Y-114280554D01*
X100762657Y-114239011D01*
X100720752Y-114188356D01*
X100689485Y-114130529D01*
X100670044Y-114067728D01*
X100660000Y-113972165D01*
X100660000Y-111779872D01*
X100765000Y-111779872D01*
X100765000Y-112220128D01*
X100850890Y-112651925D01*
X101019369Y-113058669D01*
X101263962Y-113424729D01*
X101575271Y-113736038D01*
X101941331Y-113980631D01*
X102348075Y-114149110D01*
X102779872Y-114235000D01*
X103220128Y-114235000D01*
X103651925Y-114149110D01*
X104058669Y-113980631D01*
X104424729Y-113736038D01*
X104736038Y-113424729D01*
X104980631Y-113058669D01*
X105149110Y-112651925D01*
X105235000Y-112220128D01*
X105235000Y-111779872D01*
X105149110Y-111348075D01*
X104980631Y-110941331D01*
X104736038Y-110575271D01*
X104424729Y-110263962D01*
X104058669Y-110019369D01*
X103651925Y-109850890D01*
X103220128Y-109765000D01*
X102779872Y-109765000D01*
X102348075Y-109850890D01*
X101941331Y-110019369D01*
X101575271Y-110263962D01*
X101263962Y-110575271D01*
X101019369Y-110941331D01*
X100850890Y-111348075D01*
X100765000Y-111779872D01*
X100660000Y-111779872D01*
X100660000Y-101000000D01*
X106458241Y-101000000D01*
X106485214Y-101273860D01*
X106565096Y-101537195D01*
X106694817Y-101779887D01*
X106869392Y-101992608D01*
X106878399Y-102000000D01*
X106869392Y-102007392D01*
X106694817Y-102220113D01*
X106565096Y-102462805D01*
X106485214Y-102726140D01*
X106458241Y-103000000D01*
X106485214Y-103273860D01*
X106565096Y-103537195D01*
X106694817Y-103779887D01*
X106869392Y-103992608D01*
X106878399Y-104000000D01*
X106869392Y-104007392D01*
X106694817Y-104220113D01*
X106565096Y-104462805D01*
X106485214Y-104726140D01*
X106458241Y-105000000D01*
X106485214Y-105273860D01*
X106565096Y-105537195D01*
X106694817Y-105779887D01*
X106869392Y-105992608D01*
X107082113Y-106167183D01*
X107324805Y-106296904D01*
X107588140Y-106376786D01*
X107793375Y-106397000D01*
X108206625Y-106397000D01*
X108411860Y-106376786D01*
X108675195Y-106296904D01*
X108917887Y-106167183D01*
X109130608Y-105992608D01*
X109305183Y-105779887D01*
X109434904Y-105537195D01*
X109514786Y-105273860D01*
X109541759Y-105000000D01*
X109514786Y-104726140D01*
X109434904Y-104462805D01*
X109305183Y-104220113D01*
X109130608Y-104007392D01*
X109121601Y-104000000D01*
X109130608Y-103992608D01*
X109305183Y-103779887D01*
X109434904Y-103537195D01*
X109514786Y-103273860D01*
X109541759Y-103000000D01*
X109514786Y-102726140D01*
X109434904Y-102462805D01*
X109305183Y-102220113D01*
X109130608Y-102007392D01*
X109121601Y-102000000D01*
X109130608Y-101992608D01*
X109302053Y-101783701D01*
X109404187Y-101773641D01*
X109552160Y-101728754D01*
X109627097Y-101688700D01*
X116151943Y-101688700D01*
X116939500Y-102476258D01*
X116939501Y-105193288D01*
X116920563Y-105212226D01*
X116807295Y-105381744D01*
X116729274Y-105570102D01*
X116689500Y-105770061D01*
X116689500Y-105973939D01*
X116729274Y-106173898D01*
X116807295Y-106362256D01*
X116920563Y-106531774D01*
X117064726Y-106675937D01*
X117234244Y-106789205D01*
X117422602Y-106867226D01*
X117622561Y-106907000D01*
X117826439Y-106907000D01*
X118026398Y-106867226D01*
X118214756Y-106789205D01*
X118384274Y-106675937D01*
X118528437Y-106531774D01*
X118641705Y-106362256D01*
X118719726Y-106173898D01*
X118759500Y-105973939D01*
X118759500Y-105770061D01*
X118719726Y-105570102D01*
X118641705Y-105381744D01*
X118528437Y-105212226D01*
X118509500Y-105193289D01*
X118509500Y-102936100D01*
X122070047Y-102936100D01*
X122108600Y-102939897D01*
X122147153Y-102936100D01*
X122147161Y-102936100D01*
X122262487Y-102924741D01*
X122410460Y-102879854D01*
X122546833Y-102806962D01*
X122666364Y-102708864D01*
X122690947Y-102678910D01*
X124658183Y-100711675D01*
X124698815Y-100761185D01*
X124795506Y-100840537D01*
X124905820Y-100899502D01*
X124974687Y-100920393D01*
X124944866Y-100944866D01*
X124759294Y-101170986D01*
X124621401Y-101428966D01*
X124585096Y-101548647D01*
X121068743Y-105065000D01*
X121041961Y-105065000D01*
X120842002Y-105104774D01*
X120653644Y-105182795D01*
X120484126Y-105296063D01*
X120339963Y-105440226D01*
X120226695Y-105609744D01*
X120148674Y-105798102D01*
X120108900Y-105998061D01*
X120108900Y-106201939D01*
X120148674Y-106401898D01*
X120226695Y-106590256D01*
X120339963Y-106759774D01*
X120484126Y-106903937D01*
X120653644Y-107017205D01*
X120842002Y-107095226D01*
X121041961Y-107135000D01*
X121245839Y-107135000D01*
X121445798Y-107095226D01*
X121634156Y-107017205D01*
X121803674Y-106903937D01*
X121947837Y-106759774D01*
X122061105Y-106590256D01*
X122139126Y-106401898D01*
X122178900Y-106201939D01*
X122178900Y-106175157D01*
X123457167Y-104896890D01*
X124558524Y-104896890D01*
X124603175Y-105044099D01*
X124728359Y-105306920D01*
X124902412Y-105540269D01*
X125118645Y-105735178D01*
X125368748Y-105884157D01*
X125643109Y-105981481D01*
X125873000Y-105860814D01*
X125873000Y-104667000D01*
X126127000Y-104667000D01*
X126127000Y-105860814D01*
X126356891Y-105981481D01*
X126631252Y-105884157D01*
X126881355Y-105735178D01*
X127097588Y-105540269D01*
X127271641Y-105306920D01*
X127396825Y-105044099D01*
X127441476Y-104896890D01*
X127320155Y-104667000D01*
X126127000Y-104667000D01*
X125873000Y-104667000D01*
X124679845Y-104667000D01*
X124558524Y-104896890D01*
X123457167Y-104896890D01*
X125139330Y-103214727D01*
X125170986Y-103240706D01*
X125235523Y-103275201D01*
X125118645Y-103344822D01*
X124902412Y-103539731D01*
X124728359Y-103773080D01*
X124603175Y-104035901D01*
X124558524Y-104183110D01*
X124679845Y-104413000D01*
X125873000Y-104413000D01*
X125873000Y-104393000D01*
X126127000Y-104393000D01*
X126127000Y-104413000D01*
X127320155Y-104413000D01*
X127441476Y-104183110D01*
X127396825Y-104035901D01*
X127271641Y-103773080D01*
X127097588Y-103539731D01*
X126881355Y-103344822D01*
X126764477Y-103275201D01*
X126829014Y-103240706D01*
X127055134Y-103055134D01*
X127240706Y-102829014D01*
X127378599Y-102571034D01*
X127463513Y-102291111D01*
X127492185Y-102000000D01*
X127463513Y-101708889D01*
X127378599Y-101428966D01*
X127240706Y-101170986D01*
X127055134Y-100944866D01*
X127025313Y-100920393D01*
X127094180Y-100899502D01*
X127204494Y-100840537D01*
X127301185Y-100761185D01*
X127380537Y-100664494D01*
X127439502Y-100554180D01*
X127475812Y-100434482D01*
X127488072Y-100310000D01*
X127488072Y-98610000D01*
X127475812Y-98485518D01*
X127439502Y-98365820D01*
X127380537Y-98255506D01*
X127301185Y-98158815D01*
X127204494Y-98079463D01*
X127094180Y-98020498D01*
X126974482Y-97984188D01*
X126850000Y-97971928D01*
X125150000Y-97971928D01*
X125025518Y-97984188D01*
X124905820Y-98020498D01*
X124795506Y-98079463D01*
X124698815Y-98158815D01*
X124619463Y-98255506D01*
X124560498Y-98365820D01*
X124524188Y-98485518D01*
X124511928Y-98610000D01*
X124511928Y-98726972D01*
X124497840Y-98731246D01*
X124361467Y-98804138D01*
X124301259Y-98853550D01*
X124271887Y-98877655D01*
X124271884Y-98877658D01*
X124241936Y-98902236D01*
X124217358Y-98932184D01*
X121783443Y-101366100D01*
X118049658Y-101366100D01*
X117059447Y-100375890D01*
X117034864Y-100345936D01*
X116915333Y-100247838D01*
X116778960Y-100174946D01*
X116630987Y-100130059D01*
X116515661Y-100118700D01*
X116515653Y-100118700D01*
X116477100Y-100114903D01*
X116438547Y-100118700D01*
X109385156Y-100118700D01*
X109346600Y-100114903D01*
X109308045Y-100118700D01*
X109308039Y-100118700D01*
X109263649Y-100123072D01*
X109228393Y-100126544D01*
X109130608Y-100007392D01*
X109114337Y-99994039D01*
X109262135Y-99830330D01*
X109402524Y-99595068D01*
X109492220Y-99343070D01*
X109369720Y-99127000D01*
X108127000Y-99127000D01*
X108127000Y-99147000D01*
X107873000Y-99147000D01*
X107873000Y-99127000D01*
X106630280Y-99127000D01*
X106507780Y-99343070D01*
X106597476Y-99595068D01*
X106737865Y-99830330D01*
X106885663Y-99994039D01*
X106869392Y-100007392D01*
X106694817Y-100220113D01*
X106565096Y-100462805D01*
X106485214Y-100726140D01*
X106458241Y-101000000D01*
X100660000Y-101000000D01*
X100660000Y-98656930D01*
X106507780Y-98656930D01*
X106630280Y-98873000D01*
X107873000Y-98873000D01*
X107873000Y-97761251D01*
X108127000Y-97761251D01*
X108127000Y-98873000D01*
X109369720Y-98873000D01*
X109492220Y-98656930D01*
X109402524Y-98404932D01*
X109262135Y-98169670D01*
X109078546Y-97966317D01*
X108858812Y-97802688D01*
X108611378Y-97685071D01*
X108345752Y-97617986D01*
X108127000Y-97761251D01*
X107873000Y-97761251D01*
X107654248Y-97617986D01*
X107388622Y-97685071D01*
X107141188Y-97802688D01*
X106921454Y-97966317D01*
X106737865Y-98169670D01*
X106597476Y-98404932D01*
X106507780Y-98656930D01*
X100660000Y-98656930D01*
X100660000Y-92779872D01*
X100765000Y-92779872D01*
X100765000Y-93220128D01*
X100850890Y-93651925D01*
X101019369Y-94058669D01*
X101263962Y-94424729D01*
X101575271Y-94736038D01*
X101941331Y-94980631D01*
X102348075Y-95149110D01*
X102779872Y-95235000D01*
X103220128Y-95235000D01*
X103651925Y-95149110D01*
X104058669Y-94980631D01*
X104424729Y-94736038D01*
X104736038Y-94424729D01*
X104980631Y-94058669D01*
X105149110Y-93651925D01*
X105235000Y-93220128D01*
X105235000Y-92779872D01*
X105149110Y-92348075D01*
X104980631Y-91941331D01*
X104736038Y-91575271D01*
X104424729Y-91263962D01*
X104058669Y-91019369D01*
X103651925Y-90850890D01*
X103220128Y-90765000D01*
X102779872Y-90765000D01*
X102348075Y-90850890D01*
X101941331Y-91019369D01*
X101575271Y-91263962D01*
X101263962Y-91575271D01*
X101019369Y-91941331D01*
X100850890Y-92348075D01*
X100765000Y-92779872D01*
X100660000Y-92779872D01*
X100660000Y-91032279D01*
X100669580Y-90934576D01*
X100688580Y-90871644D01*
X100719445Y-90813595D01*
X100760989Y-90762657D01*
X100811644Y-90720752D01*
X100869471Y-90689485D01*
X100932272Y-90670044D01*
X101027835Y-90660000D01*
X128967721Y-90660000D01*
X129065424Y-90669580D01*
M02*
