G04 #@! TF.GenerationSoftware,KiCad,Pcbnew,(5.1.2)-1*
G04 #@! TF.CreationDate,2022-08-21T12:43:38+09:00*
G04 #@! TF.ProjectId,conv,636f6e76-2e6b-4696-9361-645f70636258,v1.1*
G04 #@! TF.SameCoordinates,Original*
G04 #@! TF.FileFunction,Soldermask,Bot*
G04 #@! TF.FilePolarity,Negative*
%FSLAX46Y46*%
G04 Gerber Fmt 4.6, Leading zero omitted, Abs format (unit mm)*
G04 Created by KiCad (PCBNEW (5.1.2)-1) date 2022-08-21 12:43:38*
%MOMM*%
%LPD*%
G04 APERTURE LIST*
%ADD10C,0.100000*%
G04 APERTURE END LIST*
D10*
G36*
X103375256Y-110391298D02*
G01*
X103481579Y-110412447D01*
X103782042Y-110536903D01*
X104052451Y-110717585D01*
X104282415Y-110947549D01*
X104463097Y-111217958D01*
X104587553Y-111518421D01*
X104651000Y-111837391D01*
X104651000Y-112162609D01*
X104587553Y-112481579D01*
X104463097Y-112782042D01*
X104282415Y-113052451D01*
X104052451Y-113282415D01*
X103782042Y-113463097D01*
X103481579Y-113587553D01*
X103375256Y-113608702D01*
X103162611Y-113651000D01*
X102837389Y-113651000D01*
X102624744Y-113608702D01*
X102518421Y-113587553D01*
X102217958Y-113463097D01*
X101947549Y-113282415D01*
X101717585Y-113052451D01*
X101536903Y-112782042D01*
X101412447Y-112481579D01*
X101349000Y-112162609D01*
X101349000Y-111837391D01*
X101412447Y-111518421D01*
X101536903Y-111217958D01*
X101717585Y-110947549D01*
X101947549Y-110717585D01*
X102217958Y-110536903D01*
X102518421Y-110412447D01*
X102624744Y-110391298D01*
X102837389Y-110349000D01*
X103162611Y-110349000D01*
X103375256Y-110391298D01*
X103375256Y-110391298D01*
G37*
G36*
X108217747Y-104190921D02*
G01*
X108297376Y-104198764D01*
X108450627Y-104245252D01*
X108450630Y-104245253D01*
X108591863Y-104320744D01*
X108715659Y-104422341D01*
X108817256Y-104546137D01*
X108892747Y-104687370D01*
X108892748Y-104687373D01*
X108939236Y-104840624D01*
X108954933Y-105000000D01*
X108939236Y-105159376D01*
X108932923Y-105180186D01*
X108892747Y-105312630D01*
X108817256Y-105453863D01*
X108715659Y-105577659D01*
X108591863Y-105679256D01*
X108450630Y-105754747D01*
X108450627Y-105754748D01*
X108297376Y-105801236D01*
X108217747Y-105809079D01*
X108177934Y-105813000D01*
X107822066Y-105813000D01*
X107782253Y-105809079D01*
X107702624Y-105801236D01*
X107549373Y-105754748D01*
X107549370Y-105754747D01*
X107408137Y-105679256D01*
X107284341Y-105577659D01*
X107182744Y-105453863D01*
X107107253Y-105312630D01*
X107067077Y-105180186D01*
X107060764Y-105159376D01*
X107045067Y-105000000D01*
X107060764Y-104840624D01*
X107107252Y-104687373D01*
X107107253Y-104687370D01*
X107182744Y-104546137D01*
X107284341Y-104422341D01*
X107408137Y-104320744D01*
X107549370Y-104245253D01*
X107549373Y-104245252D01*
X107702624Y-104198764D01*
X107782253Y-104190921D01*
X107822066Y-104187000D01*
X108177934Y-104187000D01*
X108217747Y-104190921D01*
X108217747Y-104190921D01*
G37*
G36*
X126110442Y-103645518D02*
G01*
X126176627Y-103652037D01*
X126346466Y-103703557D01*
X126502991Y-103787222D01*
X126520067Y-103801236D01*
X126640186Y-103899814D01*
X126723448Y-104001271D01*
X126752778Y-104037009D01*
X126752779Y-104037011D01*
X126832951Y-104187000D01*
X126836443Y-104193534D01*
X126887963Y-104363373D01*
X126905359Y-104540000D01*
X126887963Y-104716627D01*
X126836443Y-104886466D01*
X126752778Y-105042991D01*
X126723448Y-105078729D01*
X126640186Y-105180186D01*
X126538729Y-105263448D01*
X126502991Y-105292778D01*
X126346466Y-105376443D01*
X126176627Y-105427963D01*
X126110443Y-105434481D01*
X126044260Y-105441000D01*
X125955740Y-105441000D01*
X125889557Y-105434481D01*
X125823373Y-105427963D01*
X125653534Y-105376443D01*
X125497009Y-105292778D01*
X125461271Y-105263448D01*
X125359814Y-105180186D01*
X125276552Y-105078729D01*
X125247222Y-105042991D01*
X125163557Y-104886466D01*
X125112037Y-104716627D01*
X125094641Y-104540000D01*
X125112037Y-104363373D01*
X125163557Y-104193534D01*
X125167050Y-104187000D01*
X125247221Y-104037011D01*
X125247222Y-104037009D01*
X125276552Y-104001271D01*
X125359814Y-103899814D01*
X125479933Y-103801236D01*
X125497009Y-103787222D01*
X125653534Y-103703557D01*
X125823373Y-103652037D01*
X125889558Y-103645518D01*
X125955740Y-103639000D01*
X126044260Y-103639000D01*
X126110442Y-103645518D01*
X126110442Y-103645518D01*
G37*
G36*
X108217747Y-102190921D02*
G01*
X108297376Y-102198764D01*
X108450627Y-102245252D01*
X108450630Y-102245253D01*
X108591863Y-102320744D01*
X108715659Y-102422341D01*
X108817256Y-102546137D01*
X108892747Y-102687370D01*
X108892748Y-102687373D01*
X108939236Y-102840624D01*
X108954933Y-103000000D01*
X108939236Y-103159376D01*
X108892748Y-103312627D01*
X108892747Y-103312630D01*
X108817256Y-103453863D01*
X108715659Y-103577659D01*
X108591863Y-103679256D01*
X108450630Y-103754747D01*
X108450627Y-103754748D01*
X108297376Y-103801236D01*
X108217747Y-103809079D01*
X108177934Y-103813000D01*
X107822066Y-103813000D01*
X107782253Y-103809079D01*
X107702624Y-103801236D01*
X107549373Y-103754748D01*
X107549370Y-103754747D01*
X107408137Y-103679256D01*
X107284341Y-103577659D01*
X107182744Y-103453863D01*
X107107253Y-103312630D01*
X107107252Y-103312627D01*
X107060764Y-103159376D01*
X107045067Y-103000000D01*
X107060764Y-102840624D01*
X107107252Y-102687373D01*
X107107253Y-102687370D01*
X107182744Y-102546137D01*
X107284341Y-102422341D01*
X107408137Y-102320744D01*
X107549370Y-102245253D01*
X107549373Y-102245252D01*
X107702624Y-102198764D01*
X107782253Y-102190921D01*
X107822066Y-102187000D01*
X108177934Y-102187000D01*
X108217747Y-102190921D01*
X108217747Y-102190921D01*
G37*
G36*
X126110442Y-101105518D02*
G01*
X126176627Y-101112037D01*
X126346466Y-101163557D01*
X126502991Y-101247222D01*
X126538729Y-101276552D01*
X126640186Y-101359814D01*
X126717369Y-101453863D01*
X126752778Y-101497009D01*
X126836443Y-101653534D01*
X126887963Y-101823373D01*
X126905359Y-102000000D01*
X126887963Y-102176627D01*
X126836443Y-102346466D01*
X126752778Y-102502991D01*
X126723448Y-102538729D01*
X126640186Y-102640186D01*
X126538729Y-102723448D01*
X126502991Y-102752778D01*
X126346466Y-102836443D01*
X126176627Y-102887963D01*
X126110443Y-102894481D01*
X126044260Y-102901000D01*
X125955740Y-102901000D01*
X125889558Y-102894482D01*
X125823373Y-102887963D01*
X125653534Y-102836443D01*
X125497009Y-102752778D01*
X125461271Y-102723448D01*
X125359814Y-102640186D01*
X125276552Y-102538729D01*
X125247222Y-102502991D01*
X125163557Y-102346466D01*
X125112037Y-102176627D01*
X125094641Y-102000000D01*
X125112037Y-101823373D01*
X125163557Y-101653534D01*
X125247222Y-101497009D01*
X125282631Y-101453863D01*
X125359814Y-101359814D01*
X125461271Y-101276552D01*
X125497009Y-101247222D01*
X125653534Y-101163557D01*
X125823373Y-101112037D01*
X125889558Y-101105518D01*
X125955740Y-101099000D01*
X126044260Y-101099000D01*
X126110442Y-101105518D01*
X126110442Y-101105518D01*
G37*
G36*
X108217747Y-100190921D02*
G01*
X108297376Y-100198764D01*
X108450627Y-100245252D01*
X108450630Y-100245253D01*
X108591863Y-100320744D01*
X108715659Y-100422341D01*
X108817256Y-100546137D01*
X108892747Y-100687370D01*
X108892748Y-100687373D01*
X108939236Y-100840624D01*
X108954933Y-101000000D01*
X108939236Y-101159376D01*
X108912588Y-101247222D01*
X108892747Y-101312630D01*
X108817256Y-101453863D01*
X108715659Y-101577659D01*
X108591863Y-101679256D01*
X108450630Y-101754747D01*
X108450627Y-101754748D01*
X108297376Y-101801236D01*
X108217747Y-101809079D01*
X108177934Y-101813000D01*
X107822066Y-101813000D01*
X107782253Y-101809079D01*
X107702624Y-101801236D01*
X107549373Y-101754748D01*
X107549370Y-101754747D01*
X107408137Y-101679256D01*
X107284341Y-101577659D01*
X107182744Y-101453863D01*
X107107253Y-101312630D01*
X107087412Y-101247222D01*
X107060764Y-101159376D01*
X107045067Y-101000000D01*
X107060764Y-100840624D01*
X107107252Y-100687373D01*
X107107253Y-100687370D01*
X107182744Y-100546137D01*
X107284341Y-100422341D01*
X107408137Y-100320744D01*
X107549370Y-100245253D01*
X107549373Y-100245252D01*
X107702624Y-100198764D01*
X107782253Y-100190921D01*
X107822066Y-100187000D01*
X108177934Y-100187000D01*
X108217747Y-100190921D01*
X108217747Y-100190921D01*
G37*
G36*
X126901000Y-100361000D02*
G01*
X125099000Y-100361000D01*
X125099000Y-98559000D01*
X126901000Y-98559000D01*
X126901000Y-100361000D01*
X126901000Y-100361000D01*
G37*
G36*
X108217747Y-98190921D02*
G01*
X108297376Y-98198764D01*
X108450627Y-98245252D01*
X108450630Y-98245253D01*
X108591863Y-98320744D01*
X108715659Y-98422341D01*
X108817256Y-98546137D01*
X108892747Y-98687370D01*
X108892748Y-98687373D01*
X108939236Y-98840624D01*
X108954933Y-99000000D01*
X108939236Y-99159376D01*
X108892748Y-99312627D01*
X108892747Y-99312630D01*
X108817256Y-99453863D01*
X108715659Y-99577659D01*
X108591863Y-99679256D01*
X108450630Y-99754747D01*
X108450627Y-99754748D01*
X108297376Y-99801236D01*
X108217747Y-99809079D01*
X108177934Y-99813000D01*
X107822066Y-99813000D01*
X107782253Y-99809079D01*
X107702624Y-99801236D01*
X107549373Y-99754748D01*
X107549370Y-99754747D01*
X107408137Y-99679256D01*
X107284341Y-99577659D01*
X107182744Y-99453863D01*
X107107253Y-99312630D01*
X107107252Y-99312627D01*
X107060764Y-99159376D01*
X107045067Y-99000000D01*
X107060764Y-98840624D01*
X107107252Y-98687373D01*
X107107253Y-98687370D01*
X107182744Y-98546137D01*
X107284341Y-98422341D01*
X107408137Y-98320744D01*
X107549370Y-98245253D01*
X107549373Y-98245252D01*
X107702624Y-98198764D01*
X107782253Y-98190921D01*
X107822066Y-98187000D01*
X108177934Y-98187000D01*
X108217747Y-98190921D01*
X108217747Y-98190921D01*
G37*
G36*
X103375256Y-91391298D02*
G01*
X103481579Y-91412447D01*
X103782042Y-91536903D01*
X104052451Y-91717585D01*
X104282415Y-91947549D01*
X104463097Y-92217958D01*
X104587553Y-92518421D01*
X104651000Y-92837391D01*
X104651000Y-93162609D01*
X104587553Y-93481579D01*
X104463097Y-93782042D01*
X104282415Y-94052451D01*
X104052451Y-94282415D01*
X103782042Y-94463097D01*
X103481579Y-94587553D01*
X103375256Y-94608702D01*
X103162611Y-94651000D01*
X102837389Y-94651000D01*
X102624744Y-94608702D01*
X102518421Y-94587553D01*
X102217958Y-94463097D01*
X101947549Y-94282415D01*
X101717585Y-94052451D01*
X101536903Y-93782042D01*
X101412447Y-93481579D01*
X101349000Y-93162609D01*
X101349000Y-92837391D01*
X101412447Y-92518421D01*
X101536903Y-92217958D01*
X101717585Y-91947549D01*
X101947549Y-91717585D01*
X102217958Y-91536903D01*
X102518421Y-91412447D01*
X102624744Y-91391298D01*
X102837389Y-91349000D01*
X103162611Y-91349000D01*
X103375256Y-91391298D01*
X103375256Y-91391298D01*
G37*
M02*
