G04 #@! TF.GenerationSoftware,KiCad,Pcbnew,(5.1.2)-1*
G04 #@! TF.CreationDate,2022-08-21T12:43:38+09:00*
G04 #@! TF.ProjectId,conv,636f6e76-2e6b-4696-9361-645f70636258,v1.1*
G04 #@! TF.SameCoordinates,Original*
G04 #@! TF.FileFunction,Copper,L1,Top*
G04 #@! TF.FilePolarity,Positive*
%FSLAX46Y46*%
G04 Gerber Fmt 4.6, Leading zero omitted, Abs format (unit mm)*
G04 Created by KiCad (PCBNEW (5.1.2)-1) date 2022-08-21 12:43:38*
%MOMM*%
%LPD*%
G04 APERTURE LIST*
%ADD10C,0.100000*%
%ADD11C,0.875000*%
%ADD12R,0.800000X0.900000*%
%ADD13R,1.300000X2.500000*%
%ADD14R,0.500000X0.450000*%
%ADD15R,1.060000X0.650000*%
%ADD16O,1.700000X1.700000*%
%ADD17R,1.700000X1.700000*%
%ADD18O,1.800000X1.524000*%
%ADD19C,0.975000*%
%ADD20C,0.800000*%
%ADD21C,0.300000*%
%ADD22C,0.254000*%
G04 APERTURE END LIST*
D10*
G36*
X125215691Y-112226053D02*
G01*
X125236926Y-112229203D01*
X125257750Y-112234419D01*
X125277962Y-112241651D01*
X125297368Y-112250830D01*
X125315781Y-112261866D01*
X125333024Y-112274654D01*
X125348930Y-112289070D01*
X125363346Y-112304976D01*
X125376134Y-112322219D01*
X125387170Y-112340632D01*
X125396349Y-112360038D01*
X125403581Y-112380250D01*
X125408797Y-112401074D01*
X125411947Y-112422309D01*
X125413000Y-112443750D01*
X125413000Y-112956250D01*
X125411947Y-112977691D01*
X125408797Y-112998926D01*
X125403581Y-113019750D01*
X125396349Y-113039962D01*
X125387170Y-113059368D01*
X125376134Y-113077781D01*
X125363346Y-113095024D01*
X125348930Y-113110930D01*
X125333024Y-113125346D01*
X125315781Y-113138134D01*
X125297368Y-113149170D01*
X125277962Y-113158349D01*
X125257750Y-113165581D01*
X125236926Y-113170797D01*
X125215691Y-113173947D01*
X125194250Y-113175000D01*
X124756750Y-113175000D01*
X124735309Y-113173947D01*
X124714074Y-113170797D01*
X124693250Y-113165581D01*
X124673038Y-113158349D01*
X124653632Y-113149170D01*
X124635219Y-113138134D01*
X124617976Y-113125346D01*
X124602070Y-113110930D01*
X124587654Y-113095024D01*
X124574866Y-113077781D01*
X124563830Y-113059368D01*
X124554651Y-113039962D01*
X124547419Y-113019750D01*
X124542203Y-112998926D01*
X124539053Y-112977691D01*
X124538000Y-112956250D01*
X124538000Y-112443750D01*
X124539053Y-112422309D01*
X124542203Y-112401074D01*
X124547419Y-112380250D01*
X124554651Y-112360038D01*
X124563830Y-112340632D01*
X124574866Y-112322219D01*
X124587654Y-112304976D01*
X124602070Y-112289070D01*
X124617976Y-112274654D01*
X124635219Y-112261866D01*
X124653632Y-112250830D01*
X124673038Y-112241651D01*
X124693250Y-112234419D01*
X124714074Y-112229203D01*
X124735309Y-112226053D01*
X124756750Y-112225000D01*
X125194250Y-112225000D01*
X125215691Y-112226053D01*
X125215691Y-112226053D01*
G37*
D11*
X124975500Y-112700000D03*
D10*
G36*
X123640691Y-112226053D02*
G01*
X123661926Y-112229203D01*
X123682750Y-112234419D01*
X123702962Y-112241651D01*
X123722368Y-112250830D01*
X123740781Y-112261866D01*
X123758024Y-112274654D01*
X123773930Y-112289070D01*
X123788346Y-112304976D01*
X123801134Y-112322219D01*
X123812170Y-112340632D01*
X123821349Y-112360038D01*
X123828581Y-112380250D01*
X123833797Y-112401074D01*
X123836947Y-112422309D01*
X123838000Y-112443750D01*
X123838000Y-112956250D01*
X123836947Y-112977691D01*
X123833797Y-112998926D01*
X123828581Y-113019750D01*
X123821349Y-113039962D01*
X123812170Y-113059368D01*
X123801134Y-113077781D01*
X123788346Y-113095024D01*
X123773930Y-113110930D01*
X123758024Y-113125346D01*
X123740781Y-113138134D01*
X123722368Y-113149170D01*
X123702962Y-113158349D01*
X123682750Y-113165581D01*
X123661926Y-113170797D01*
X123640691Y-113173947D01*
X123619250Y-113175000D01*
X123181750Y-113175000D01*
X123160309Y-113173947D01*
X123139074Y-113170797D01*
X123118250Y-113165581D01*
X123098038Y-113158349D01*
X123078632Y-113149170D01*
X123060219Y-113138134D01*
X123042976Y-113125346D01*
X123027070Y-113110930D01*
X123012654Y-113095024D01*
X122999866Y-113077781D01*
X122988830Y-113059368D01*
X122979651Y-113039962D01*
X122972419Y-113019750D01*
X122967203Y-112998926D01*
X122964053Y-112977691D01*
X122963000Y-112956250D01*
X122963000Y-112443750D01*
X122964053Y-112422309D01*
X122967203Y-112401074D01*
X122972419Y-112380250D01*
X122979651Y-112360038D01*
X122988830Y-112340632D01*
X122999866Y-112322219D01*
X123012654Y-112304976D01*
X123027070Y-112289070D01*
X123042976Y-112274654D01*
X123060219Y-112261866D01*
X123078632Y-112250830D01*
X123098038Y-112241651D01*
X123118250Y-112234419D01*
X123139074Y-112229203D01*
X123160309Y-112226053D01*
X123181750Y-112225000D01*
X123619250Y-112225000D01*
X123640691Y-112226053D01*
X123640691Y-112226053D01*
G37*
D11*
X123400500Y-112700000D03*
D10*
G36*
X122539691Y-92926053D02*
G01*
X122560926Y-92929203D01*
X122581750Y-92934419D01*
X122601962Y-92941651D01*
X122621368Y-92950830D01*
X122639781Y-92961866D01*
X122657024Y-92974654D01*
X122672930Y-92989070D01*
X122687346Y-93004976D01*
X122700134Y-93022219D01*
X122711170Y-93040632D01*
X122720349Y-93060038D01*
X122727581Y-93080250D01*
X122732797Y-93101074D01*
X122735947Y-93122309D01*
X122737000Y-93143750D01*
X122737000Y-93656250D01*
X122735947Y-93677691D01*
X122732797Y-93698926D01*
X122727581Y-93719750D01*
X122720349Y-93739962D01*
X122711170Y-93759368D01*
X122700134Y-93777781D01*
X122687346Y-93795024D01*
X122672930Y-93810930D01*
X122657024Y-93825346D01*
X122639781Y-93838134D01*
X122621368Y-93849170D01*
X122601962Y-93858349D01*
X122581750Y-93865581D01*
X122560926Y-93870797D01*
X122539691Y-93873947D01*
X122518250Y-93875000D01*
X122080750Y-93875000D01*
X122059309Y-93873947D01*
X122038074Y-93870797D01*
X122017250Y-93865581D01*
X121997038Y-93858349D01*
X121977632Y-93849170D01*
X121959219Y-93838134D01*
X121941976Y-93825346D01*
X121926070Y-93810930D01*
X121911654Y-93795024D01*
X121898866Y-93777781D01*
X121887830Y-93759368D01*
X121878651Y-93739962D01*
X121871419Y-93719750D01*
X121866203Y-93698926D01*
X121863053Y-93677691D01*
X121862000Y-93656250D01*
X121862000Y-93143750D01*
X121863053Y-93122309D01*
X121866203Y-93101074D01*
X121871419Y-93080250D01*
X121878651Y-93060038D01*
X121887830Y-93040632D01*
X121898866Y-93022219D01*
X121911654Y-93004976D01*
X121926070Y-92989070D01*
X121941976Y-92974654D01*
X121959219Y-92961866D01*
X121977632Y-92950830D01*
X121997038Y-92941651D01*
X122017250Y-92934419D01*
X122038074Y-92929203D01*
X122059309Y-92926053D01*
X122080750Y-92925000D01*
X122518250Y-92925000D01*
X122539691Y-92926053D01*
X122539691Y-92926053D01*
G37*
D11*
X122299500Y-93400000D03*
D10*
G36*
X120964691Y-92926053D02*
G01*
X120985926Y-92929203D01*
X121006750Y-92934419D01*
X121026962Y-92941651D01*
X121046368Y-92950830D01*
X121064781Y-92961866D01*
X121082024Y-92974654D01*
X121097930Y-92989070D01*
X121112346Y-93004976D01*
X121125134Y-93022219D01*
X121136170Y-93040632D01*
X121145349Y-93060038D01*
X121152581Y-93080250D01*
X121157797Y-93101074D01*
X121160947Y-93122309D01*
X121162000Y-93143750D01*
X121162000Y-93656250D01*
X121160947Y-93677691D01*
X121157797Y-93698926D01*
X121152581Y-93719750D01*
X121145349Y-93739962D01*
X121136170Y-93759368D01*
X121125134Y-93777781D01*
X121112346Y-93795024D01*
X121097930Y-93810930D01*
X121082024Y-93825346D01*
X121064781Y-93838134D01*
X121046368Y-93849170D01*
X121026962Y-93858349D01*
X121006750Y-93865581D01*
X120985926Y-93870797D01*
X120964691Y-93873947D01*
X120943250Y-93875000D01*
X120505750Y-93875000D01*
X120484309Y-93873947D01*
X120463074Y-93870797D01*
X120442250Y-93865581D01*
X120422038Y-93858349D01*
X120402632Y-93849170D01*
X120384219Y-93838134D01*
X120366976Y-93825346D01*
X120351070Y-93810930D01*
X120336654Y-93795024D01*
X120323866Y-93777781D01*
X120312830Y-93759368D01*
X120303651Y-93739962D01*
X120296419Y-93719750D01*
X120291203Y-93698926D01*
X120288053Y-93677691D01*
X120287000Y-93656250D01*
X120287000Y-93143750D01*
X120288053Y-93122309D01*
X120291203Y-93101074D01*
X120296419Y-93080250D01*
X120303651Y-93060038D01*
X120312830Y-93040632D01*
X120323866Y-93022219D01*
X120336654Y-93004976D01*
X120351070Y-92989070D01*
X120366976Y-92974654D01*
X120384219Y-92961866D01*
X120402632Y-92950830D01*
X120422038Y-92941651D01*
X120442250Y-92934419D01*
X120463074Y-92929203D01*
X120484309Y-92926053D01*
X120505750Y-92925000D01*
X120943250Y-92925000D01*
X120964691Y-92926053D01*
X120964691Y-92926053D01*
G37*
D11*
X120724500Y-93400000D03*
D10*
G36*
X124477691Y-91288553D02*
G01*
X124498926Y-91291703D01*
X124519750Y-91296919D01*
X124539962Y-91304151D01*
X124559368Y-91313330D01*
X124577781Y-91324366D01*
X124595024Y-91337154D01*
X124610930Y-91351570D01*
X124625346Y-91367476D01*
X124638134Y-91384719D01*
X124649170Y-91403132D01*
X124658349Y-91422538D01*
X124665581Y-91442750D01*
X124670797Y-91463574D01*
X124673947Y-91484809D01*
X124675000Y-91506250D01*
X124675000Y-91943750D01*
X124673947Y-91965191D01*
X124670797Y-91986426D01*
X124665581Y-92007250D01*
X124658349Y-92027462D01*
X124649170Y-92046868D01*
X124638134Y-92065281D01*
X124625346Y-92082524D01*
X124610930Y-92098430D01*
X124595024Y-92112846D01*
X124577781Y-92125634D01*
X124559368Y-92136670D01*
X124539962Y-92145849D01*
X124519750Y-92153081D01*
X124498926Y-92158297D01*
X124477691Y-92161447D01*
X124456250Y-92162500D01*
X123943750Y-92162500D01*
X123922309Y-92161447D01*
X123901074Y-92158297D01*
X123880250Y-92153081D01*
X123860038Y-92145849D01*
X123840632Y-92136670D01*
X123822219Y-92125634D01*
X123804976Y-92112846D01*
X123789070Y-92098430D01*
X123774654Y-92082524D01*
X123761866Y-92065281D01*
X123750830Y-92046868D01*
X123741651Y-92027462D01*
X123734419Y-92007250D01*
X123729203Y-91986426D01*
X123726053Y-91965191D01*
X123725000Y-91943750D01*
X123725000Y-91506250D01*
X123726053Y-91484809D01*
X123729203Y-91463574D01*
X123734419Y-91442750D01*
X123741651Y-91422538D01*
X123750830Y-91403132D01*
X123761866Y-91384719D01*
X123774654Y-91367476D01*
X123789070Y-91351570D01*
X123804976Y-91337154D01*
X123822219Y-91324366D01*
X123840632Y-91313330D01*
X123860038Y-91304151D01*
X123880250Y-91296919D01*
X123901074Y-91291703D01*
X123922309Y-91288553D01*
X123943750Y-91287500D01*
X124456250Y-91287500D01*
X124477691Y-91288553D01*
X124477691Y-91288553D01*
G37*
D11*
X124200000Y-91725000D03*
D10*
G36*
X124477691Y-92863553D02*
G01*
X124498926Y-92866703D01*
X124519750Y-92871919D01*
X124539962Y-92879151D01*
X124559368Y-92888330D01*
X124577781Y-92899366D01*
X124595024Y-92912154D01*
X124610930Y-92926570D01*
X124625346Y-92942476D01*
X124638134Y-92959719D01*
X124649170Y-92978132D01*
X124658349Y-92997538D01*
X124665581Y-93017750D01*
X124670797Y-93038574D01*
X124673947Y-93059809D01*
X124675000Y-93081250D01*
X124675000Y-93518750D01*
X124673947Y-93540191D01*
X124670797Y-93561426D01*
X124665581Y-93582250D01*
X124658349Y-93602462D01*
X124649170Y-93621868D01*
X124638134Y-93640281D01*
X124625346Y-93657524D01*
X124610930Y-93673430D01*
X124595024Y-93687846D01*
X124577781Y-93700634D01*
X124559368Y-93711670D01*
X124539962Y-93720849D01*
X124519750Y-93728081D01*
X124498926Y-93733297D01*
X124477691Y-93736447D01*
X124456250Y-93737500D01*
X123943750Y-93737500D01*
X123922309Y-93736447D01*
X123901074Y-93733297D01*
X123880250Y-93728081D01*
X123860038Y-93720849D01*
X123840632Y-93711670D01*
X123822219Y-93700634D01*
X123804976Y-93687846D01*
X123789070Y-93673430D01*
X123774654Y-93657524D01*
X123761866Y-93640281D01*
X123750830Y-93621868D01*
X123741651Y-93602462D01*
X123734419Y-93582250D01*
X123729203Y-93561426D01*
X123726053Y-93540191D01*
X123725000Y-93518750D01*
X123725000Y-93081250D01*
X123726053Y-93059809D01*
X123729203Y-93038574D01*
X123734419Y-93017750D01*
X123741651Y-92997538D01*
X123750830Y-92978132D01*
X123761866Y-92959719D01*
X123774654Y-92942476D01*
X123789070Y-92926570D01*
X123804976Y-92912154D01*
X123822219Y-92899366D01*
X123840632Y-92888330D01*
X123860038Y-92879151D01*
X123880250Y-92871919D01*
X123901074Y-92866703D01*
X123922309Y-92863553D01*
X123943750Y-92862500D01*
X124456250Y-92862500D01*
X124477691Y-92863553D01*
X124477691Y-92863553D01*
G37*
D11*
X124200000Y-93300000D03*
D10*
G36*
X122515691Y-91226053D02*
G01*
X122536926Y-91229203D01*
X122557750Y-91234419D01*
X122577962Y-91241651D01*
X122597368Y-91250830D01*
X122615781Y-91261866D01*
X122633024Y-91274654D01*
X122648930Y-91289070D01*
X122663346Y-91304976D01*
X122676134Y-91322219D01*
X122687170Y-91340632D01*
X122696349Y-91360038D01*
X122703581Y-91380250D01*
X122708797Y-91401074D01*
X122711947Y-91422309D01*
X122713000Y-91443750D01*
X122713000Y-91956250D01*
X122711947Y-91977691D01*
X122708797Y-91998926D01*
X122703581Y-92019750D01*
X122696349Y-92039962D01*
X122687170Y-92059368D01*
X122676134Y-92077781D01*
X122663346Y-92095024D01*
X122648930Y-92110930D01*
X122633024Y-92125346D01*
X122615781Y-92138134D01*
X122597368Y-92149170D01*
X122577962Y-92158349D01*
X122557750Y-92165581D01*
X122536926Y-92170797D01*
X122515691Y-92173947D01*
X122494250Y-92175000D01*
X122056750Y-92175000D01*
X122035309Y-92173947D01*
X122014074Y-92170797D01*
X121993250Y-92165581D01*
X121973038Y-92158349D01*
X121953632Y-92149170D01*
X121935219Y-92138134D01*
X121917976Y-92125346D01*
X121902070Y-92110930D01*
X121887654Y-92095024D01*
X121874866Y-92077781D01*
X121863830Y-92059368D01*
X121854651Y-92039962D01*
X121847419Y-92019750D01*
X121842203Y-91998926D01*
X121839053Y-91977691D01*
X121838000Y-91956250D01*
X121838000Y-91443750D01*
X121839053Y-91422309D01*
X121842203Y-91401074D01*
X121847419Y-91380250D01*
X121854651Y-91360038D01*
X121863830Y-91340632D01*
X121874866Y-91322219D01*
X121887654Y-91304976D01*
X121902070Y-91289070D01*
X121917976Y-91274654D01*
X121935219Y-91261866D01*
X121953632Y-91250830D01*
X121973038Y-91241651D01*
X121993250Y-91234419D01*
X122014074Y-91229203D01*
X122035309Y-91226053D01*
X122056750Y-91225000D01*
X122494250Y-91225000D01*
X122515691Y-91226053D01*
X122515691Y-91226053D01*
G37*
D11*
X122275500Y-91700000D03*
D10*
G36*
X120940691Y-91226053D02*
G01*
X120961926Y-91229203D01*
X120982750Y-91234419D01*
X121002962Y-91241651D01*
X121022368Y-91250830D01*
X121040781Y-91261866D01*
X121058024Y-91274654D01*
X121073930Y-91289070D01*
X121088346Y-91304976D01*
X121101134Y-91322219D01*
X121112170Y-91340632D01*
X121121349Y-91360038D01*
X121128581Y-91380250D01*
X121133797Y-91401074D01*
X121136947Y-91422309D01*
X121138000Y-91443750D01*
X121138000Y-91956250D01*
X121136947Y-91977691D01*
X121133797Y-91998926D01*
X121128581Y-92019750D01*
X121121349Y-92039962D01*
X121112170Y-92059368D01*
X121101134Y-92077781D01*
X121088346Y-92095024D01*
X121073930Y-92110930D01*
X121058024Y-92125346D01*
X121040781Y-92138134D01*
X121022368Y-92149170D01*
X121002962Y-92158349D01*
X120982750Y-92165581D01*
X120961926Y-92170797D01*
X120940691Y-92173947D01*
X120919250Y-92175000D01*
X120481750Y-92175000D01*
X120460309Y-92173947D01*
X120439074Y-92170797D01*
X120418250Y-92165581D01*
X120398038Y-92158349D01*
X120378632Y-92149170D01*
X120360219Y-92138134D01*
X120342976Y-92125346D01*
X120327070Y-92110930D01*
X120312654Y-92095024D01*
X120299866Y-92077781D01*
X120288830Y-92059368D01*
X120279651Y-92039962D01*
X120272419Y-92019750D01*
X120267203Y-91998926D01*
X120264053Y-91977691D01*
X120263000Y-91956250D01*
X120263000Y-91443750D01*
X120264053Y-91422309D01*
X120267203Y-91401074D01*
X120272419Y-91380250D01*
X120279651Y-91360038D01*
X120288830Y-91340632D01*
X120299866Y-91322219D01*
X120312654Y-91304976D01*
X120327070Y-91289070D01*
X120342976Y-91274654D01*
X120360219Y-91261866D01*
X120378632Y-91250830D01*
X120398038Y-91241651D01*
X120418250Y-91234419D01*
X120439074Y-91229203D01*
X120460309Y-91226053D01*
X120481750Y-91225000D01*
X120919250Y-91225000D01*
X120940691Y-91226053D01*
X120940691Y-91226053D01*
G37*
D11*
X120700500Y-91700000D03*
D10*
G36*
X119539691Y-106526053D02*
G01*
X119560926Y-106529203D01*
X119581750Y-106534419D01*
X119601962Y-106541651D01*
X119621368Y-106550830D01*
X119639781Y-106561866D01*
X119657024Y-106574654D01*
X119672930Y-106589070D01*
X119687346Y-106604976D01*
X119700134Y-106622219D01*
X119711170Y-106640632D01*
X119720349Y-106660038D01*
X119727581Y-106680250D01*
X119732797Y-106701074D01*
X119735947Y-106722309D01*
X119737000Y-106743750D01*
X119737000Y-107256250D01*
X119735947Y-107277691D01*
X119732797Y-107298926D01*
X119727581Y-107319750D01*
X119720349Y-107339962D01*
X119711170Y-107359368D01*
X119700134Y-107377781D01*
X119687346Y-107395024D01*
X119672930Y-107410930D01*
X119657024Y-107425346D01*
X119639781Y-107438134D01*
X119621368Y-107449170D01*
X119601962Y-107458349D01*
X119581750Y-107465581D01*
X119560926Y-107470797D01*
X119539691Y-107473947D01*
X119518250Y-107475000D01*
X119080750Y-107475000D01*
X119059309Y-107473947D01*
X119038074Y-107470797D01*
X119017250Y-107465581D01*
X118997038Y-107458349D01*
X118977632Y-107449170D01*
X118959219Y-107438134D01*
X118941976Y-107425346D01*
X118926070Y-107410930D01*
X118911654Y-107395024D01*
X118898866Y-107377781D01*
X118887830Y-107359368D01*
X118878651Y-107339962D01*
X118871419Y-107319750D01*
X118866203Y-107298926D01*
X118863053Y-107277691D01*
X118862000Y-107256250D01*
X118862000Y-106743750D01*
X118863053Y-106722309D01*
X118866203Y-106701074D01*
X118871419Y-106680250D01*
X118878651Y-106660038D01*
X118887830Y-106640632D01*
X118898866Y-106622219D01*
X118911654Y-106604976D01*
X118926070Y-106589070D01*
X118941976Y-106574654D01*
X118959219Y-106561866D01*
X118977632Y-106550830D01*
X118997038Y-106541651D01*
X119017250Y-106534419D01*
X119038074Y-106529203D01*
X119059309Y-106526053D01*
X119080750Y-106525000D01*
X119518250Y-106525000D01*
X119539691Y-106526053D01*
X119539691Y-106526053D01*
G37*
D11*
X119299500Y-107000000D03*
D10*
G36*
X117964691Y-106526053D02*
G01*
X117985926Y-106529203D01*
X118006750Y-106534419D01*
X118026962Y-106541651D01*
X118046368Y-106550830D01*
X118064781Y-106561866D01*
X118082024Y-106574654D01*
X118097930Y-106589070D01*
X118112346Y-106604976D01*
X118125134Y-106622219D01*
X118136170Y-106640632D01*
X118145349Y-106660038D01*
X118152581Y-106680250D01*
X118157797Y-106701074D01*
X118160947Y-106722309D01*
X118162000Y-106743750D01*
X118162000Y-107256250D01*
X118160947Y-107277691D01*
X118157797Y-107298926D01*
X118152581Y-107319750D01*
X118145349Y-107339962D01*
X118136170Y-107359368D01*
X118125134Y-107377781D01*
X118112346Y-107395024D01*
X118097930Y-107410930D01*
X118082024Y-107425346D01*
X118064781Y-107438134D01*
X118046368Y-107449170D01*
X118026962Y-107458349D01*
X118006750Y-107465581D01*
X117985926Y-107470797D01*
X117964691Y-107473947D01*
X117943250Y-107475000D01*
X117505750Y-107475000D01*
X117484309Y-107473947D01*
X117463074Y-107470797D01*
X117442250Y-107465581D01*
X117422038Y-107458349D01*
X117402632Y-107449170D01*
X117384219Y-107438134D01*
X117366976Y-107425346D01*
X117351070Y-107410930D01*
X117336654Y-107395024D01*
X117323866Y-107377781D01*
X117312830Y-107359368D01*
X117303651Y-107339962D01*
X117296419Y-107319750D01*
X117291203Y-107298926D01*
X117288053Y-107277691D01*
X117287000Y-107256250D01*
X117287000Y-106743750D01*
X117288053Y-106722309D01*
X117291203Y-106701074D01*
X117296419Y-106680250D01*
X117303651Y-106660038D01*
X117312830Y-106640632D01*
X117323866Y-106622219D01*
X117336654Y-106604976D01*
X117351070Y-106589070D01*
X117366976Y-106574654D01*
X117384219Y-106561866D01*
X117402632Y-106550830D01*
X117422038Y-106541651D01*
X117442250Y-106534419D01*
X117463074Y-106529203D01*
X117484309Y-106526053D01*
X117505750Y-106525000D01*
X117943250Y-106525000D01*
X117964691Y-106526053D01*
X117964691Y-106526053D01*
G37*
D11*
X117724500Y-107000000D03*
D10*
G36*
X110639691Y-112226053D02*
G01*
X110660926Y-112229203D01*
X110681750Y-112234419D01*
X110701962Y-112241651D01*
X110721368Y-112250830D01*
X110739781Y-112261866D01*
X110757024Y-112274654D01*
X110772930Y-112289070D01*
X110787346Y-112304976D01*
X110800134Y-112322219D01*
X110811170Y-112340632D01*
X110820349Y-112360038D01*
X110827581Y-112380250D01*
X110832797Y-112401074D01*
X110835947Y-112422309D01*
X110837000Y-112443750D01*
X110837000Y-112956250D01*
X110835947Y-112977691D01*
X110832797Y-112998926D01*
X110827581Y-113019750D01*
X110820349Y-113039962D01*
X110811170Y-113059368D01*
X110800134Y-113077781D01*
X110787346Y-113095024D01*
X110772930Y-113110930D01*
X110757024Y-113125346D01*
X110739781Y-113138134D01*
X110721368Y-113149170D01*
X110701962Y-113158349D01*
X110681750Y-113165581D01*
X110660926Y-113170797D01*
X110639691Y-113173947D01*
X110618250Y-113175000D01*
X110180750Y-113175000D01*
X110159309Y-113173947D01*
X110138074Y-113170797D01*
X110117250Y-113165581D01*
X110097038Y-113158349D01*
X110077632Y-113149170D01*
X110059219Y-113138134D01*
X110041976Y-113125346D01*
X110026070Y-113110930D01*
X110011654Y-113095024D01*
X109998866Y-113077781D01*
X109987830Y-113059368D01*
X109978651Y-113039962D01*
X109971419Y-113019750D01*
X109966203Y-112998926D01*
X109963053Y-112977691D01*
X109962000Y-112956250D01*
X109962000Y-112443750D01*
X109963053Y-112422309D01*
X109966203Y-112401074D01*
X109971419Y-112380250D01*
X109978651Y-112360038D01*
X109987830Y-112340632D01*
X109998866Y-112322219D01*
X110011654Y-112304976D01*
X110026070Y-112289070D01*
X110041976Y-112274654D01*
X110059219Y-112261866D01*
X110077632Y-112250830D01*
X110097038Y-112241651D01*
X110117250Y-112234419D01*
X110138074Y-112229203D01*
X110159309Y-112226053D01*
X110180750Y-112225000D01*
X110618250Y-112225000D01*
X110639691Y-112226053D01*
X110639691Y-112226053D01*
G37*
D11*
X110399500Y-112700000D03*
D10*
G36*
X109064691Y-112226053D02*
G01*
X109085926Y-112229203D01*
X109106750Y-112234419D01*
X109126962Y-112241651D01*
X109146368Y-112250830D01*
X109164781Y-112261866D01*
X109182024Y-112274654D01*
X109197930Y-112289070D01*
X109212346Y-112304976D01*
X109225134Y-112322219D01*
X109236170Y-112340632D01*
X109245349Y-112360038D01*
X109252581Y-112380250D01*
X109257797Y-112401074D01*
X109260947Y-112422309D01*
X109262000Y-112443750D01*
X109262000Y-112956250D01*
X109260947Y-112977691D01*
X109257797Y-112998926D01*
X109252581Y-113019750D01*
X109245349Y-113039962D01*
X109236170Y-113059368D01*
X109225134Y-113077781D01*
X109212346Y-113095024D01*
X109197930Y-113110930D01*
X109182024Y-113125346D01*
X109164781Y-113138134D01*
X109146368Y-113149170D01*
X109126962Y-113158349D01*
X109106750Y-113165581D01*
X109085926Y-113170797D01*
X109064691Y-113173947D01*
X109043250Y-113175000D01*
X108605750Y-113175000D01*
X108584309Y-113173947D01*
X108563074Y-113170797D01*
X108542250Y-113165581D01*
X108522038Y-113158349D01*
X108502632Y-113149170D01*
X108484219Y-113138134D01*
X108466976Y-113125346D01*
X108451070Y-113110930D01*
X108436654Y-113095024D01*
X108423866Y-113077781D01*
X108412830Y-113059368D01*
X108403651Y-113039962D01*
X108396419Y-113019750D01*
X108391203Y-112998926D01*
X108388053Y-112977691D01*
X108387000Y-112956250D01*
X108387000Y-112443750D01*
X108388053Y-112422309D01*
X108391203Y-112401074D01*
X108396419Y-112380250D01*
X108403651Y-112360038D01*
X108412830Y-112340632D01*
X108423866Y-112322219D01*
X108436654Y-112304976D01*
X108451070Y-112289070D01*
X108466976Y-112274654D01*
X108484219Y-112261866D01*
X108502632Y-112250830D01*
X108522038Y-112241651D01*
X108542250Y-112234419D01*
X108563074Y-112229203D01*
X108584309Y-112226053D01*
X108605750Y-112225000D01*
X109043250Y-112225000D01*
X109064691Y-112226053D01*
X109064691Y-112226053D01*
G37*
D11*
X108824500Y-112700000D03*
D10*
G36*
X115415691Y-112226053D02*
G01*
X115436926Y-112229203D01*
X115457750Y-112234419D01*
X115477962Y-112241651D01*
X115497368Y-112250830D01*
X115515781Y-112261866D01*
X115533024Y-112274654D01*
X115548930Y-112289070D01*
X115563346Y-112304976D01*
X115576134Y-112322219D01*
X115587170Y-112340632D01*
X115596349Y-112360038D01*
X115603581Y-112380250D01*
X115608797Y-112401074D01*
X115611947Y-112422309D01*
X115613000Y-112443750D01*
X115613000Y-112956250D01*
X115611947Y-112977691D01*
X115608797Y-112998926D01*
X115603581Y-113019750D01*
X115596349Y-113039962D01*
X115587170Y-113059368D01*
X115576134Y-113077781D01*
X115563346Y-113095024D01*
X115548930Y-113110930D01*
X115533024Y-113125346D01*
X115515781Y-113138134D01*
X115497368Y-113149170D01*
X115477962Y-113158349D01*
X115457750Y-113165581D01*
X115436926Y-113170797D01*
X115415691Y-113173947D01*
X115394250Y-113175000D01*
X114956750Y-113175000D01*
X114935309Y-113173947D01*
X114914074Y-113170797D01*
X114893250Y-113165581D01*
X114873038Y-113158349D01*
X114853632Y-113149170D01*
X114835219Y-113138134D01*
X114817976Y-113125346D01*
X114802070Y-113110930D01*
X114787654Y-113095024D01*
X114774866Y-113077781D01*
X114763830Y-113059368D01*
X114754651Y-113039962D01*
X114747419Y-113019750D01*
X114742203Y-112998926D01*
X114739053Y-112977691D01*
X114738000Y-112956250D01*
X114738000Y-112443750D01*
X114739053Y-112422309D01*
X114742203Y-112401074D01*
X114747419Y-112380250D01*
X114754651Y-112360038D01*
X114763830Y-112340632D01*
X114774866Y-112322219D01*
X114787654Y-112304976D01*
X114802070Y-112289070D01*
X114817976Y-112274654D01*
X114835219Y-112261866D01*
X114853632Y-112250830D01*
X114873038Y-112241651D01*
X114893250Y-112234419D01*
X114914074Y-112229203D01*
X114935309Y-112226053D01*
X114956750Y-112225000D01*
X115394250Y-112225000D01*
X115415691Y-112226053D01*
X115415691Y-112226053D01*
G37*
D11*
X115175500Y-112700000D03*
D10*
G36*
X113840691Y-112226053D02*
G01*
X113861926Y-112229203D01*
X113882750Y-112234419D01*
X113902962Y-112241651D01*
X113922368Y-112250830D01*
X113940781Y-112261866D01*
X113958024Y-112274654D01*
X113973930Y-112289070D01*
X113988346Y-112304976D01*
X114001134Y-112322219D01*
X114012170Y-112340632D01*
X114021349Y-112360038D01*
X114028581Y-112380250D01*
X114033797Y-112401074D01*
X114036947Y-112422309D01*
X114038000Y-112443750D01*
X114038000Y-112956250D01*
X114036947Y-112977691D01*
X114033797Y-112998926D01*
X114028581Y-113019750D01*
X114021349Y-113039962D01*
X114012170Y-113059368D01*
X114001134Y-113077781D01*
X113988346Y-113095024D01*
X113973930Y-113110930D01*
X113958024Y-113125346D01*
X113940781Y-113138134D01*
X113922368Y-113149170D01*
X113902962Y-113158349D01*
X113882750Y-113165581D01*
X113861926Y-113170797D01*
X113840691Y-113173947D01*
X113819250Y-113175000D01*
X113381750Y-113175000D01*
X113360309Y-113173947D01*
X113339074Y-113170797D01*
X113318250Y-113165581D01*
X113298038Y-113158349D01*
X113278632Y-113149170D01*
X113260219Y-113138134D01*
X113242976Y-113125346D01*
X113227070Y-113110930D01*
X113212654Y-113095024D01*
X113199866Y-113077781D01*
X113188830Y-113059368D01*
X113179651Y-113039962D01*
X113172419Y-113019750D01*
X113167203Y-112998926D01*
X113164053Y-112977691D01*
X113163000Y-112956250D01*
X113163000Y-112443750D01*
X113164053Y-112422309D01*
X113167203Y-112401074D01*
X113172419Y-112380250D01*
X113179651Y-112360038D01*
X113188830Y-112340632D01*
X113199866Y-112322219D01*
X113212654Y-112304976D01*
X113227070Y-112289070D01*
X113242976Y-112274654D01*
X113260219Y-112261866D01*
X113278632Y-112250830D01*
X113298038Y-112241651D01*
X113318250Y-112234419D01*
X113339074Y-112229203D01*
X113360309Y-112226053D01*
X113381750Y-112225000D01*
X113819250Y-112225000D01*
X113840691Y-112226053D01*
X113840691Y-112226053D01*
G37*
D11*
X113600500Y-112700000D03*
D12*
X121500000Y-97000000D03*
X120550000Y-95000000D03*
X122450000Y-95000000D03*
X124250000Y-108600000D03*
X125200000Y-110600000D03*
X123300000Y-110600000D03*
X119350000Y-108700000D03*
X120300000Y-110700000D03*
X118400000Y-110700000D03*
X114450000Y-108900000D03*
X115400000Y-110900000D03*
X113500000Y-110900000D03*
X109600000Y-108900000D03*
X110550000Y-110900000D03*
X108650000Y-110900000D03*
D13*
X117400000Y-101300000D03*
D14*
X116100000Y-102250000D03*
X116100000Y-101300000D03*
X116100000Y-100350000D03*
X118700000Y-100350000D03*
X118700000Y-101300000D03*
X118700000Y-102250000D03*
D15*
X113800000Y-94150000D03*
X113800000Y-96050000D03*
X111600000Y-96050000D03*
X111600000Y-95100000D03*
X111600000Y-94150000D03*
D10*
G36*
X109164691Y-91626053D02*
G01*
X109185926Y-91629203D01*
X109206750Y-91634419D01*
X109226962Y-91641651D01*
X109246368Y-91650830D01*
X109264781Y-91661866D01*
X109282024Y-91674654D01*
X109297930Y-91689070D01*
X109312346Y-91704976D01*
X109325134Y-91722219D01*
X109336170Y-91740632D01*
X109345349Y-91760038D01*
X109352581Y-91780250D01*
X109357797Y-91801074D01*
X109360947Y-91822309D01*
X109362000Y-91843750D01*
X109362000Y-92356250D01*
X109360947Y-92377691D01*
X109357797Y-92398926D01*
X109352581Y-92419750D01*
X109345349Y-92439962D01*
X109336170Y-92459368D01*
X109325134Y-92477781D01*
X109312346Y-92495024D01*
X109297930Y-92510930D01*
X109282024Y-92525346D01*
X109264781Y-92538134D01*
X109246368Y-92549170D01*
X109226962Y-92558349D01*
X109206750Y-92565581D01*
X109185926Y-92570797D01*
X109164691Y-92573947D01*
X109143250Y-92575000D01*
X108705750Y-92575000D01*
X108684309Y-92573947D01*
X108663074Y-92570797D01*
X108642250Y-92565581D01*
X108622038Y-92558349D01*
X108602632Y-92549170D01*
X108584219Y-92538134D01*
X108566976Y-92525346D01*
X108551070Y-92510930D01*
X108536654Y-92495024D01*
X108523866Y-92477781D01*
X108512830Y-92459368D01*
X108503651Y-92439962D01*
X108496419Y-92419750D01*
X108491203Y-92398926D01*
X108488053Y-92377691D01*
X108487000Y-92356250D01*
X108487000Y-91843750D01*
X108488053Y-91822309D01*
X108491203Y-91801074D01*
X108496419Y-91780250D01*
X108503651Y-91760038D01*
X108512830Y-91740632D01*
X108523866Y-91722219D01*
X108536654Y-91704976D01*
X108551070Y-91689070D01*
X108566976Y-91674654D01*
X108584219Y-91661866D01*
X108602632Y-91650830D01*
X108622038Y-91641651D01*
X108642250Y-91634419D01*
X108663074Y-91629203D01*
X108684309Y-91626053D01*
X108705750Y-91625000D01*
X109143250Y-91625000D01*
X109164691Y-91626053D01*
X109164691Y-91626053D01*
G37*
D11*
X108924500Y-92100000D03*
D10*
G36*
X110739691Y-91626053D02*
G01*
X110760926Y-91629203D01*
X110781750Y-91634419D01*
X110801962Y-91641651D01*
X110821368Y-91650830D01*
X110839781Y-91661866D01*
X110857024Y-91674654D01*
X110872930Y-91689070D01*
X110887346Y-91704976D01*
X110900134Y-91722219D01*
X110911170Y-91740632D01*
X110920349Y-91760038D01*
X110927581Y-91780250D01*
X110932797Y-91801074D01*
X110935947Y-91822309D01*
X110937000Y-91843750D01*
X110937000Y-92356250D01*
X110935947Y-92377691D01*
X110932797Y-92398926D01*
X110927581Y-92419750D01*
X110920349Y-92439962D01*
X110911170Y-92459368D01*
X110900134Y-92477781D01*
X110887346Y-92495024D01*
X110872930Y-92510930D01*
X110857024Y-92525346D01*
X110839781Y-92538134D01*
X110821368Y-92549170D01*
X110801962Y-92558349D01*
X110781750Y-92565581D01*
X110760926Y-92570797D01*
X110739691Y-92573947D01*
X110718250Y-92575000D01*
X110280750Y-92575000D01*
X110259309Y-92573947D01*
X110238074Y-92570797D01*
X110217250Y-92565581D01*
X110197038Y-92558349D01*
X110177632Y-92549170D01*
X110159219Y-92538134D01*
X110141976Y-92525346D01*
X110126070Y-92510930D01*
X110111654Y-92495024D01*
X110098866Y-92477781D01*
X110087830Y-92459368D01*
X110078651Y-92439962D01*
X110071419Y-92419750D01*
X110066203Y-92398926D01*
X110063053Y-92377691D01*
X110062000Y-92356250D01*
X110062000Y-91843750D01*
X110063053Y-91822309D01*
X110066203Y-91801074D01*
X110071419Y-91780250D01*
X110078651Y-91760038D01*
X110087830Y-91740632D01*
X110098866Y-91722219D01*
X110111654Y-91704976D01*
X110126070Y-91689070D01*
X110141976Y-91674654D01*
X110159219Y-91661866D01*
X110177632Y-91650830D01*
X110197038Y-91641651D01*
X110217250Y-91634419D01*
X110238074Y-91629203D01*
X110259309Y-91626053D01*
X110280750Y-91625000D01*
X110718250Y-91625000D01*
X110739691Y-91626053D01*
X110739691Y-91626053D01*
G37*
D11*
X110499500Y-92100000D03*
D10*
G36*
X120315691Y-112226053D02*
G01*
X120336926Y-112229203D01*
X120357750Y-112234419D01*
X120377962Y-112241651D01*
X120397368Y-112250830D01*
X120415781Y-112261866D01*
X120433024Y-112274654D01*
X120448930Y-112289070D01*
X120463346Y-112304976D01*
X120476134Y-112322219D01*
X120487170Y-112340632D01*
X120496349Y-112360038D01*
X120503581Y-112380250D01*
X120508797Y-112401074D01*
X120511947Y-112422309D01*
X120513000Y-112443750D01*
X120513000Y-112956250D01*
X120511947Y-112977691D01*
X120508797Y-112998926D01*
X120503581Y-113019750D01*
X120496349Y-113039962D01*
X120487170Y-113059368D01*
X120476134Y-113077781D01*
X120463346Y-113095024D01*
X120448930Y-113110930D01*
X120433024Y-113125346D01*
X120415781Y-113138134D01*
X120397368Y-113149170D01*
X120377962Y-113158349D01*
X120357750Y-113165581D01*
X120336926Y-113170797D01*
X120315691Y-113173947D01*
X120294250Y-113175000D01*
X119856750Y-113175000D01*
X119835309Y-113173947D01*
X119814074Y-113170797D01*
X119793250Y-113165581D01*
X119773038Y-113158349D01*
X119753632Y-113149170D01*
X119735219Y-113138134D01*
X119717976Y-113125346D01*
X119702070Y-113110930D01*
X119687654Y-113095024D01*
X119674866Y-113077781D01*
X119663830Y-113059368D01*
X119654651Y-113039962D01*
X119647419Y-113019750D01*
X119642203Y-112998926D01*
X119639053Y-112977691D01*
X119638000Y-112956250D01*
X119638000Y-112443750D01*
X119639053Y-112422309D01*
X119642203Y-112401074D01*
X119647419Y-112380250D01*
X119654651Y-112360038D01*
X119663830Y-112340632D01*
X119674866Y-112322219D01*
X119687654Y-112304976D01*
X119702070Y-112289070D01*
X119717976Y-112274654D01*
X119735219Y-112261866D01*
X119753632Y-112250830D01*
X119773038Y-112241651D01*
X119793250Y-112234419D01*
X119814074Y-112229203D01*
X119835309Y-112226053D01*
X119856750Y-112225000D01*
X120294250Y-112225000D01*
X120315691Y-112226053D01*
X120315691Y-112226053D01*
G37*
D11*
X120075500Y-112700000D03*
D10*
G36*
X118740691Y-112226053D02*
G01*
X118761926Y-112229203D01*
X118782750Y-112234419D01*
X118802962Y-112241651D01*
X118822368Y-112250830D01*
X118840781Y-112261866D01*
X118858024Y-112274654D01*
X118873930Y-112289070D01*
X118888346Y-112304976D01*
X118901134Y-112322219D01*
X118912170Y-112340632D01*
X118921349Y-112360038D01*
X118928581Y-112380250D01*
X118933797Y-112401074D01*
X118936947Y-112422309D01*
X118938000Y-112443750D01*
X118938000Y-112956250D01*
X118936947Y-112977691D01*
X118933797Y-112998926D01*
X118928581Y-113019750D01*
X118921349Y-113039962D01*
X118912170Y-113059368D01*
X118901134Y-113077781D01*
X118888346Y-113095024D01*
X118873930Y-113110930D01*
X118858024Y-113125346D01*
X118840781Y-113138134D01*
X118822368Y-113149170D01*
X118802962Y-113158349D01*
X118782750Y-113165581D01*
X118761926Y-113170797D01*
X118740691Y-113173947D01*
X118719250Y-113175000D01*
X118281750Y-113175000D01*
X118260309Y-113173947D01*
X118239074Y-113170797D01*
X118218250Y-113165581D01*
X118198038Y-113158349D01*
X118178632Y-113149170D01*
X118160219Y-113138134D01*
X118142976Y-113125346D01*
X118127070Y-113110930D01*
X118112654Y-113095024D01*
X118099866Y-113077781D01*
X118088830Y-113059368D01*
X118079651Y-113039962D01*
X118072419Y-113019750D01*
X118067203Y-112998926D01*
X118064053Y-112977691D01*
X118063000Y-112956250D01*
X118063000Y-112443750D01*
X118064053Y-112422309D01*
X118067203Y-112401074D01*
X118072419Y-112380250D01*
X118079651Y-112360038D01*
X118088830Y-112340632D01*
X118099866Y-112322219D01*
X118112654Y-112304976D01*
X118127070Y-112289070D01*
X118142976Y-112274654D01*
X118160219Y-112261866D01*
X118178632Y-112250830D01*
X118198038Y-112241651D01*
X118218250Y-112234419D01*
X118239074Y-112229203D01*
X118260309Y-112226053D01*
X118281750Y-112225000D01*
X118719250Y-112225000D01*
X118740691Y-112226053D01*
X118740691Y-112226053D01*
G37*
D11*
X118500500Y-112700000D03*
D10*
G36*
X112352691Y-104526053D02*
G01*
X112373926Y-104529203D01*
X112394750Y-104534419D01*
X112414962Y-104541651D01*
X112434368Y-104550830D01*
X112452781Y-104561866D01*
X112470024Y-104574654D01*
X112485930Y-104589070D01*
X112500346Y-104604976D01*
X112513134Y-104622219D01*
X112524170Y-104640632D01*
X112533349Y-104660038D01*
X112540581Y-104680250D01*
X112545797Y-104701074D01*
X112548947Y-104722309D01*
X112550000Y-104743750D01*
X112550000Y-105256250D01*
X112548947Y-105277691D01*
X112545797Y-105298926D01*
X112540581Y-105319750D01*
X112533349Y-105339962D01*
X112524170Y-105359368D01*
X112513134Y-105377781D01*
X112500346Y-105395024D01*
X112485930Y-105410930D01*
X112470024Y-105425346D01*
X112452781Y-105438134D01*
X112434368Y-105449170D01*
X112414962Y-105458349D01*
X112394750Y-105465581D01*
X112373926Y-105470797D01*
X112352691Y-105473947D01*
X112331250Y-105475000D01*
X111893750Y-105475000D01*
X111872309Y-105473947D01*
X111851074Y-105470797D01*
X111830250Y-105465581D01*
X111810038Y-105458349D01*
X111790632Y-105449170D01*
X111772219Y-105438134D01*
X111754976Y-105425346D01*
X111739070Y-105410930D01*
X111724654Y-105395024D01*
X111711866Y-105377781D01*
X111700830Y-105359368D01*
X111691651Y-105339962D01*
X111684419Y-105319750D01*
X111679203Y-105298926D01*
X111676053Y-105277691D01*
X111675000Y-105256250D01*
X111675000Y-104743750D01*
X111676053Y-104722309D01*
X111679203Y-104701074D01*
X111684419Y-104680250D01*
X111691651Y-104660038D01*
X111700830Y-104640632D01*
X111711866Y-104622219D01*
X111724654Y-104604976D01*
X111739070Y-104589070D01*
X111754976Y-104574654D01*
X111772219Y-104561866D01*
X111790632Y-104550830D01*
X111810038Y-104541651D01*
X111830250Y-104534419D01*
X111851074Y-104529203D01*
X111872309Y-104526053D01*
X111893750Y-104525000D01*
X112331250Y-104525000D01*
X112352691Y-104526053D01*
X112352691Y-104526053D01*
G37*
D11*
X112112500Y-105000000D03*
D10*
G36*
X113927691Y-104526053D02*
G01*
X113948926Y-104529203D01*
X113969750Y-104534419D01*
X113989962Y-104541651D01*
X114009368Y-104550830D01*
X114027781Y-104561866D01*
X114045024Y-104574654D01*
X114060930Y-104589070D01*
X114075346Y-104604976D01*
X114088134Y-104622219D01*
X114099170Y-104640632D01*
X114108349Y-104660038D01*
X114115581Y-104680250D01*
X114120797Y-104701074D01*
X114123947Y-104722309D01*
X114125000Y-104743750D01*
X114125000Y-105256250D01*
X114123947Y-105277691D01*
X114120797Y-105298926D01*
X114115581Y-105319750D01*
X114108349Y-105339962D01*
X114099170Y-105359368D01*
X114088134Y-105377781D01*
X114075346Y-105395024D01*
X114060930Y-105410930D01*
X114045024Y-105425346D01*
X114027781Y-105438134D01*
X114009368Y-105449170D01*
X113989962Y-105458349D01*
X113969750Y-105465581D01*
X113948926Y-105470797D01*
X113927691Y-105473947D01*
X113906250Y-105475000D01*
X113468750Y-105475000D01*
X113447309Y-105473947D01*
X113426074Y-105470797D01*
X113405250Y-105465581D01*
X113385038Y-105458349D01*
X113365632Y-105449170D01*
X113347219Y-105438134D01*
X113329976Y-105425346D01*
X113314070Y-105410930D01*
X113299654Y-105395024D01*
X113286866Y-105377781D01*
X113275830Y-105359368D01*
X113266651Y-105339962D01*
X113259419Y-105319750D01*
X113254203Y-105298926D01*
X113251053Y-105277691D01*
X113250000Y-105256250D01*
X113250000Y-104743750D01*
X113251053Y-104722309D01*
X113254203Y-104701074D01*
X113259419Y-104680250D01*
X113266651Y-104660038D01*
X113275830Y-104640632D01*
X113286866Y-104622219D01*
X113299654Y-104604976D01*
X113314070Y-104589070D01*
X113329976Y-104574654D01*
X113347219Y-104561866D01*
X113365632Y-104550830D01*
X113385038Y-104541651D01*
X113405250Y-104534419D01*
X113426074Y-104529203D01*
X113447309Y-104526053D01*
X113468750Y-104525000D01*
X113906250Y-104525000D01*
X113927691Y-104526053D01*
X113927691Y-104526053D01*
G37*
D11*
X113687500Y-105000000D03*
D10*
G36*
X112352691Y-102526053D02*
G01*
X112373926Y-102529203D01*
X112394750Y-102534419D01*
X112414962Y-102541651D01*
X112434368Y-102550830D01*
X112452781Y-102561866D01*
X112470024Y-102574654D01*
X112485930Y-102589070D01*
X112500346Y-102604976D01*
X112513134Y-102622219D01*
X112524170Y-102640632D01*
X112533349Y-102660038D01*
X112540581Y-102680250D01*
X112545797Y-102701074D01*
X112548947Y-102722309D01*
X112550000Y-102743750D01*
X112550000Y-103256250D01*
X112548947Y-103277691D01*
X112545797Y-103298926D01*
X112540581Y-103319750D01*
X112533349Y-103339962D01*
X112524170Y-103359368D01*
X112513134Y-103377781D01*
X112500346Y-103395024D01*
X112485930Y-103410930D01*
X112470024Y-103425346D01*
X112452781Y-103438134D01*
X112434368Y-103449170D01*
X112414962Y-103458349D01*
X112394750Y-103465581D01*
X112373926Y-103470797D01*
X112352691Y-103473947D01*
X112331250Y-103475000D01*
X111893750Y-103475000D01*
X111872309Y-103473947D01*
X111851074Y-103470797D01*
X111830250Y-103465581D01*
X111810038Y-103458349D01*
X111790632Y-103449170D01*
X111772219Y-103438134D01*
X111754976Y-103425346D01*
X111739070Y-103410930D01*
X111724654Y-103395024D01*
X111711866Y-103377781D01*
X111700830Y-103359368D01*
X111691651Y-103339962D01*
X111684419Y-103319750D01*
X111679203Y-103298926D01*
X111676053Y-103277691D01*
X111675000Y-103256250D01*
X111675000Y-102743750D01*
X111676053Y-102722309D01*
X111679203Y-102701074D01*
X111684419Y-102680250D01*
X111691651Y-102660038D01*
X111700830Y-102640632D01*
X111711866Y-102622219D01*
X111724654Y-102604976D01*
X111739070Y-102589070D01*
X111754976Y-102574654D01*
X111772219Y-102561866D01*
X111790632Y-102550830D01*
X111810038Y-102541651D01*
X111830250Y-102534419D01*
X111851074Y-102529203D01*
X111872309Y-102526053D01*
X111893750Y-102525000D01*
X112331250Y-102525000D01*
X112352691Y-102526053D01*
X112352691Y-102526053D01*
G37*
D11*
X112112500Y-103000000D03*
D10*
G36*
X113927691Y-102526053D02*
G01*
X113948926Y-102529203D01*
X113969750Y-102534419D01*
X113989962Y-102541651D01*
X114009368Y-102550830D01*
X114027781Y-102561866D01*
X114045024Y-102574654D01*
X114060930Y-102589070D01*
X114075346Y-102604976D01*
X114088134Y-102622219D01*
X114099170Y-102640632D01*
X114108349Y-102660038D01*
X114115581Y-102680250D01*
X114120797Y-102701074D01*
X114123947Y-102722309D01*
X114125000Y-102743750D01*
X114125000Y-103256250D01*
X114123947Y-103277691D01*
X114120797Y-103298926D01*
X114115581Y-103319750D01*
X114108349Y-103339962D01*
X114099170Y-103359368D01*
X114088134Y-103377781D01*
X114075346Y-103395024D01*
X114060930Y-103410930D01*
X114045024Y-103425346D01*
X114027781Y-103438134D01*
X114009368Y-103449170D01*
X113989962Y-103458349D01*
X113969750Y-103465581D01*
X113948926Y-103470797D01*
X113927691Y-103473947D01*
X113906250Y-103475000D01*
X113468750Y-103475000D01*
X113447309Y-103473947D01*
X113426074Y-103470797D01*
X113405250Y-103465581D01*
X113385038Y-103458349D01*
X113365632Y-103449170D01*
X113347219Y-103438134D01*
X113329976Y-103425346D01*
X113314070Y-103410930D01*
X113299654Y-103395024D01*
X113286866Y-103377781D01*
X113275830Y-103359368D01*
X113266651Y-103339962D01*
X113259419Y-103319750D01*
X113254203Y-103298926D01*
X113251053Y-103277691D01*
X113250000Y-103256250D01*
X113250000Y-102743750D01*
X113251053Y-102722309D01*
X113254203Y-102701074D01*
X113259419Y-102680250D01*
X113266651Y-102660038D01*
X113275830Y-102640632D01*
X113286866Y-102622219D01*
X113299654Y-102604976D01*
X113314070Y-102589070D01*
X113329976Y-102574654D01*
X113347219Y-102561866D01*
X113365632Y-102550830D01*
X113385038Y-102541651D01*
X113405250Y-102534419D01*
X113426074Y-102529203D01*
X113447309Y-102526053D01*
X113468750Y-102525000D01*
X113906250Y-102525000D01*
X113927691Y-102526053D01*
X113927691Y-102526053D01*
G37*
D11*
X113687500Y-103000000D03*
D16*
X126000000Y-104540000D03*
X126000000Y-102000000D03*
D17*
X126000000Y-99460000D03*
D18*
X108000000Y-99000000D03*
X108000000Y-101000000D03*
X108000000Y-103000000D03*
X108000000Y-105000000D03*
D10*
G36*
X114115691Y-91626053D02*
G01*
X114136926Y-91629203D01*
X114157750Y-91634419D01*
X114177962Y-91641651D01*
X114197368Y-91650830D01*
X114215781Y-91661866D01*
X114233024Y-91674654D01*
X114248930Y-91689070D01*
X114263346Y-91704976D01*
X114276134Y-91722219D01*
X114287170Y-91740632D01*
X114296349Y-91760038D01*
X114303581Y-91780250D01*
X114308797Y-91801074D01*
X114311947Y-91822309D01*
X114313000Y-91843750D01*
X114313000Y-92356250D01*
X114311947Y-92377691D01*
X114308797Y-92398926D01*
X114303581Y-92419750D01*
X114296349Y-92439962D01*
X114287170Y-92459368D01*
X114276134Y-92477781D01*
X114263346Y-92495024D01*
X114248930Y-92510930D01*
X114233024Y-92525346D01*
X114215781Y-92538134D01*
X114197368Y-92549170D01*
X114177962Y-92558349D01*
X114157750Y-92565581D01*
X114136926Y-92570797D01*
X114115691Y-92573947D01*
X114094250Y-92575000D01*
X113656750Y-92575000D01*
X113635309Y-92573947D01*
X113614074Y-92570797D01*
X113593250Y-92565581D01*
X113573038Y-92558349D01*
X113553632Y-92549170D01*
X113535219Y-92538134D01*
X113517976Y-92525346D01*
X113502070Y-92510930D01*
X113487654Y-92495024D01*
X113474866Y-92477781D01*
X113463830Y-92459368D01*
X113454651Y-92439962D01*
X113447419Y-92419750D01*
X113442203Y-92398926D01*
X113439053Y-92377691D01*
X113438000Y-92356250D01*
X113438000Y-91843750D01*
X113439053Y-91822309D01*
X113442203Y-91801074D01*
X113447419Y-91780250D01*
X113454651Y-91760038D01*
X113463830Y-91740632D01*
X113474866Y-91722219D01*
X113487654Y-91704976D01*
X113502070Y-91689070D01*
X113517976Y-91674654D01*
X113535219Y-91661866D01*
X113553632Y-91650830D01*
X113573038Y-91641651D01*
X113593250Y-91634419D01*
X113614074Y-91629203D01*
X113635309Y-91626053D01*
X113656750Y-91625000D01*
X114094250Y-91625000D01*
X114115691Y-91626053D01*
X114115691Y-91626053D01*
G37*
D11*
X113875500Y-92100000D03*
D10*
G36*
X112540691Y-91626053D02*
G01*
X112561926Y-91629203D01*
X112582750Y-91634419D01*
X112602962Y-91641651D01*
X112622368Y-91650830D01*
X112640781Y-91661866D01*
X112658024Y-91674654D01*
X112673930Y-91689070D01*
X112688346Y-91704976D01*
X112701134Y-91722219D01*
X112712170Y-91740632D01*
X112721349Y-91760038D01*
X112728581Y-91780250D01*
X112733797Y-91801074D01*
X112736947Y-91822309D01*
X112738000Y-91843750D01*
X112738000Y-92356250D01*
X112736947Y-92377691D01*
X112733797Y-92398926D01*
X112728581Y-92419750D01*
X112721349Y-92439962D01*
X112712170Y-92459368D01*
X112701134Y-92477781D01*
X112688346Y-92495024D01*
X112673930Y-92510930D01*
X112658024Y-92525346D01*
X112640781Y-92538134D01*
X112622368Y-92549170D01*
X112602962Y-92558349D01*
X112582750Y-92565581D01*
X112561926Y-92570797D01*
X112540691Y-92573947D01*
X112519250Y-92575000D01*
X112081750Y-92575000D01*
X112060309Y-92573947D01*
X112039074Y-92570797D01*
X112018250Y-92565581D01*
X111998038Y-92558349D01*
X111978632Y-92549170D01*
X111960219Y-92538134D01*
X111942976Y-92525346D01*
X111927070Y-92510930D01*
X111912654Y-92495024D01*
X111899866Y-92477781D01*
X111888830Y-92459368D01*
X111879651Y-92439962D01*
X111872419Y-92419750D01*
X111867203Y-92398926D01*
X111864053Y-92377691D01*
X111863000Y-92356250D01*
X111863000Y-91843750D01*
X111864053Y-91822309D01*
X111867203Y-91801074D01*
X111872419Y-91780250D01*
X111879651Y-91760038D01*
X111888830Y-91740632D01*
X111899866Y-91722219D01*
X111912654Y-91704976D01*
X111927070Y-91689070D01*
X111942976Y-91674654D01*
X111960219Y-91661866D01*
X111978632Y-91650830D01*
X111998038Y-91641651D01*
X112018250Y-91634419D01*
X112039074Y-91629203D01*
X112060309Y-91626053D01*
X112081750Y-91625000D01*
X112519250Y-91625000D01*
X112540691Y-91626053D01*
X112540691Y-91626053D01*
G37*
D11*
X112300500Y-92100000D03*
D10*
G36*
X118025191Y-104276053D02*
G01*
X118046426Y-104279203D01*
X118067250Y-104284419D01*
X118087462Y-104291651D01*
X118106868Y-104300830D01*
X118125281Y-104311866D01*
X118142524Y-104324654D01*
X118158430Y-104339070D01*
X118172846Y-104354976D01*
X118185634Y-104372219D01*
X118196670Y-104390632D01*
X118205849Y-104410038D01*
X118213081Y-104430250D01*
X118218297Y-104451074D01*
X118221447Y-104472309D01*
X118222500Y-104493750D01*
X118222500Y-105006250D01*
X118221447Y-105027691D01*
X118218297Y-105048926D01*
X118213081Y-105069750D01*
X118205849Y-105089962D01*
X118196670Y-105109368D01*
X118185634Y-105127781D01*
X118172846Y-105145024D01*
X118158430Y-105160930D01*
X118142524Y-105175346D01*
X118125281Y-105188134D01*
X118106868Y-105199170D01*
X118087462Y-105208349D01*
X118067250Y-105215581D01*
X118046426Y-105220797D01*
X118025191Y-105223947D01*
X118003750Y-105225000D01*
X117566250Y-105225000D01*
X117544809Y-105223947D01*
X117523574Y-105220797D01*
X117502750Y-105215581D01*
X117482538Y-105208349D01*
X117463132Y-105199170D01*
X117444719Y-105188134D01*
X117427476Y-105175346D01*
X117411570Y-105160930D01*
X117397154Y-105145024D01*
X117384366Y-105127781D01*
X117373330Y-105109368D01*
X117364151Y-105089962D01*
X117356919Y-105069750D01*
X117351703Y-105048926D01*
X117348553Y-105027691D01*
X117347500Y-105006250D01*
X117347500Y-104493750D01*
X117348553Y-104472309D01*
X117351703Y-104451074D01*
X117356919Y-104430250D01*
X117364151Y-104410038D01*
X117373330Y-104390632D01*
X117384366Y-104372219D01*
X117397154Y-104354976D01*
X117411570Y-104339070D01*
X117427476Y-104324654D01*
X117444719Y-104311866D01*
X117463132Y-104300830D01*
X117482538Y-104291651D01*
X117502750Y-104284419D01*
X117523574Y-104279203D01*
X117544809Y-104276053D01*
X117566250Y-104275000D01*
X118003750Y-104275000D01*
X118025191Y-104276053D01*
X118025191Y-104276053D01*
G37*
D11*
X117785000Y-104750000D03*
D10*
G36*
X116450191Y-104276053D02*
G01*
X116471426Y-104279203D01*
X116492250Y-104284419D01*
X116512462Y-104291651D01*
X116531868Y-104300830D01*
X116550281Y-104311866D01*
X116567524Y-104324654D01*
X116583430Y-104339070D01*
X116597846Y-104354976D01*
X116610634Y-104372219D01*
X116621670Y-104390632D01*
X116630849Y-104410038D01*
X116638081Y-104430250D01*
X116643297Y-104451074D01*
X116646447Y-104472309D01*
X116647500Y-104493750D01*
X116647500Y-105006250D01*
X116646447Y-105027691D01*
X116643297Y-105048926D01*
X116638081Y-105069750D01*
X116630849Y-105089962D01*
X116621670Y-105109368D01*
X116610634Y-105127781D01*
X116597846Y-105145024D01*
X116583430Y-105160930D01*
X116567524Y-105175346D01*
X116550281Y-105188134D01*
X116531868Y-105199170D01*
X116512462Y-105208349D01*
X116492250Y-105215581D01*
X116471426Y-105220797D01*
X116450191Y-105223947D01*
X116428750Y-105225000D01*
X115991250Y-105225000D01*
X115969809Y-105223947D01*
X115948574Y-105220797D01*
X115927750Y-105215581D01*
X115907538Y-105208349D01*
X115888132Y-105199170D01*
X115869719Y-105188134D01*
X115852476Y-105175346D01*
X115836570Y-105160930D01*
X115822154Y-105145024D01*
X115809366Y-105127781D01*
X115798330Y-105109368D01*
X115789151Y-105089962D01*
X115781919Y-105069750D01*
X115776703Y-105048926D01*
X115773553Y-105027691D01*
X115772500Y-105006250D01*
X115772500Y-104493750D01*
X115773553Y-104472309D01*
X115776703Y-104451074D01*
X115781919Y-104430250D01*
X115789151Y-104410038D01*
X115798330Y-104390632D01*
X115809366Y-104372219D01*
X115822154Y-104354976D01*
X115836570Y-104339070D01*
X115852476Y-104324654D01*
X115869719Y-104311866D01*
X115888132Y-104300830D01*
X115907538Y-104291651D01*
X115927750Y-104284419D01*
X115948574Y-104279203D01*
X115969809Y-104276053D01*
X115991250Y-104275000D01*
X116428750Y-104275000D01*
X116450191Y-104276053D01*
X116450191Y-104276053D01*
G37*
D11*
X116210000Y-104750000D03*
D10*
G36*
X116480142Y-95488674D02*
G01*
X116503803Y-95492184D01*
X116527007Y-95497996D01*
X116549529Y-95506054D01*
X116571153Y-95516282D01*
X116591670Y-95528579D01*
X116610883Y-95542829D01*
X116628607Y-95558893D01*
X116644671Y-95576617D01*
X116658921Y-95595830D01*
X116671218Y-95616347D01*
X116681446Y-95637971D01*
X116689504Y-95660493D01*
X116695316Y-95683697D01*
X116698826Y-95707358D01*
X116700000Y-95731250D01*
X116700000Y-96218750D01*
X116698826Y-96242642D01*
X116695316Y-96266303D01*
X116689504Y-96289507D01*
X116681446Y-96312029D01*
X116671218Y-96333653D01*
X116658921Y-96354170D01*
X116644671Y-96373383D01*
X116628607Y-96391107D01*
X116610883Y-96407171D01*
X116591670Y-96421421D01*
X116571153Y-96433718D01*
X116549529Y-96443946D01*
X116527007Y-96452004D01*
X116503803Y-96457816D01*
X116480142Y-96461326D01*
X116456250Y-96462500D01*
X115543750Y-96462500D01*
X115519858Y-96461326D01*
X115496197Y-96457816D01*
X115472993Y-96452004D01*
X115450471Y-96443946D01*
X115428847Y-96433718D01*
X115408330Y-96421421D01*
X115389117Y-96407171D01*
X115371393Y-96391107D01*
X115355329Y-96373383D01*
X115341079Y-96354170D01*
X115328782Y-96333653D01*
X115318554Y-96312029D01*
X115310496Y-96289507D01*
X115304684Y-96266303D01*
X115301174Y-96242642D01*
X115300000Y-96218750D01*
X115300000Y-95731250D01*
X115301174Y-95707358D01*
X115304684Y-95683697D01*
X115310496Y-95660493D01*
X115318554Y-95637971D01*
X115328782Y-95616347D01*
X115341079Y-95595830D01*
X115355329Y-95576617D01*
X115371393Y-95558893D01*
X115389117Y-95542829D01*
X115408330Y-95528579D01*
X115428847Y-95516282D01*
X115450471Y-95506054D01*
X115472993Y-95497996D01*
X115496197Y-95492184D01*
X115519858Y-95488674D01*
X115543750Y-95487500D01*
X116456250Y-95487500D01*
X116480142Y-95488674D01*
X116480142Y-95488674D01*
G37*
D19*
X116000000Y-95975000D03*
D10*
G36*
X116480142Y-93613674D02*
G01*
X116503803Y-93617184D01*
X116527007Y-93622996D01*
X116549529Y-93631054D01*
X116571153Y-93641282D01*
X116591670Y-93653579D01*
X116610883Y-93667829D01*
X116628607Y-93683893D01*
X116644671Y-93701617D01*
X116658921Y-93720830D01*
X116671218Y-93741347D01*
X116681446Y-93762971D01*
X116689504Y-93785493D01*
X116695316Y-93808697D01*
X116698826Y-93832358D01*
X116700000Y-93856250D01*
X116700000Y-94343750D01*
X116698826Y-94367642D01*
X116695316Y-94391303D01*
X116689504Y-94414507D01*
X116681446Y-94437029D01*
X116671218Y-94458653D01*
X116658921Y-94479170D01*
X116644671Y-94498383D01*
X116628607Y-94516107D01*
X116610883Y-94532171D01*
X116591670Y-94546421D01*
X116571153Y-94558718D01*
X116549529Y-94568946D01*
X116527007Y-94577004D01*
X116503803Y-94582816D01*
X116480142Y-94586326D01*
X116456250Y-94587500D01*
X115543750Y-94587500D01*
X115519858Y-94586326D01*
X115496197Y-94582816D01*
X115472993Y-94577004D01*
X115450471Y-94568946D01*
X115428847Y-94558718D01*
X115408330Y-94546421D01*
X115389117Y-94532171D01*
X115371393Y-94516107D01*
X115355329Y-94498383D01*
X115341079Y-94479170D01*
X115328782Y-94458653D01*
X115318554Y-94437029D01*
X115310496Y-94414507D01*
X115304684Y-94391303D01*
X115301174Y-94367642D01*
X115300000Y-94343750D01*
X115300000Y-93856250D01*
X115301174Y-93832358D01*
X115304684Y-93808697D01*
X115310496Y-93785493D01*
X115318554Y-93762971D01*
X115328782Y-93741347D01*
X115341079Y-93720830D01*
X115355329Y-93701617D01*
X115371393Y-93683893D01*
X115389117Y-93667829D01*
X115408330Y-93653579D01*
X115428847Y-93641282D01*
X115450471Y-93631054D01*
X115472993Y-93622996D01*
X115496197Y-93617184D01*
X115519858Y-93613674D01*
X115543750Y-93612500D01*
X116456250Y-93612500D01*
X116480142Y-93613674D01*
X116480142Y-93613674D01*
G37*
D19*
X116000000Y-94100000D03*
D10*
G36*
X112140691Y-97326053D02*
G01*
X112161926Y-97329203D01*
X112182750Y-97334419D01*
X112202962Y-97341651D01*
X112222368Y-97350830D01*
X112240781Y-97361866D01*
X112258024Y-97374654D01*
X112273930Y-97389070D01*
X112288346Y-97404976D01*
X112301134Y-97422219D01*
X112312170Y-97440632D01*
X112321349Y-97460038D01*
X112328581Y-97480250D01*
X112333797Y-97501074D01*
X112336947Y-97522309D01*
X112338000Y-97543750D01*
X112338000Y-98056250D01*
X112336947Y-98077691D01*
X112333797Y-98098926D01*
X112328581Y-98119750D01*
X112321349Y-98139962D01*
X112312170Y-98159368D01*
X112301134Y-98177781D01*
X112288346Y-98195024D01*
X112273930Y-98210930D01*
X112258024Y-98225346D01*
X112240781Y-98238134D01*
X112222368Y-98249170D01*
X112202962Y-98258349D01*
X112182750Y-98265581D01*
X112161926Y-98270797D01*
X112140691Y-98273947D01*
X112119250Y-98275000D01*
X111681750Y-98275000D01*
X111660309Y-98273947D01*
X111639074Y-98270797D01*
X111618250Y-98265581D01*
X111598038Y-98258349D01*
X111578632Y-98249170D01*
X111560219Y-98238134D01*
X111542976Y-98225346D01*
X111527070Y-98210930D01*
X111512654Y-98195024D01*
X111499866Y-98177781D01*
X111488830Y-98159368D01*
X111479651Y-98139962D01*
X111472419Y-98119750D01*
X111467203Y-98098926D01*
X111464053Y-98077691D01*
X111463000Y-98056250D01*
X111463000Y-97543750D01*
X111464053Y-97522309D01*
X111467203Y-97501074D01*
X111472419Y-97480250D01*
X111479651Y-97460038D01*
X111488830Y-97440632D01*
X111499866Y-97422219D01*
X111512654Y-97404976D01*
X111527070Y-97389070D01*
X111542976Y-97374654D01*
X111560219Y-97361866D01*
X111578632Y-97350830D01*
X111598038Y-97341651D01*
X111618250Y-97334419D01*
X111639074Y-97329203D01*
X111660309Y-97326053D01*
X111681750Y-97325000D01*
X112119250Y-97325000D01*
X112140691Y-97326053D01*
X112140691Y-97326053D01*
G37*
D11*
X111900500Y-97800000D03*
D10*
G36*
X113715691Y-97326053D02*
G01*
X113736926Y-97329203D01*
X113757750Y-97334419D01*
X113777962Y-97341651D01*
X113797368Y-97350830D01*
X113815781Y-97361866D01*
X113833024Y-97374654D01*
X113848930Y-97389070D01*
X113863346Y-97404976D01*
X113876134Y-97422219D01*
X113887170Y-97440632D01*
X113896349Y-97460038D01*
X113903581Y-97480250D01*
X113908797Y-97501074D01*
X113911947Y-97522309D01*
X113913000Y-97543750D01*
X113913000Y-98056250D01*
X113911947Y-98077691D01*
X113908797Y-98098926D01*
X113903581Y-98119750D01*
X113896349Y-98139962D01*
X113887170Y-98159368D01*
X113876134Y-98177781D01*
X113863346Y-98195024D01*
X113848930Y-98210930D01*
X113833024Y-98225346D01*
X113815781Y-98238134D01*
X113797368Y-98249170D01*
X113777962Y-98258349D01*
X113757750Y-98265581D01*
X113736926Y-98270797D01*
X113715691Y-98273947D01*
X113694250Y-98275000D01*
X113256750Y-98275000D01*
X113235309Y-98273947D01*
X113214074Y-98270797D01*
X113193250Y-98265581D01*
X113173038Y-98258349D01*
X113153632Y-98249170D01*
X113135219Y-98238134D01*
X113117976Y-98225346D01*
X113102070Y-98210930D01*
X113087654Y-98195024D01*
X113074866Y-98177781D01*
X113063830Y-98159368D01*
X113054651Y-98139962D01*
X113047419Y-98119750D01*
X113042203Y-98098926D01*
X113039053Y-98077691D01*
X113038000Y-98056250D01*
X113038000Y-97543750D01*
X113039053Y-97522309D01*
X113042203Y-97501074D01*
X113047419Y-97480250D01*
X113054651Y-97460038D01*
X113063830Y-97440632D01*
X113074866Y-97422219D01*
X113087654Y-97404976D01*
X113102070Y-97389070D01*
X113117976Y-97374654D01*
X113135219Y-97361866D01*
X113153632Y-97350830D01*
X113173038Y-97341651D01*
X113193250Y-97334419D01*
X113214074Y-97329203D01*
X113235309Y-97326053D01*
X113256750Y-97325000D01*
X113694250Y-97325000D01*
X113715691Y-97326053D01*
X113715691Y-97326053D01*
G37*
D11*
X113475500Y-97800000D03*
D10*
G36*
X109680142Y-95551174D02*
G01*
X109703803Y-95554684D01*
X109727007Y-95560496D01*
X109749529Y-95568554D01*
X109771153Y-95578782D01*
X109791670Y-95591079D01*
X109810883Y-95605329D01*
X109828607Y-95621393D01*
X109844671Y-95639117D01*
X109858921Y-95658330D01*
X109871218Y-95678847D01*
X109881446Y-95700471D01*
X109889504Y-95722993D01*
X109895316Y-95746197D01*
X109898826Y-95769858D01*
X109900000Y-95793750D01*
X109900000Y-96281250D01*
X109898826Y-96305142D01*
X109895316Y-96328803D01*
X109889504Y-96352007D01*
X109881446Y-96374529D01*
X109871218Y-96396153D01*
X109858921Y-96416670D01*
X109844671Y-96435883D01*
X109828607Y-96453607D01*
X109810883Y-96469671D01*
X109791670Y-96483921D01*
X109771153Y-96496218D01*
X109749529Y-96506446D01*
X109727007Y-96514504D01*
X109703803Y-96520316D01*
X109680142Y-96523826D01*
X109656250Y-96525000D01*
X108743750Y-96525000D01*
X108719858Y-96523826D01*
X108696197Y-96520316D01*
X108672993Y-96514504D01*
X108650471Y-96506446D01*
X108628847Y-96496218D01*
X108608330Y-96483921D01*
X108589117Y-96469671D01*
X108571393Y-96453607D01*
X108555329Y-96435883D01*
X108541079Y-96416670D01*
X108528782Y-96396153D01*
X108518554Y-96374529D01*
X108510496Y-96352007D01*
X108504684Y-96328803D01*
X108501174Y-96305142D01*
X108500000Y-96281250D01*
X108500000Y-95793750D01*
X108501174Y-95769858D01*
X108504684Y-95746197D01*
X108510496Y-95722993D01*
X108518554Y-95700471D01*
X108528782Y-95678847D01*
X108541079Y-95658330D01*
X108555329Y-95639117D01*
X108571393Y-95621393D01*
X108589117Y-95605329D01*
X108608330Y-95591079D01*
X108628847Y-95578782D01*
X108650471Y-95568554D01*
X108672993Y-95560496D01*
X108696197Y-95554684D01*
X108719858Y-95551174D01*
X108743750Y-95550000D01*
X109656250Y-95550000D01*
X109680142Y-95551174D01*
X109680142Y-95551174D01*
G37*
D19*
X109200000Y-96037500D03*
D10*
G36*
X109680142Y-93676174D02*
G01*
X109703803Y-93679684D01*
X109727007Y-93685496D01*
X109749529Y-93693554D01*
X109771153Y-93703782D01*
X109791670Y-93716079D01*
X109810883Y-93730329D01*
X109828607Y-93746393D01*
X109844671Y-93764117D01*
X109858921Y-93783330D01*
X109871218Y-93803847D01*
X109881446Y-93825471D01*
X109889504Y-93847993D01*
X109895316Y-93871197D01*
X109898826Y-93894858D01*
X109900000Y-93918750D01*
X109900000Y-94406250D01*
X109898826Y-94430142D01*
X109895316Y-94453803D01*
X109889504Y-94477007D01*
X109881446Y-94499529D01*
X109871218Y-94521153D01*
X109858921Y-94541670D01*
X109844671Y-94560883D01*
X109828607Y-94578607D01*
X109810883Y-94594671D01*
X109791670Y-94608921D01*
X109771153Y-94621218D01*
X109749529Y-94631446D01*
X109727007Y-94639504D01*
X109703803Y-94645316D01*
X109680142Y-94648826D01*
X109656250Y-94650000D01*
X108743750Y-94650000D01*
X108719858Y-94648826D01*
X108696197Y-94645316D01*
X108672993Y-94639504D01*
X108650471Y-94631446D01*
X108628847Y-94621218D01*
X108608330Y-94608921D01*
X108589117Y-94594671D01*
X108571393Y-94578607D01*
X108555329Y-94560883D01*
X108541079Y-94541670D01*
X108528782Y-94521153D01*
X108518554Y-94499529D01*
X108510496Y-94477007D01*
X108504684Y-94453803D01*
X108501174Y-94430142D01*
X108500000Y-94406250D01*
X108500000Y-93918750D01*
X108501174Y-93894858D01*
X108504684Y-93871197D01*
X108510496Y-93847993D01*
X108518554Y-93825471D01*
X108528782Y-93803847D01*
X108541079Y-93783330D01*
X108555329Y-93764117D01*
X108571393Y-93746393D01*
X108589117Y-93730329D01*
X108608330Y-93716079D01*
X108628847Y-93703782D01*
X108650471Y-93693554D01*
X108672993Y-93685496D01*
X108696197Y-93679684D01*
X108719858Y-93676174D01*
X108743750Y-93675000D01*
X109656250Y-93675000D01*
X109680142Y-93676174D01*
X109680142Y-93676174D01*
G37*
D19*
X109200000Y-94162500D03*
D20*
X116020000Y-97990000D03*
X116870000Y-91570000D03*
X103240000Y-97410000D03*
X103200000Y-107180000D03*
X121070000Y-104100000D03*
X117724500Y-105872000D03*
X121143900Y-106100000D03*
D21*
X112355200Y-95100000D02*
X112480300Y-95100000D01*
X111600000Y-95100000D02*
X112355200Y-95100000D01*
X112480300Y-95100000D02*
X112480300Y-95353600D01*
X112480300Y-95353600D02*
X112500100Y-95373400D01*
X109200000Y-96037500D02*
X110137500Y-95100000D01*
X110137500Y-95100000D02*
X111600000Y-95100000D01*
X118399900Y-100350000D02*
X118700000Y-100350000D01*
X118399900Y-100350000D02*
X118099700Y-100350000D01*
X118099700Y-100350000D02*
X118099700Y-100600300D01*
X118099700Y-100600300D02*
X117400000Y-101300000D01*
X109875800Y-93051300D02*
X108924500Y-92100000D01*
X112151300Y-93051300D02*
X109875800Y-93051300D01*
X112700000Y-93600000D02*
X112151300Y-93051300D01*
X112480300Y-95100000D02*
X112700000Y-94880300D01*
X112700000Y-94880300D02*
X112700000Y-93600000D01*
X112700000Y-97000500D02*
X111900500Y-97800000D01*
X112500100Y-95373400D02*
X112700000Y-95573300D01*
X112700000Y-95573300D02*
X112700000Y-97000500D01*
X112773500Y-95100000D02*
X112500100Y-95373400D01*
X116000000Y-95975000D02*
X115125000Y-95100000D01*
X115125000Y-95100000D02*
X112773500Y-95100000D01*
X117410000Y-100350000D02*
X118099700Y-100350000D01*
X117410000Y-98460000D02*
X117410000Y-100350000D01*
X116000000Y-95975000D02*
X116000000Y-97050000D01*
X116000000Y-97050000D02*
X117410000Y-98460000D01*
X108010000Y-99010000D02*
X108000000Y-99000000D01*
X109810000Y-99010000D02*
X108010000Y-99010000D01*
X111900500Y-97800000D02*
X111020000Y-97800000D01*
X111020000Y-97800000D02*
X109810000Y-99010000D01*
X116000000Y-95975000D02*
X116000000Y-97970000D01*
X116000000Y-97970000D02*
X116020000Y-97990000D01*
X116020000Y-97990000D02*
X117230000Y-97990000D01*
X117230000Y-97990000D02*
X118140000Y-97080000D01*
X118140000Y-97080000D02*
X118140000Y-92840000D01*
X118140000Y-92840000D02*
X116870000Y-91570000D01*
X103240000Y-97410000D02*
X103240000Y-107140000D01*
X103240000Y-107140000D02*
X103200000Y-107180000D01*
X121510000Y-104540000D02*
X121469999Y-104499999D01*
X126000000Y-104540000D02*
X121510000Y-104540000D01*
X117400000Y-102850000D02*
X118650000Y-104100000D01*
X120504315Y-104100000D02*
X121070000Y-104100000D01*
X121469999Y-104499999D02*
X121070000Y-104100000D01*
X118650000Y-104100000D02*
X120504315Y-104100000D01*
X117400000Y-101300000D02*
X117400000Y-102850000D01*
X108000000Y-101000000D02*
X111687500Y-101000000D01*
X111687500Y-101000000D02*
X113687500Y-103000000D01*
X113687500Y-103000000D02*
X113687500Y-105000000D01*
X117724500Y-105872000D02*
X117724500Y-107000000D01*
X109200000Y-94162500D02*
X110707200Y-94162500D01*
X110707200Y-94162500D02*
X110719700Y-94150000D01*
X111600000Y-94150000D02*
X110719700Y-94150000D01*
X120700500Y-91700000D02*
X120700500Y-93376000D01*
X120700500Y-93376000D02*
X120724500Y-93400000D01*
X120925200Y-95000000D02*
X120724500Y-94799300D01*
X120724500Y-94799300D02*
X120724500Y-93400000D01*
X120550000Y-95000000D02*
X120925200Y-95000000D01*
X125385200Y-99460000D02*
X120925200Y-95000000D01*
X126000000Y-99460000D02*
X125385200Y-99460000D01*
X108340000Y-97110000D02*
X108181900Y-96951900D01*
X109744100Y-97110000D02*
X108340000Y-97110000D01*
X110719700Y-96134400D02*
X109744100Y-97110000D01*
X111600000Y-96050000D02*
X110719700Y-96050000D01*
X110719700Y-96050000D02*
X110719700Y-96134400D01*
X107920000Y-95442500D02*
X109200000Y-94162500D01*
X107920000Y-96690000D02*
X107920000Y-95442500D01*
X108181900Y-96951900D02*
X107920000Y-96690000D01*
X106500000Y-98633800D02*
X108181900Y-96951900D01*
X108000000Y-101000000D02*
X106500000Y-99500000D01*
X106500000Y-99500000D02*
X106500000Y-98633800D01*
X113800000Y-96050000D02*
X113475500Y-96374500D01*
X113475500Y-96374500D02*
X113475500Y-97800000D01*
X118599600Y-109891200D02*
X118599600Y-109581600D01*
X118599600Y-109581600D02*
X116200500Y-107182500D01*
X116200500Y-107182500D02*
X116200500Y-103900000D01*
X118400000Y-111100100D02*
X118599600Y-110900500D01*
X118599600Y-110900500D02*
X118599600Y-109891200D01*
X116200500Y-103900000D02*
X116100000Y-103799500D01*
X116100000Y-103799500D02*
X116100000Y-102250000D01*
X118400000Y-111100100D02*
X118400000Y-111500300D01*
X118400000Y-110700000D02*
X118400000Y-111100100D01*
X118400000Y-111500300D02*
X118500500Y-111600800D01*
X118500500Y-111600800D02*
X118500500Y-112700000D01*
X114730300Y-94100000D02*
X114680300Y-94150000D01*
X116000000Y-94100000D02*
X114730300Y-94100000D01*
X114730300Y-94100000D02*
X114730300Y-92954800D01*
X114730300Y-92954800D02*
X113875500Y-92100000D01*
X113800000Y-94150000D02*
X114680300Y-94150000D01*
X108650000Y-110900000D02*
X108650000Y-112525500D01*
X108650000Y-112525500D02*
X108824500Y-112700000D01*
X123300000Y-110600000D02*
X123300000Y-111400300D01*
X123300000Y-111400300D02*
X123400500Y-111500800D01*
X123400500Y-111500800D02*
X123400500Y-112700000D01*
X113500000Y-110900000D02*
X113500000Y-111700300D01*
X113500000Y-111700300D02*
X113600500Y-111800800D01*
X113600500Y-111800800D02*
X113600500Y-112700000D01*
X109824500Y-113700000D02*
X108824500Y-112700000D01*
X113600500Y-112700000D02*
X112600500Y-113700000D01*
X112600500Y-113700000D02*
X109824500Y-113700000D01*
X117500500Y-113700000D02*
X118500500Y-112700000D01*
X113600500Y-112700000D02*
X114600500Y-113700000D01*
X114600500Y-113700000D02*
X117500500Y-113700000D01*
X118790800Y-109700000D02*
X118599600Y-109891200D01*
X121649700Y-109700000D02*
X118790800Y-109700000D01*
X123300000Y-110600000D02*
X122549700Y-110600000D01*
X122549700Y-110600000D02*
X121649700Y-109700000D01*
X108650000Y-110850000D02*
X108650000Y-110900000D01*
X106000000Y-108200000D02*
X108650000Y-110850000D01*
X106000000Y-97960000D02*
X106000000Y-108200000D01*
X107419990Y-96540010D02*
X106000000Y-97960000D01*
X107419990Y-91980010D02*
X107419990Y-96540010D01*
X108300000Y-91100000D02*
X107419990Y-91980010D01*
X112875500Y-91100000D02*
X108300000Y-91100000D01*
X113875500Y-92100000D02*
X112875500Y-91100000D01*
X112300500Y-92100000D02*
X110499500Y-92100000D01*
X115400000Y-110900000D02*
X115400000Y-111700300D01*
X115400000Y-111700300D02*
X115175500Y-111924800D01*
X115175500Y-111924800D02*
X115175500Y-112700000D01*
X115700000Y-101300000D02*
X116100000Y-101300000D01*
X116100000Y-107789700D02*
X115200000Y-106889700D01*
X115200000Y-101800000D02*
X115700000Y-101300000D01*
X115200000Y-106889700D02*
X115200000Y-101800000D01*
X115400000Y-110900000D02*
X115400000Y-110850000D01*
X115400000Y-110850000D02*
X116100000Y-110150000D01*
X116100000Y-110150000D02*
X116100000Y-107789700D01*
X110550000Y-110900000D02*
X110550000Y-111700300D01*
X110550000Y-111700300D02*
X110399500Y-111850800D01*
X110399500Y-111850800D02*
X110399500Y-112700000D01*
X115400000Y-108287500D02*
X115400000Y-109600000D01*
X115400000Y-109600000D02*
X115100000Y-109900000D01*
X112300300Y-109900000D02*
X111300300Y-110900000D01*
X111250000Y-110900000D02*
X110550000Y-110900000D01*
X111300300Y-110900000D02*
X111250000Y-110900000D01*
X115100000Y-109900000D02*
X112300300Y-109900000D01*
X114699989Y-107587489D02*
X115400000Y-108287500D01*
X115550000Y-100350000D02*
X114699989Y-101200011D01*
X114699989Y-101200011D02*
X114699989Y-107587489D01*
X116100000Y-100350000D02*
X115550000Y-100350000D01*
X112112500Y-103000000D02*
X108000000Y-103000000D01*
X111681500Y-108900000D02*
X114450000Y-108900000D01*
X110681500Y-109900000D02*
X111681500Y-108900000D01*
X108900000Y-109900000D02*
X110681500Y-109900000D01*
X106500000Y-107500000D02*
X108900000Y-109900000D01*
X108000000Y-103000000D02*
X106500000Y-104500000D01*
X106500000Y-104500000D02*
X106500000Y-107500000D01*
X109600000Y-105000000D02*
X108000000Y-105000000D01*
X112112500Y-105000000D02*
X109600000Y-105000000D01*
X109600000Y-105000000D02*
X109600000Y-108900000D01*
X121143900Y-106100000D02*
X120199500Y-106100000D01*
X120199500Y-106100000D02*
X119299500Y-107000000D01*
X119350000Y-108700000D02*
X119350000Y-107899700D01*
X119350000Y-107899700D02*
X119299500Y-107849200D01*
X119299500Y-107849200D02*
X119299500Y-107000000D01*
X121500000Y-97800300D02*
X121500000Y-97000000D01*
X126000000Y-102000000D02*
X125699700Y-102000000D01*
X125699700Y-102000000D02*
X121500000Y-97800300D01*
X120300000Y-110700000D02*
X120300000Y-111500300D01*
X120300000Y-111500300D02*
X120075500Y-111724800D01*
X120075500Y-111724800D02*
X120075500Y-112700000D01*
X119500000Y-100525000D02*
X118725000Y-101300000D01*
X120200000Y-90700000D02*
X119500000Y-91400000D01*
X118725000Y-101300000D02*
X118700000Y-101300000D01*
X119500000Y-91400000D02*
X119500000Y-100525000D01*
X121075500Y-113700000D02*
X125800000Y-113700000D01*
X120075500Y-112700000D02*
X121075500Y-113700000D01*
X125800000Y-113700000D02*
X128400022Y-111099978D01*
X128400022Y-111099978D02*
X128400022Y-94100022D01*
X128400022Y-94100022D02*
X125000000Y-90700000D01*
X125000000Y-90700000D02*
X120200000Y-90700000D01*
X122275500Y-91700000D02*
X124175000Y-91700000D01*
X124175000Y-91700000D02*
X124200000Y-91725000D01*
X124661612Y-92186612D02*
X124200000Y-91725000D01*
X127900011Y-95425011D02*
X124661612Y-92186612D01*
X127900011Y-105153311D02*
X127900011Y-95425011D01*
X124250000Y-108600000D02*
X124453322Y-108600000D01*
X124453322Y-108600000D02*
X127900011Y-105153311D01*
X124975500Y-110750600D02*
X124975500Y-112700000D01*
X118760000Y-102250000D02*
X118700000Y-102250000D01*
X119780000Y-103270000D02*
X118760000Y-102250000D01*
X126770000Y-103270000D02*
X119780000Y-103270000D01*
X124746200Y-107600000D02*
X127400000Y-104946200D01*
X125200000Y-109850000D02*
X124850000Y-109500000D01*
X127400000Y-103900000D02*
X126770000Y-103270000D01*
X127400000Y-104946200D02*
X127400000Y-103900000D01*
X124850000Y-109500000D02*
X123200000Y-109500000D01*
X123200000Y-109500000D02*
X123200000Y-107800000D01*
X125200000Y-110600000D02*
X125200000Y-109850000D01*
X123200000Y-107800000D02*
X123400000Y-107600000D01*
X123400000Y-107600000D02*
X124746200Y-107600000D01*
X122299500Y-93400000D02*
X124100000Y-93400000D01*
X124100000Y-93400000D02*
X124200000Y-93300000D01*
X122450000Y-94199700D02*
X122299500Y-94049200D01*
X122299500Y-94049200D02*
X122299500Y-93400000D01*
X122450000Y-95000000D02*
X122450000Y-94199700D01*
D22*
G36*
X106892180Y-91397663D02*
G01*
X106862226Y-91422246D01*
X106764128Y-91541778D01*
X106691236Y-91678151D01*
X106646349Y-91826124D01*
X106634990Y-91941450D01*
X106634990Y-91941457D01*
X106631193Y-91980010D01*
X106634990Y-92018563D01*
X106634991Y-96214851D01*
X105472190Y-97377653D01*
X105442236Y-97402236D01*
X105344138Y-97521768D01*
X105271246Y-97658141D01*
X105226359Y-97806114D01*
X105215000Y-97921440D01*
X105215000Y-97921447D01*
X105211203Y-97960000D01*
X105215000Y-97998553D01*
X105215001Y-108161437D01*
X105211203Y-108200000D01*
X105226359Y-108353886D01*
X105271246Y-108501859D01*
X105285622Y-108528754D01*
X105344139Y-108638233D01*
X105372953Y-108673342D01*
X105417655Y-108727812D01*
X105417659Y-108727816D01*
X105442237Y-108757764D01*
X105472185Y-108782342D01*
X107611928Y-110922086D01*
X107611928Y-111350000D01*
X107624188Y-111474482D01*
X107660498Y-111594180D01*
X107719463Y-111704494D01*
X107798815Y-111801185D01*
X107865001Y-111855502D01*
X107865001Y-112020723D01*
X107814150Y-112115858D01*
X107765392Y-112276592D01*
X107748928Y-112443750D01*
X107748928Y-112956250D01*
X107765392Y-113123408D01*
X107814150Y-113284142D01*
X107893329Y-113432275D01*
X107999885Y-113562115D01*
X108129725Y-113668671D01*
X108277858Y-113747850D01*
X108438592Y-113796608D01*
X108605750Y-113813072D01*
X108827415Y-113813072D01*
X109242153Y-114227810D01*
X109266736Y-114257764D01*
X109366939Y-114340000D01*
X101032279Y-114340000D01*
X100934576Y-114330420D01*
X100871643Y-114311420D01*
X100813594Y-114280554D01*
X100762657Y-114239011D01*
X100720752Y-114188356D01*
X100689485Y-114130529D01*
X100670044Y-114067728D01*
X100660000Y-113972165D01*
X100660000Y-111779872D01*
X100765000Y-111779872D01*
X100765000Y-112220128D01*
X100850890Y-112651925D01*
X101019369Y-113058669D01*
X101263962Y-113424729D01*
X101575271Y-113736038D01*
X101941331Y-113980631D01*
X102348075Y-114149110D01*
X102779872Y-114235000D01*
X103220128Y-114235000D01*
X103651925Y-114149110D01*
X104058669Y-113980631D01*
X104424729Y-113736038D01*
X104736038Y-113424729D01*
X104980631Y-113058669D01*
X105149110Y-112651925D01*
X105235000Y-112220128D01*
X105235000Y-111779872D01*
X105149110Y-111348075D01*
X104980631Y-110941331D01*
X104736038Y-110575271D01*
X104424729Y-110263962D01*
X104058669Y-110019369D01*
X103651925Y-109850890D01*
X103220128Y-109765000D01*
X102779872Y-109765000D01*
X102348075Y-109850890D01*
X101941331Y-110019369D01*
X101575271Y-110263962D01*
X101263962Y-110575271D01*
X101019369Y-110941331D01*
X100850890Y-111348075D01*
X100765000Y-111779872D01*
X100660000Y-111779872D01*
X100660000Y-92779872D01*
X100765000Y-92779872D01*
X100765000Y-93220128D01*
X100850890Y-93651925D01*
X101019369Y-94058669D01*
X101263962Y-94424729D01*
X101575271Y-94736038D01*
X101941331Y-94980631D01*
X102348075Y-95149110D01*
X102779872Y-95235000D01*
X103220128Y-95235000D01*
X103651925Y-95149110D01*
X104058669Y-94980631D01*
X104424729Y-94736038D01*
X104736038Y-94424729D01*
X104980631Y-94058669D01*
X105149110Y-93651925D01*
X105235000Y-93220128D01*
X105235000Y-92779872D01*
X105149110Y-92348075D01*
X104980631Y-91941331D01*
X104736038Y-91575271D01*
X104424729Y-91263962D01*
X104058669Y-91019369D01*
X103651925Y-90850890D01*
X103220128Y-90765000D01*
X102779872Y-90765000D01*
X102348075Y-90850890D01*
X101941331Y-91019369D01*
X101575271Y-91263962D01*
X101263962Y-91575271D01*
X101019369Y-91941331D01*
X100850890Y-92348075D01*
X100765000Y-92779872D01*
X100660000Y-92779872D01*
X100660000Y-91032279D01*
X100669580Y-90934576D01*
X100688580Y-90871644D01*
X100719445Y-90813595D01*
X100760989Y-90762657D01*
X100811644Y-90720752D01*
X100869471Y-90689485D01*
X100932272Y-90670044D01*
X101027835Y-90660000D01*
X107629842Y-90660000D01*
X106892180Y-91397663D01*
X106892180Y-91397663D01*
G37*
X106892180Y-91397663D02*
X106862226Y-91422246D01*
X106764128Y-91541778D01*
X106691236Y-91678151D01*
X106646349Y-91826124D01*
X106634990Y-91941450D01*
X106634990Y-91941457D01*
X106631193Y-91980010D01*
X106634990Y-92018563D01*
X106634991Y-96214851D01*
X105472190Y-97377653D01*
X105442236Y-97402236D01*
X105344138Y-97521768D01*
X105271246Y-97658141D01*
X105226359Y-97806114D01*
X105215000Y-97921440D01*
X105215000Y-97921447D01*
X105211203Y-97960000D01*
X105215000Y-97998553D01*
X105215001Y-108161437D01*
X105211203Y-108200000D01*
X105226359Y-108353886D01*
X105271246Y-108501859D01*
X105285622Y-108528754D01*
X105344139Y-108638233D01*
X105372953Y-108673342D01*
X105417655Y-108727812D01*
X105417659Y-108727816D01*
X105442237Y-108757764D01*
X105472185Y-108782342D01*
X107611928Y-110922086D01*
X107611928Y-111350000D01*
X107624188Y-111474482D01*
X107660498Y-111594180D01*
X107719463Y-111704494D01*
X107798815Y-111801185D01*
X107865001Y-111855502D01*
X107865001Y-112020723D01*
X107814150Y-112115858D01*
X107765392Y-112276592D01*
X107748928Y-112443750D01*
X107748928Y-112956250D01*
X107765392Y-113123408D01*
X107814150Y-113284142D01*
X107893329Y-113432275D01*
X107999885Y-113562115D01*
X108129725Y-113668671D01*
X108277858Y-113747850D01*
X108438592Y-113796608D01*
X108605750Y-113813072D01*
X108827415Y-113813072D01*
X109242153Y-114227810D01*
X109266736Y-114257764D01*
X109366939Y-114340000D01*
X101032279Y-114340000D01*
X100934576Y-114330420D01*
X100871643Y-114311420D01*
X100813594Y-114280554D01*
X100762657Y-114239011D01*
X100720752Y-114188356D01*
X100689485Y-114130529D01*
X100670044Y-114067728D01*
X100660000Y-113972165D01*
X100660000Y-111779872D01*
X100765000Y-111779872D01*
X100765000Y-112220128D01*
X100850890Y-112651925D01*
X101019369Y-113058669D01*
X101263962Y-113424729D01*
X101575271Y-113736038D01*
X101941331Y-113980631D01*
X102348075Y-114149110D01*
X102779872Y-114235000D01*
X103220128Y-114235000D01*
X103651925Y-114149110D01*
X104058669Y-113980631D01*
X104424729Y-113736038D01*
X104736038Y-113424729D01*
X104980631Y-113058669D01*
X105149110Y-112651925D01*
X105235000Y-112220128D01*
X105235000Y-111779872D01*
X105149110Y-111348075D01*
X104980631Y-110941331D01*
X104736038Y-110575271D01*
X104424729Y-110263962D01*
X104058669Y-110019369D01*
X103651925Y-109850890D01*
X103220128Y-109765000D01*
X102779872Y-109765000D01*
X102348075Y-109850890D01*
X101941331Y-110019369D01*
X101575271Y-110263962D01*
X101263962Y-110575271D01*
X101019369Y-110941331D01*
X100850890Y-111348075D01*
X100765000Y-111779872D01*
X100660000Y-111779872D01*
X100660000Y-92779872D01*
X100765000Y-92779872D01*
X100765000Y-93220128D01*
X100850890Y-93651925D01*
X101019369Y-94058669D01*
X101263962Y-94424729D01*
X101575271Y-94736038D01*
X101941331Y-94980631D01*
X102348075Y-95149110D01*
X102779872Y-95235000D01*
X103220128Y-95235000D01*
X103651925Y-95149110D01*
X104058669Y-94980631D01*
X104424729Y-94736038D01*
X104736038Y-94424729D01*
X104980631Y-94058669D01*
X105149110Y-93651925D01*
X105235000Y-93220128D01*
X105235000Y-92779872D01*
X105149110Y-92348075D01*
X104980631Y-91941331D01*
X104736038Y-91575271D01*
X104424729Y-91263962D01*
X104058669Y-91019369D01*
X103651925Y-90850890D01*
X103220128Y-90765000D01*
X102779872Y-90765000D01*
X102348075Y-90850890D01*
X101941331Y-91019369D01*
X101575271Y-91263962D01*
X101263962Y-91575271D01*
X101019369Y-91941331D01*
X100850890Y-92348075D01*
X100765000Y-92779872D01*
X100660000Y-92779872D01*
X100660000Y-91032279D01*
X100669580Y-90934576D01*
X100688580Y-90871644D01*
X100719445Y-90813595D01*
X100760989Y-90762657D01*
X100811644Y-90720752D01*
X100869471Y-90689485D01*
X100932272Y-90670044D01*
X101027835Y-90660000D01*
X107629842Y-90660000D01*
X106892180Y-91397663D01*
G36*
X118972189Y-90817653D02*
G01*
X118942236Y-90842236D01*
X118844138Y-90961768D01*
X118771246Y-91098141D01*
X118726359Y-91246114D01*
X118715000Y-91361440D01*
X118715000Y-91361447D01*
X118711203Y-91400000D01*
X118715000Y-91438553D01*
X118715001Y-100199842D01*
X118687507Y-100227336D01*
X118688072Y-100050000D01*
X118675812Y-99925518D01*
X118639502Y-99805820D01*
X118580537Y-99695506D01*
X118577000Y-99691196D01*
X118577000Y-99648750D01*
X118418250Y-99490000D01*
X118358259Y-99494749D01*
X118294180Y-99460498D01*
X118174482Y-99424188D01*
X118050000Y-99411928D01*
X117685750Y-99415000D01*
X117527000Y-99573750D01*
X117527000Y-101173000D01*
X117547000Y-101173000D01*
X117547000Y-101427000D01*
X117527000Y-101427000D01*
X117527000Y-103026250D01*
X117685750Y-103185000D01*
X118050000Y-103188072D01*
X118174482Y-103175812D01*
X118294180Y-103139502D01*
X118360177Y-103104225D01*
X118450000Y-103113072D01*
X118512915Y-103113072D01*
X119197653Y-103797810D01*
X119222236Y-103827764D01*
X119341767Y-103925862D01*
X119466642Y-103992608D01*
X119478140Y-103998754D01*
X119626113Y-104043642D01*
X119701026Y-104051020D01*
X119741439Y-104055000D01*
X119741444Y-104055000D01*
X119780000Y-104058797D01*
X119818556Y-104055000D01*
X124597382Y-104055000D01*
X124558524Y-104183110D01*
X124679845Y-104413000D01*
X125873000Y-104413000D01*
X125873000Y-104393000D01*
X126127000Y-104393000D01*
X126127000Y-104413000D01*
X126147000Y-104413000D01*
X126147000Y-104667000D01*
X126127000Y-104667000D01*
X126127000Y-104687000D01*
X125873000Y-104687000D01*
X125873000Y-104667000D01*
X124679845Y-104667000D01*
X124558524Y-104896890D01*
X124603175Y-105044099D01*
X124728359Y-105306920D01*
X124902412Y-105540269D01*
X125118645Y-105735178D01*
X125358180Y-105877862D01*
X124421043Y-106815000D01*
X123438556Y-106815000D01*
X123400000Y-106811203D01*
X123361444Y-106815000D01*
X123361439Y-106815000D01*
X123321026Y-106818980D01*
X123246113Y-106826358D01*
X123139383Y-106858735D01*
X123098140Y-106871246D01*
X122961767Y-106944138D01*
X122842236Y-107042236D01*
X122817650Y-107072194D01*
X122672186Y-107217657D01*
X122642237Y-107242236D01*
X122617659Y-107272184D01*
X122617655Y-107272188D01*
X122601859Y-107291436D01*
X122544139Y-107361767D01*
X122538729Y-107371889D01*
X122471246Y-107498141D01*
X122426359Y-107646114D01*
X122411203Y-107800000D01*
X122415001Y-107838562D01*
X122415000Y-109355143D01*
X122232047Y-109172190D01*
X122207464Y-109142236D01*
X122087933Y-109044138D01*
X121951560Y-108971246D01*
X121803587Y-108926359D01*
X121688261Y-108915000D01*
X121688253Y-108915000D01*
X121649700Y-108911203D01*
X121611147Y-108915000D01*
X120388072Y-108915000D01*
X120388072Y-108250000D01*
X120375812Y-108125518D01*
X120339502Y-108005820D01*
X120280537Y-107895506D01*
X120201185Y-107798815D01*
X120186174Y-107786496D01*
X120230671Y-107732275D01*
X120309850Y-107584142D01*
X120358608Y-107423408D01*
X120375072Y-107256250D01*
X120375072Y-107034586D01*
X120497071Y-106912587D01*
X120653644Y-107017205D01*
X120842002Y-107095226D01*
X121041961Y-107135000D01*
X121245839Y-107135000D01*
X121445798Y-107095226D01*
X121634156Y-107017205D01*
X121803674Y-106903937D01*
X121947837Y-106759774D01*
X122061105Y-106590256D01*
X122139126Y-106401898D01*
X122178900Y-106201939D01*
X122178900Y-105998061D01*
X122139126Y-105798102D01*
X122061105Y-105609744D01*
X121947837Y-105440226D01*
X121803674Y-105296063D01*
X121634156Y-105182795D01*
X121445798Y-105104774D01*
X121245839Y-105065000D01*
X121041961Y-105065000D01*
X120842002Y-105104774D01*
X120653644Y-105182795D01*
X120484126Y-105296063D01*
X120465189Y-105315000D01*
X120238052Y-105315000D01*
X120199499Y-105311203D01*
X120160946Y-105315000D01*
X120160939Y-105315000D01*
X120059990Y-105324943D01*
X120045612Y-105326359D01*
X119969386Y-105349482D01*
X119897640Y-105371246D01*
X119761267Y-105444138D01*
X119730754Y-105469180D01*
X119671687Y-105517655D01*
X119671684Y-105517658D01*
X119641736Y-105542236D01*
X119617157Y-105572185D01*
X119302414Y-105886928D01*
X119080750Y-105886928D01*
X118913592Y-105903392D01*
X118759500Y-105950135D01*
X118759500Y-105770061D01*
X118727728Y-105610333D01*
X118753037Y-105579494D01*
X118812002Y-105469180D01*
X118848312Y-105349482D01*
X118860572Y-105225000D01*
X118857500Y-105035750D01*
X118698750Y-104877000D01*
X118026944Y-104877000D01*
X118026398Y-104876774D01*
X117826439Y-104837000D01*
X117638000Y-104837000D01*
X117638000Y-104623000D01*
X117658000Y-104623000D01*
X117658000Y-103798750D01*
X117912000Y-103798750D01*
X117912000Y-104623000D01*
X118698750Y-104623000D01*
X118857500Y-104464250D01*
X118860572Y-104275000D01*
X118848312Y-104150518D01*
X118812002Y-104030820D01*
X118753037Y-103920506D01*
X118673685Y-103823815D01*
X118576994Y-103744463D01*
X118466680Y-103685498D01*
X118346982Y-103649188D01*
X118222500Y-103636928D01*
X118070750Y-103640000D01*
X117912000Y-103798750D01*
X117658000Y-103798750D01*
X117499250Y-103640000D01*
X117347500Y-103636928D01*
X117223018Y-103649188D01*
X117103320Y-103685498D01*
X116993006Y-103744463D01*
X116975401Y-103758911D01*
X116974141Y-103746113D01*
X116929254Y-103598140D01*
X116885000Y-103515346D01*
X116885000Y-103186933D01*
X117114250Y-103185000D01*
X117273000Y-103026250D01*
X117273000Y-101427000D01*
X117253000Y-101427000D01*
X117253000Y-101173000D01*
X117273000Y-101173000D01*
X117273000Y-99573750D01*
X117114250Y-99415000D01*
X116750000Y-99411928D01*
X116625518Y-99424188D01*
X116505820Y-99460498D01*
X116439823Y-99495775D01*
X116350000Y-99486928D01*
X115850000Y-99486928D01*
X115725518Y-99499188D01*
X115605820Y-99535498D01*
X115556527Y-99561846D01*
X115549999Y-99561203D01*
X115511446Y-99565000D01*
X115511439Y-99565000D01*
X115410490Y-99574943D01*
X115396112Y-99576359D01*
X115322085Y-99598815D01*
X115248140Y-99621246D01*
X115111767Y-99694138D01*
X115051559Y-99743550D01*
X115022187Y-99767655D01*
X115022184Y-99767658D01*
X114992236Y-99792236D01*
X114967657Y-99822185D01*
X114172179Y-100617664D01*
X114142225Y-100642247D01*
X114044127Y-100761779D01*
X113971235Y-100898152D01*
X113926348Y-101046125D01*
X113914989Y-101161451D01*
X113914989Y-101161458D01*
X113911192Y-101200011D01*
X113914989Y-101238564D01*
X113914989Y-101887789D01*
X113906250Y-101886928D01*
X113684586Y-101886928D01*
X112269847Y-100472190D01*
X112245264Y-100442236D01*
X112125733Y-100344138D01*
X111989360Y-100271246D01*
X111841387Y-100226359D01*
X111726061Y-100215000D01*
X111726053Y-100215000D01*
X111687500Y-100211203D01*
X111648947Y-100215000D01*
X109300987Y-100215000D01*
X109130608Y-100007392D01*
X109114337Y-99994039D01*
X109262135Y-99830330D01*
X109402524Y-99595068D01*
X109492220Y-99343070D01*
X109369720Y-99127000D01*
X108127000Y-99127000D01*
X108127000Y-99147000D01*
X107873000Y-99147000D01*
X107873000Y-99127000D01*
X107853000Y-99127000D01*
X107853000Y-98873000D01*
X107873000Y-98873000D01*
X107873000Y-98853000D01*
X108127000Y-98853000D01*
X108127000Y-98873000D01*
X109369720Y-98873000D01*
X109492220Y-98656930D01*
X109402524Y-98404932D01*
X109324990Y-98275000D01*
X110824928Y-98275000D01*
X110837188Y-98399482D01*
X110873498Y-98519180D01*
X110932463Y-98629494D01*
X111011815Y-98726185D01*
X111108506Y-98805537D01*
X111218820Y-98864502D01*
X111338518Y-98900812D01*
X111463000Y-98913072D01*
X111614750Y-98910000D01*
X111773500Y-98751250D01*
X111773500Y-97927000D01*
X110986750Y-97927000D01*
X110828000Y-98085750D01*
X110824928Y-98275000D01*
X109324990Y-98275000D01*
X109262135Y-98169670D01*
X109078546Y-97966317D01*
X108982776Y-97895000D01*
X109705547Y-97895000D01*
X109744100Y-97898797D01*
X109782653Y-97895000D01*
X109782661Y-97895000D01*
X109897987Y-97883641D01*
X110045960Y-97838754D01*
X110182333Y-97765862D01*
X110301864Y-97667764D01*
X110326447Y-97637810D01*
X110869170Y-97095087D01*
X110837188Y-97200518D01*
X110824928Y-97325000D01*
X110828000Y-97514250D01*
X110986750Y-97673000D01*
X111773500Y-97673000D01*
X111773500Y-97653000D01*
X112027500Y-97653000D01*
X112027500Y-97673000D01*
X112047500Y-97673000D01*
X112047500Y-97927000D01*
X112027500Y-97927000D01*
X112027500Y-98751250D01*
X112186250Y-98910000D01*
X112338000Y-98913072D01*
X112462482Y-98900812D01*
X112582180Y-98864502D01*
X112692494Y-98805537D01*
X112759070Y-98750900D01*
X112780725Y-98768671D01*
X112928858Y-98847850D01*
X113089592Y-98896608D01*
X113256750Y-98913072D01*
X113694250Y-98913072D01*
X113861408Y-98896608D01*
X114022142Y-98847850D01*
X114170275Y-98768671D01*
X114300115Y-98662115D01*
X114406671Y-98532275D01*
X114485850Y-98384142D01*
X114534608Y-98223408D01*
X114551072Y-98056250D01*
X114551072Y-97543750D01*
X114534608Y-97376592D01*
X114485850Y-97215858D01*
X114406671Y-97067725D01*
X114359439Y-97010173D01*
X114454482Y-97000812D01*
X114574180Y-96964502D01*
X114684494Y-96905537D01*
X114778688Y-96828234D01*
X114848815Y-96913685D01*
X114945506Y-96993037D01*
X115055820Y-97052002D01*
X115175518Y-97088312D01*
X115300000Y-97100572D01*
X115714250Y-97097500D01*
X115873000Y-96938750D01*
X115873000Y-96102000D01*
X116127000Y-96102000D01*
X116127000Y-96938750D01*
X116285750Y-97097500D01*
X116700000Y-97100572D01*
X116824482Y-97088312D01*
X116944180Y-97052002D01*
X117054494Y-96993037D01*
X117151185Y-96913685D01*
X117230537Y-96816994D01*
X117289502Y-96706680D01*
X117325812Y-96586982D01*
X117338072Y-96462500D01*
X117335000Y-96260750D01*
X117176250Y-96102000D01*
X116127000Y-96102000D01*
X115873000Y-96102000D01*
X115853000Y-96102000D01*
X115853000Y-95848000D01*
X115873000Y-95848000D01*
X115873000Y-95828000D01*
X116127000Y-95828000D01*
X116127000Y-95848000D01*
X117176250Y-95848000D01*
X117335000Y-95689250D01*
X117338072Y-95487500D01*
X117325812Y-95363018D01*
X117289502Y-95243320D01*
X117230537Y-95133006D01*
X117151185Y-95036315D01*
X117073436Y-94972508D01*
X117079792Y-94967292D01*
X117189458Y-94833664D01*
X117270947Y-94681209D01*
X117321128Y-94515785D01*
X117338072Y-94343750D01*
X117338072Y-93856250D01*
X117321128Y-93684215D01*
X117270947Y-93518791D01*
X117189458Y-93366336D01*
X117079792Y-93232708D01*
X116946164Y-93123042D01*
X116793709Y-93041553D01*
X116628285Y-92991372D01*
X116456250Y-92974428D01*
X115543750Y-92974428D01*
X115516904Y-92977072D01*
X115519097Y-92954800D01*
X115515300Y-92916244D01*
X115515300Y-92916239D01*
X115509935Y-92861768D01*
X115503942Y-92800913D01*
X115459054Y-92652940D01*
X115386162Y-92516567D01*
X115288064Y-92397036D01*
X115258110Y-92372453D01*
X114951072Y-92065415D01*
X114951072Y-91843750D01*
X114934608Y-91676592D01*
X114885850Y-91515858D01*
X114806671Y-91367725D01*
X114700115Y-91237885D01*
X114570275Y-91131329D01*
X114422142Y-91052150D01*
X114261408Y-91003392D01*
X114094250Y-90986928D01*
X113872585Y-90986928D01*
X113545657Y-90660000D01*
X119129843Y-90660000D01*
X118972189Y-90817653D01*
X118972189Y-90817653D01*
G37*
X118972189Y-90817653D02*
X118942236Y-90842236D01*
X118844138Y-90961768D01*
X118771246Y-91098141D01*
X118726359Y-91246114D01*
X118715000Y-91361440D01*
X118715000Y-91361447D01*
X118711203Y-91400000D01*
X118715000Y-91438553D01*
X118715001Y-100199842D01*
X118687507Y-100227336D01*
X118688072Y-100050000D01*
X118675812Y-99925518D01*
X118639502Y-99805820D01*
X118580537Y-99695506D01*
X118577000Y-99691196D01*
X118577000Y-99648750D01*
X118418250Y-99490000D01*
X118358259Y-99494749D01*
X118294180Y-99460498D01*
X118174482Y-99424188D01*
X118050000Y-99411928D01*
X117685750Y-99415000D01*
X117527000Y-99573750D01*
X117527000Y-101173000D01*
X117547000Y-101173000D01*
X117547000Y-101427000D01*
X117527000Y-101427000D01*
X117527000Y-103026250D01*
X117685750Y-103185000D01*
X118050000Y-103188072D01*
X118174482Y-103175812D01*
X118294180Y-103139502D01*
X118360177Y-103104225D01*
X118450000Y-103113072D01*
X118512915Y-103113072D01*
X119197653Y-103797810D01*
X119222236Y-103827764D01*
X119341767Y-103925862D01*
X119466642Y-103992608D01*
X119478140Y-103998754D01*
X119626113Y-104043642D01*
X119701026Y-104051020D01*
X119741439Y-104055000D01*
X119741444Y-104055000D01*
X119780000Y-104058797D01*
X119818556Y-104055000D01*
X124597382Y-104055000D01*
X124558524Y-104183110D01*
X124679845Y-104413000D01*
X125873000Y-104413000D01*
X125873000Y-104393000D01*
X126127000Y-104393000D01*
X126127000Y-104413000D01*
X126147000Y-104413000D01*
X126147000Y-104667000D01*
X126127000Y-104667000D01*
X126127000Y-104687000D01*
X125873000Y-104687000D01*
X125873000Y-104667000D01*
X124679845Y-104667000D01*
X124558524Y-104896890D01*
X124603175Y-105044099D01*
X124728359Y-105306920D01*
X124902412Y-105540269D01*
X125118645Y-105735178D01*
X125358180Y-105877862D01*
X124421043Y-106815000D01*
X123438556Y-106815000D01*
X123400000Y-106811203D01*
X123361444Y-106815000D01*
X123361439Y-106815000D01*
X123321026Y-106818980D01*
X123246113Y-106826358D01*
X123139383Y-106858735D01*
X123098140Y-106871246D01*
X122961767Y-106944138D01*
X122842236Y-107042236D01*
X122817650Y-107072194D01*
X122672186Y-107217657D01*
X122642237Y-107242236D01*
X122617659Y-107272184D01*
X122617655Y-107272188D01*
X122601859Y-107291436D01*
X122544139Y-107361767D01*
X122538729Y-107371889D01*
X122471246Y-107498141D01*
X122426359Y-107646114D01*
X122411203Y-107800000D01*
X122415001Y-107838562D01*
X122415000Y-109355143D01*
X122232047Y-109172190D01*
X122207464Y-109142236D01*
X122087933Y-109044138D01*
X121951560Y-108971246D01*
X121803587Y-108926359D01*
X121688261Y-108915000D01*
X121688253Y-108915000D01*
X121649700Y-108911203D01*
X121611147Y-108915000D01*
X120388072Y-108915000D01*
X120388072Y-108250000D01*
X120375812Y-108125518D01*
X120339502Y-108005820D01*
X120280537Y-107895506D01*
X120201185Y-107798815D01*
X120186174Y-107786496D01*
X120230671Y-107732275D01*
X120309850Y-107584142D01*
X120358608Y-107423408D01*
X120375072Y-107256250D01*
X120375072Y-107034586D01*
X120497071Y-106912587D01*
X120653644Y-107017205D01*
X120842002Y-107095226D01*
X121041961Y-107135000D01*
X121245839Y-107135000D01*
X121445798Y-107095226D01*
X121634156Y-107017205D01*
X121803674Y-106903937D01*
X121947837Y-106759774D01*
X122061105Y-106590256D01*
X122139126Y-106401898D01*
X122178900Y-106201939D01*
X122178900Y-105998061D01*
X122139126Y-105798102D01*
X122061105Y-105609744D01*
X121947837Y-105440226D01*
X121803674Y-105296063D01*
X121634156Y-105182795D01*
X121445798Y-105104774D01*
X121245839Y-105065000D01*
X121041961Y-105065000D01*
X120842002Y-105104774D01*
X120653644Y-105182795D01*
X120484126Y-105296063D01*
X120465189Y-105315000D01*
X120238052Y-105315000D01*
X120199499Y-105311203D01*
X120160946Y-105315000D01*
X120160939Y-105315000D01*
X120059990Y-105324943D01*
X120045612Y-105326359D01*
X119969386Y-105349482D01*
X119897640Y-105371246D01*
X119761267Y-105444138D01*
X119730754Y-105469180D01*
X119671687Y-105517655D01*
X119671684Y-105517658D01*
X119641736Y-105542236D01*
X119617157Y-105572185D01*
X119302414Y-105886928D01*
X119080750Y-105886928D01*
X118913592Y-105903392D01*
X118759500Y-105950135D01*
X118759500Y-105770061D01*
X118727728Y-105610333D01*
X118753037Y-105579494D01*
X118812002Y-105469180D01*
X118848312Y-105349482D01*
X118860572Y-105225000D01*
X118857500Y-105035750D01*
X118698750Y-104877000D01*
X118026944Y-104877000D01*
X118026398Y-104876774D01*
X117826439Y-104837000D01*
X117638000Y-104837000D01*
X117638000Y-104623000D01*
X117658000Y-104623000D01*
X117658000Y-103798750D01*
X117912000Y-103798750D01*
X117912000Y-104623000D01*
X118698750Y-104623000D01*
X118857500Y-104464250D01*
X118860572Y-104275000D01*
X118848312Y-104150518D01*
X118812002Y-104030820D01*
X118753037Y-103920506D01*
X118673685Y-103823815D01*
X118576994Y-103744463D01*
X118466680Y-103685498D01*
X118346982Y-103649188D01*
X118222500Y-103636928D01*
X118070750Y-103640000D01*
X117912000Y-103798750D01*
X117658000Y-103798750D01*
X117499250Y-103640000D01*
X117347500Y-103636928D01*
X117223018Y-103649188D01*
X117103320Y-103685498D01*
X116993006Y-103744463D01*
X116975401Y-103758911D01*
X116974141Y-103746113D01*
X116929254Y-103598140D01*
X116885000Y-103515346D01*
X116885000Y-103186933D01*
X117114250Y-103185000D01*
X117273000Y-103026250D01*
X117273000Y-101427000D01*
X117253000Y-101427000D01*
X117253000Y-101173000D01*
X117273000Y-101173000D01*
X117273000Y-99573750D01*
X117114250Y-99415000D01*
X116750000Y-99411928D01*
X116625518Y-99424188D01*
X116505820Y-99460498D01*
X116439823Y-99495775D01*
X116350000Y-99486928D01*
X115850000Y-99486928D01*
X115725518Y-99499188D01*
X115605820Y-99535498D01*
X115556527Y-99561846D01*
X115549999Y-99561203D01*
X115511446Y-99565000D01*
X115511439Y-99565000D01*
X115410490Y-99574943D01*
X115396112Y-99576359D01*
X115322085Y-99598815D01*
X115248140Y-99621246D01*
X115111767Y-99694138D01*
X115051559Y-99743550D01*
X115022187Y-99767655D01*
X115022184Y-99767658D01*
X114992236Y-99792236D01*
X114967657Y-99822185D01*
X114172179Y-100617664D01*
X114142225Y-100642247D01*
X114044127Y-100761779D01*
X113971235Y-100898152D01*
X113926348Y-101046125D01*
X113914989Y-101161451D01*
X113914989Y-101161458D01*
X113911192Y-101200011D01*
X113914989Y-101238564D01*
X113914989Y-101887789D01*
X113906250Y-101886928D01*
X113684586Y-101886928D01*
X112269847Y-100472190D01*
X112245264Y-100442236D01*
X112125733Y-100344138D01*
X111989360Y-100271246D01*
X111841387Y-100226359D01*
X111726061Y-100215000D01*
X111726053Y-100215000D01*
X111687500Y-100211203D01*
X111648947Y-100215000D01*
X109300987Y-100215000D01*
X109130608Y-100007392D01*
X109114337Y-99994039D01*
X109262135Y-99830330D01*
X109402524Y-99595068D01*
X109492220Y-99343070D01*
X109369720Y-99127000D01*
X108127000Y-99127000D01*
X108127000Y-99147000D01*
X107873000Y-99147000D01*
X107873000Y-99127000D01*
X107853000Y-99127000D01*
X107853000Y-98873000D01*
X107873000Y-98873000D01*
X107873000Y-98853000D01*
X108127000Y-98853000D01*
X108127000Y-98873000D01*
X109369720Y-98873000D01*
X109492220Y-98656930D01*
X109402524Y-98404932D01*
X109324990Y-98275000D01*
X110824928Y-98275000D01*
X110837188Y-98399482D01*
X110873498Y-98519180D01*
X110932463Y-98629494D01*
X111011815Y-98726185D01*
X111108506Y-98805537D01*
X111218820Y-98864502D01*
X111338518Y-98900812D01*
X111463000Y-98913072D01*
X111614750Y-98910000D01*
X111773500Y-98751250D01*
X111773500Y-97927000D01*
X110986750Y-97927000D01*
X110828000Y-98085750D01*
X110824928Y-98275000D01*
X109324990Y-98275000D01*
X109262135Y-98169670D01*
X109078546Y-97966317D01*
X108982776Y-97895000D01*
X109705547Y-97895000D01*
X109744100Y-97898797D01*
X109782653Y-97895000D01*
X109782661Y-97895000D01*
X109897987Y-97883641D01*
X110045960Y-97838754D01*
X110182333Y-97765862D01*
X110301864Y-97667764D01*
X110326447Y-97637810D01*
X110869170Y-97095087D01*
X110837188Y-97200518D01*
X110824928Y-97325000D01*
X110828000Y-97514250D01*
X110986750Y-97673000D01*
X111773500Y-97673000D01*
X111773500Y-97653000D01*
X112027500Y-97653000D01*
X112027500Y-97673000D01*
X112047500Y-97673000D01*
X112047500Y-97927000D01*
X112027500Y-97927000D01*
X112027500Y-98751250D01*
X112186250Y-98910000D01*
X112338000Y-98913072D01*
X112462482Y-98900812D01*
X112582180Y-98864502D01*
X112692494Y-98805537D01*
X112759070Y-98750900D01*
X112780725Y-98768671D01*
X112928858Y-98847850D01*
X113089592Y-98896608D01*
X113256750Y-98913072D01*
X113694250Y-98913072D01*
X113861408Y-98896608D01*
X114022142Y-98847850D01*
X114170275Y-98768671D01*
X114300115Y-98662115D01*
X114406671Y-98532275D01*
X114485850Y-98384142D01*
X114534608Y-98223408D01*
X114551072Y-98056250D01*
X114551072Y-97543750D01*
X114534608Y-97376592D01*
X114485850Y-97215858D01*
X114406671Y-97067725D01*
X114359439Y-97010173D01*
X114454482Y-97000812D01*
X114574180Y-96964502D01*
X114684494Y-96905537D01*
X114778688Y-96828234D01*
X114848815Y-96913685D01*
X114945506Y-96993037D01*
X115055820Y-97052002D01*
X115175518Y-97088312D01*
X115300000Y-97100572D01*
X115714250Y-97097500D01*
X115873000Y-96938750D01*
X115873000Y-96102000D01*
X116127000Y-96102000D01*
X116127000Y-96938750D01*
X116285750Y-97097500D01*
X116700000Y-97100572D01*
X116824482Y-97088312D01*
X116944180Y-97052002D01*
X117054494Y-96993037D01*
X117151185Y-96913685D01*
X117230537Y-96816994D01*
X117289502Y-96706680D01*
X117325812Y-96586982D01*
X117338072Y-96462500D01*
X117335000Y-96260750D01*
X117176250Y-96102000D01*
X116127000Y-96102000D01*
X115873000Y-96102000D01*
X115853000Y-96102000D01*
X115853000Y-95848000D01*
X115873000Y-95848000D01*
X115873000Y-95828000D01*
X116127000Y-95828000D01*
X116127000Y-95848000D01*
X117176250Y-95848000D01*
X117335000Y-95689250D01*
X117338072Y-95487500D01*
X117325812Y-95363018D01*
X117289502Y-95243320D01*
X117230537Y-95133006D01*
X117151185Y-95036315D01*
X117073436Y-94972508D01*
X117079792Y-94967292D01*
X117189458Y-94833664D01*
X117270947Y-94681209D01*
X117321128Y-94515785D01*
X117338072Y-94343750D01*
X117338072Y-93856250D01*
X117321128Y-93684215D01*
X117270947Y-93518791D01*
X117189458Y-93366336D01*
X117079792Y-93232708D01*
X116946164Y-93123042D01*
X116793709Y-93041553D01*
X116628285Y-92991372D01*
X116456250Y-92974428D01*
X115543750Y-92974428D01*
X115516904Y-92977072D01*
X115519097Y-92954800D01*
X115515300Y-92916244D01*
X115515300Y-92916239D01*
X115509935Y-92861768D01*
X115503942Y-92800913D01*
X115459054Y-92652940D01*
X115386162Y-92516567D01*
X115288064Y-92397036D01*
X115258110Y-92372453D01*
X114951072Y-92065415D01*
X114951072Y-91843750D01*
X114934608Y-91676592D01*
X114885850Y-91515858D01*
X114806671Y-91367725D01*
X114700115Y-91237885D01*
X114570275Y-91131329D01*
X114422142Y-91052150D01*
X114261408Y-91003392D01*
X114094250Y-90986928D01*
X113872585Y-90986928D01*
X113545657Y-90660000D01*
X119129843Y-90660000D01*
X118972189Y-90817653D01*
G36*
X112690500Y-96793397D02*
G01*
X112633220Y-96762780D01*
X112660537Y-96729494D01*
X112690500Y-96673438D01*
X112690500Y-96793397D01*
X112690500Y-96793397D01*
G37*
X112690500Y-96793397D02*
X112633220Y-96762780D01*
X112660537Y-96729494D01*
X112690500Y-96673438D01*
X112690500Y-96793397D01*
G36*
X109327000Y-95910500D02*
G01*
X109347000Y-95910500D01*
X109347000Y-96164500D01*
X109327000Y-96164500D01*
X109327000Y-96184500D01*
X109073000Y-96184500D01*
X109073000Y-96164500D01*
X109053000Y-96164500D01*
X109053000Y-95910500D01*
X109073000Y-95910500D01*
X109073000Y-95890500D01*
X109327000Y-95890500D01*
X109327000Y-95910500D01*
X109327000Y-95910500D01*
G37*
X109327000Y-95910500D02*
X109347000Y-95910500D01*
X109347000Y-96164500D01*
X109327000Y-96164500D01*
X109327000Y-96184500D01*
X109073000Y-96184500D01*
X109073000Y-96164500D01*
X109053000Y-96164500D01*
X109053000Y-95910500D01*
X109073000Y-95910500D01*
X109073000Y-95890500D01*
X109327000Y-95890500D01*
X109327000Y-95910500D01*
G36*
X112818815Y-94926185D02*
G01*
X112915506Y-95005537D01*
X113025820Y-95064502D01*
X113142841Y-95100000D01*
X113025820Y-95135498D01*
X112915506Y-95194463D01*
X112818815Y-95273815D01*
X112744103Y-95364853D01*
X112606250Y-95227000D01*
X112524141Y-95227000D01*
X112484494Y-95194463D01*
X112374180Y-95135498D01*
X112257159Y-95100000D01*
X112374180Y-95064502D01*
X112484494Y-95005537D01*
X112524141Y-94973000D01*
X112606250Y-94973000D01*
X112744103Y-94835147D01*
X112818815Y-94926185D01*
X112818815Y-94926185D01*
G37*
X112818815Y-94926185D02*
X112915506Y-95005537D01*
X113025820Y-95064502D01*
X113142841Y-95100000D01*
X113025820Y-95135498D01*
X112915506Y-95194463D01*
X112818815Y-95273815D01*
X112744103Y-95364853D01*
X112606250Y-95227000D01*
X112524141Y-95227000D01*
X112484494Y-95194463D01*
X112374180Y-95135498D01*
X112257159Y-95100000D01*
X112374180Y-95064502D01*
X112484494Y-95005537D01*
X112524141Y-94973000D01*
X112606250Y-94973000D01*
X112744103Y-94835147D01*
X112818815Y-94926185D01*
G36*
X110593750Y-94973000D02*
G01*
X110675859Y-94973000D01*
X110715506Y-95005537D01*
X110825820Y-95064502D01*
X110942841Y-95100000D01*
X110825820Y-95135498D01*
X110715506Y-95194463D01*
X110675859Y-95227000D01*
X110593750Y-95227000D01*
X110535063Y-95285687D01*
X110486599Y-95300388D01*
X110430537Y-95195506D01*
X110351185Y-95098815D01*
X110273436Y-95035008D01*
X110279792Y-95029792D01*
X110347328Y-94947500D01*
X110568250Y-94947500D01*
X110593750Y-94973000D01*
X110593750Y-94973000D01*
G37*
X110593750Y-94973000D02*
X110675859Y-94973000D01*
X110715506Y-95005537D01*
X110825820Y-95064502D01*
X110942841Y-95100000D01*
X110825820Y-95135498D01*
X110715506Y-95194463D01*
X110675859Y-95227000D01*
X110593750Y-95227000D01*
X110535063Y-95285687D01*
X110486599Y-95300388D01*
X110430537Y-95195506D01*
X110351185Y-95098815D01*
X110273436Y-95035008D01*
X110279792Y-95029792D01*
X110347328Y-94947500D01*
X110568250Y-94947500D01*
X110593750Y-94973000D01*
G36*
X114920208Y-94967292D02*
G01*
X114926564Y-94972508D01*
X114848815Y-95036315D01*
X114769463Y-95133006D01*
X114720721Y-95224194D01*
X114684494Y-95194463D01*
X114574180Y-95135498D01*
X114457159Y-95100000D01*
X114574180Y-95064502D01*
X114684494Y-95005537D01*
X114777479Y-94929226D01*
X114834187Y-94923641D01*
X114874379Y-94911449D01*
X114920208Y-94967292D01*
X114920208Y-94967292D01*
G37*
X114920208Y-94967292D02*
X114926564Y-94972508D01*
X114848815Y-95036315D01*
X114769463Y-95133006D01*
X114720721Y-95224194D01*
X114684494Y-95194463D01*
X114574180Y-95135498D01*
X114457159Y-95100000D01*
X114574180Y-95064502D01*
X114684494Y-95005537D01*
X114777479Y-94929226D01*
X114834187Y-94923641D01*
X114874379Y-94911449D01*
X114920208Y-94967292D01*
G36*
X113180725Y-93068671D02*
G01*
X113328858Y-93147850D01*
X113457681Y-93186928D01*
X113270000Y-93186928D01*
X113145518Y-93199188D01*
X113025820Y-93235498D01*
X112915506Y-93294463D01*
X112818815Y-93373815D01*
X112739463Y-93470506D01*
X112700000Y-93544335D01*
X112660537Y-93470506D01*
X112581185Y-93373815D01*
X112484494Y-93294463D01*
X112374180Y-93235498D01*
X112300251Y-93213072D01*
X112519250Y-93213072D01*
X112686408Y-93196608D01*
X112847142Y-93147850D01*
X112995275Y-93068671D01*
X113088000Y-92992574D01*
X113180725Y-93068671D01*
X113180725Y-93068671D01*
G37*
X113180725Y-93068671D02*
X113328858Y-93147850D01*
X113457681Y-93186928D01*
X113270000Y-93186928D01*
X113145518Y-93199188D01*
X113025820Y-93235498D01*
X112915506Y-93294463D01*
X112818815Y-93373815D01*
X112739463Y-93470506D01*
X112700000Y-93544335D01*
X112660537Y-93470506D01*
X112581185Y-93373815D01*
X112484494Y-93294463D01*
X112374180Y-93235498D01*
X112300251Y-93213072D01*
X112519250Y-93213072D01*
X112686408Y-93196608D01*
X112847142Y-93147850D01*
X112995275Y-93068671D01*
X113088000Y-92992574D01*
X113180725Y-93068671D01*
G36*
X109051500Y-91973000D02*
G01*
X109071500Y-91973000D01*
X109071500Y-92227000D01*
X109051500Y-92227000D01*
X109051500Y-92247000D01*
X108797500Y-92247000D01*
X108797500Y-92227000D01*
X108777500Y-92227000D01*
X108777500Y-91973000D01*
X108797500Y-91973000D01*
X108797500Y-91953000D01*
X109051500Y-91953000D01*
X109051500Y-91973000D01*
X109051500Y-91973000D01*
G37*
X109051500Y-91973000D02*
X109071500Y-91973000D01*
X109071500Y-92227000D01*
X109051500Y-92227000D01*
X109051500Y-92247000D01*
X108797500Y-92247000D01*
X108797500Y-92227000D01*
X108777500Y-92227000D01*
X108777500Y-91973000D01*
X108797500Y-91973000D01*
X108797500Y-91953000D01*
X109051500Y-91953000D01*
X109051500Y-91973000D01*
M02*
